<svg width="898.8950439453125px" height="202.4px" xmlns="http://www.w3.org/2000/svg" viewBox="-199.44752197265626 -26.200000000000003 898.8950439453125 202.4" style="background: rgb(21, 21, 21);" preserveAspectRatio="xMidYMid"><defs><filter id="editing-hover" x="-100%" y="-100%" width="300%" height="300%"><feFlood flood-color="#000000" result="flood"></feFlood><feComposite operator="in" in2="SourceAlpha" in="flood" result="shadow"></feComposite><feOffset dx="-4" dy="-4" in="SourceGraphic" result="offset-1"></feOffset><feOffset dx="4" dy="4" in="shadow" result="offset-2"></feOffset><feMerge><feMergeNode in="offset-2"></feMergeNode><feMergeNode in="offset-1"></feMergeNode></feMerge></filter></defs><g filter="url(#editing-hover)"><g transform="translate(-75.22996854782104, 127.33999967575073)"><path d="M7.77 0L7.77-75.15L52.39-75.15L52.39-65.16L20.98-65.16L20.98-44.18L46.84-44.18L45.18-34.08L20.98-34.08L20.98-9.99L54.06-9.99L54.06 0L7.77 0ZM139.53 0L126.98 0L126.98-36.19L126.98-36.19Q126.98-40.85 125.54-43.57L125.54-43.57L125.54-43.57Q124.10-46.29 120.55-46.29L120.55-46.29L120.55-46.29Q118.44-46.29 116.27-45.12L116.27-45.12L116.27-45.12Q114.11-43.96 112.33-41.74L112.33-41.74L112.33-41.74Q110.56-39.52 109.45-36.41L109.45-36.41L109.45-36.41Q108.34-33.30 108.34-29.53L108.34-29.53L108.34 0L95.79 0L95.79-36.19L95.79-36.19Q95.79-40.85 94.35-43.57L94.35-43.57L94.35-43.57Q92.91-46.29 89.35-46.29L89.35-46.29L89.35-46.29Q87.13-46.29 84.97-45.01L84.97-45.01L84.97-45.01Q82.81-43.73 81.09-41.29L81.09-41.29L81.09-41.29Q79.36-38.85 78.31-35.35L78.31-35.35L78.31-35.35Q77.26-31.86 77.26-27.53L77.26-27.53L77.26 0L64.60 0L64.60-27.97L64.60-27.97Q64.60-34.63 63.71-39.13L63.71-39.13L63.71-39.13Q62.83-43.62 61.83-46.40L61.83-46.40L61.83-46.40Q60.61-49.62 59.16-51.62L59.16-51.62L69.15-55.61L69.15-55.61Q70.26-54.39 71.37-52.61L71.37-52.61L71.37-52.61Q72.26-51.06 73.15-48.78L73.15-48.78L73.15-48.78Q74.04-46.51 74.59-43.62L74.59-43.62L74.59-43.62Q77.37-50.28 82.42-53.22L82.42-53.22L82.42-53.22Q87.47-56.17 93.13-56.17L93.13-56.17L93.13-56.17Q98.79-56.17 101.95-53.28L101.95-53.28L101.95-53.28Q105.12-50.39 106.67-45.84L106.67-45.84L106.67-45.84Q109.67-51.39 114.39-53.78L114.39-53.78L114.39-53.78Q119.10-56.17 124.32-56.17L124.32-56.17L124.32-56.17Q128.65-56.17 131.59-54.78L131.59-54.78L131.59-54.78Q134.53-53.39 136.25-50.89L136.25-50.89L136.25-50.89Q137.97-48.40 138.75-44.90L138.75-44.90L138.75-44.90Q139.53-41.40 139.53-37.07L139.53-37.07L139.53 0ZM198.02-52.95L198.02-26.75L198.02-26.75Q198.02-20.09 198.86-15.60L198.86-15.60L198.86-15.60Q199.69-11.10 200.69-8.32L200.69-8.32L200.69-8.32Q201.91-5.00 203.35-3.11L203.35-3.11L193.47 0.89L193.47 0.89Q192.03-0.56 190.81-2.55L190.81-2.55L190.81-2.55Q189.81-4.33 188.92-6.83L188.92-6.83L188.92-6.83Q188.03-9.32 187.81-12.77L187.81-12.77L187.81-12.77Q185.93-6.11 181.76-2.72L181.76-2.72L181.76-2.72Q177.60 0.67 170.50 0.67L170.50 0.67L170.50 0.67Q165.28 0.67 161.45-1.28L161.45-1.28L161.45-1.28Q157.62-3.22 155.07-6.83L155.07-6.83L155.07-6.83Q152.51-10.43 151.29-15.54L151.29-15.54L151.29-15.54Q150.07-20.65 150.07-26.86L150.07-26.86L150.07-26.86Q150.07-33.19 152.01-38.57L152.01-38.57L152.01-38.57Q153.96-43.96 157.45-47.84L157.45-47.84L157.45-47.84Q160.95-51.73 165.83-53.95L165.83-53.95L165.83-53.95Q170.72-56.17 176.60-56.17L176.60-56.17L176.60-56.17Q179.93-56.17 183.54-55.67L183.54-55.67L183.54-55.67Q187.15-55.17 190.25-54.61L190.25-54.61L190.25-54.61Q193.36-54.06 195.53-53.56L195.53-53.56L195.53-53.56Q197.69-53.06 198.02-52.95L198.02-52.95ZM172.61-8.21L172.61-8.21Q175.38-8.21 177.71-10.10L177.71-10.10L177.71-10.10Q180.04-11.99 181.76-15.04L181.76-15.04L181.76-15.04Q183.48-18.09 184.43-22.03L184.43-22.03L184.43-22.03Q185.37-25.97 185.37-30.08L185.37-30.08L185.37-46.06L185.37-46.06Q184.26-46.40 182.04-46.84L182.04-46.84L182.04-46.84Q179.82-47.29 178.04-47.29L178.04-47.29L178.04-47.29Q173.83-47.29 171.11-45.84L171.11-45.84L171.11-45.84Q168.39-44.40 166.72-41.85L166.72-41.85L166.72-41.85Q165.06-39.29 164.39-35.74L164.39-35.74L164.39-35.74Q163.73-32.19 163.73-27.97L163.73-27.97L163.73-27.97Q163.73-24.09 163.95-20.54L163.95-20.54L163.95-20.54Q164.17-16.98 165.11-14.21L165.11-14.21L165.11-14.21Q166.06-11.43 167.83-9.82L167.83-9.82L167.83-9.82Q169.61-8.21 172.61-8.21L172.61-8.21ZM224.55 0.44L224.55 0.44Q218.67 0.44 215.56-3.05L215.56-3.05L215.56-3.05Q212.45-6.55 212.45-12.10L212.45-12.10L212.45-55.28L225.11-55.28L225.11-13.21L225.11-13.21Q225.11-10.66 225.89-9.77L225.89-9.77L225.89-9.77Q226.66-8.88 228.22-8.88L228.22-8.88L228.22-8.88Q228.66-8.88 229.16-8.88L229.16-8.88L229.16-8.88Q229.66-8.88 230.10-8.99L230.10-8.99L230.10-8.99Q230.55-8.99 231.10-9.10L231.10-9.10L232.43-1.11L232.43-1.11Q231.66-0.67 230.44-0.33L230.44-0.33L230.44-0.33Q229.44 0 227.94 0.22L227.94 0.22L227.94 0.22Q226.44 0.44 224.55 0.44L224.55 0.44ZM219.00-79.92L219.00-79.92Q222.56-79.92 224.44-77.81L224.44-77.81L224.44-77.81Q226.33-75.70 226.33-72.37L226.33-72.37L226.33-72.37Q226.33-69.04 224.39-66.82L224.39-66.82L224.39-66.82Q222.44-64.60 218.67-64.60L218.67-64.60L218.67-64.60Q215.12-64.60 213.18-66.77L213.18-66.77L213.18-66.77Q211.23-68.93 211.23-72.04L211.23-72.04L211.23-72.04Q211.23-75.48 213.18-77.70L213.18-77.70L213.18-77.70Q215.12-79.92 219.00-79.92L219.00-79.92ZM253.08 0.44L253.08 0.44Q246.75 0.44 243.76-3.05L243.76-3.05L243.76-3.05Q240.76-6.55 240.76-11.99L240.76-11.99L240.76-78.25L253.41-80.59L253.41-13.21L253.41-13.21Q253.41-10.66 254.41-9.66L254.41-9.66L254.41-9.66Q255.41-8.66 257.30-8.66L257.30-8.66L257.30-8.66Q258.41-8.66 259.46-8.77L259.46-8.77L259.46-8.77Q260.52-8.88 261.41-9.10L261.41-9.10L261.41-9.10Q262.40-9.32 263.18-9.55L263.18-9.55L264.74-1.55L264.74-1.55Q263.29-1.00 261.52-0.56L261.52-0.56L261.52-0.56Q259.96-0.11 257.85 0.17L257.85 0.17L257.85 0.17Q255.74 0.44 253.08 0.44L253.08 0.44ZM360.75 0L345.88-45.62L345.88-45.62Q344.21-50.17 343.21-54.50L343.21-54.50L343.21-54.50Q342.66-52.39 342.16-50.28L342.16-50.28L342.16-50.28Q341.66-48.17 340.88-45.62L340.88-45.62L326.45 0L316.68 0L295.82-75.15L309.02-75.15L318.79-37.52L318.79-37.52Q321.35-27.75 322.46-21.76L322.46-21.76L322.46-21.76Q323.23-24.86 324.29-28.64L324.29-28.64L324.29-28.64Q325.34-32.41 326.90-37.30L326.90-37.30L338.66-75.15L348.54-75.15L360.31-37.30L360.31-37.30Q361.86-32.30 362.97-28.19L362.97-28.19L362.97-28.19Q364.08-24.09 364.75-20.98L364.75-20.98L364.75-20.98Q365.19-24.09 366.02-28.19L366.02-28.19L366.02-28.19Q366.86-32.30 368.19-37.30L368.19-37.30L377.96-75.15L391.39-75.15L370.52 0L360.75 0ZM420.91-43.73L420.91-43.73Q418.91-43.73 416.92-42.73L416.92-42.73L416.92-42.73Q414.92-41.74 413.36-40.02L413.36-40.02L413.36-40.02Q411.81-38.30 410.81-35.85L410.81-35.85L410.81-35.85Q409.81-33.41 409.81-30.41L409.81-30.41L409.81 0L397.16 0L397.16-27.97L397.16-27.97Q397.16-34.63 396.27-39.13L396.27-39.13L396.27-39.13Q395.38-43.62 394.38-46.40L394.38-46.40L394.38-46.40Q393.16-49.62 391.72-51.62L391.72-51.62L401.71-55.61L401.71-55.61Q402.71-54.39 403.82-52.61L403.82-52.61L403.82-52.61Q404.71-51.06 405.59-48.95L405.59-48.95L405.59-48.95Q406.48-46.84 407.04-43.96L407.04-43.96L407.04-43.96Q409.26-50.39 413.48-53.22L413.48-53.22L413.48-53.22Q417.69-56.05 423.02-56.05L423.02-56.05L423.02-56.05Q425.57-56.05 427.79-55.44L427.79-55.44L427.79-55.44Q430.01-54.83 429.90-54.83L429.90-54.83L426.35-42.51L426.35-42.51Q426.46-42.51 425.07-43.12L425.07-43.12L425.07-43.12Q423.69-43.73 420.91-43.73L420.91-43.73ZM448.77 0.44L448.77 0.44Q442.89 0.44 439.78-3.05L439.78-3.05L439.78-3.05Q436.67-6.55 436.67-12.10L436.67-12.10L436.67-55.28L449.33-55.28L449.33-13.21L449.33-13.21Q449.33-10.66 450.11-9.77L450.11-9.77L450.11-9.77Q450.88-8.88 452.44-8.88L452.44-8.88L452.44-8.88Q452.88-8.88 453.38-8.88L453.38-8.88L453.38-8.88Q453.88-8.88 454.32-8.99L454.32-8.99L454.32-8.99Q454.77-8.99 455.32-9.10L455.32-9.10L456.65-1.11L456.65-1.11Q455.88-0.67 454.66-0.33L454.66-0.33L454.66-0.33Q453.66 0 452.16 0.22L452.16 0.22L452.16 0.22Q450.66 0.44 448.77 0.44L448.77 0.44ZM443.22-79.92L443.22-79.92Q446.78-79.92 448.66-77.81L448.66-77.81L448.66-77.81Q450.55-75.70 450.55-72.37L450.55-72.37L450.55-72.37Q450.55-69.04 448.61-66.82L448.61-66.82L448.61-66.82Q446.66-64.60 442.89-64.60L442.89-64.60L442.89-64.60Q439.34-64.60 437.40-66.77L437.40-66.77L437.40-66.77Q435.45-68.93 435.45-72.04L435.45-72.04L435.45-72.04Q435.45-75.48 437.40-77.70L437.40-77.70L437.40-77.70Q439.34-79.92 443.22-79.92L443.22-79.92ZM459.43-46.29L459.43-55.28L469.42-55.28L471.64-68.27L482.07-70.60L482.07-55.28L495.73-55.28L494.17-46.29L482.07-46.29L482.07-13.43L482.07-13.43Q482.07-10.54 483.63-9.71L483.63-9.71L483.63-9.71Q485.18-8.88 487.07-8.88L487.07-8.88L487.07-8.88Q488.62-8.88 490.18-9.10L490.18-9.10L490.18-9.10Q491.73-9.32 492.95-9.66L492.95-9.66L492.95-9.66Q494.39-9.99 495.73-10.43L495.73-10.43L497.84-2.11L496.84-1.78L496.84-1.78Q495.84-1.33 493.89-0.83L493.89-0.83L493.89-0.83Q491.95-0.33 489.34 0.06L489.34 0.06L489.34 0.06Q486.74 0.44 483.63 0.44L483.63 0.44L483.63 0.44Q480.52 0.44 477.91-0.22L477.91-0.22L477.91-0.22Q475.30-0.89 473.42-2.39L473.42-2.39L473.42-2.39Q471.53-3.89 470.47-6.22L470.47-6.22L470.47-6.22Q469.42-8.55 469.42-11.99L469.42-11.99L469.42-46.29L459.43-46.29ZM517.26 0.44L517.26 0.44Q511.38 0.44 508.27-3.05L508.27-3.05L508.27-3.05Q505.16-6.55 505.16-12.10L505.16-12.10L505.16-55.28L517.81-55.28L517.81-13.21L517.81-13.21Q517.81-10.66 518.59-9.77L518.59-9.77L518.59-9.77Q519.37-8.88 520.92-8.88L520.92-8.88L520.92-8.88Q521.37-8.88 521.87-8.88L521.87-8.88L521.87-8.88Q522.37-8.88 522.81-8.99L522.81-8.99L522.81-8.99Q523.25-8.99 523.81-9.10L523.81-9.10L525.14-1.11L525.14-1.11Q524.36-0.67 523.14-0.33L523.14-0.33L523.14-0.33Q522.14 0 520.65 0.22L520.65 0.22L520.65 0.22Q519.15 0.44 517.26 0.44L517.26 0.44ZM511.71-79.92L511.71-79.92Q515.26-79.92 517.15-77.81L517.15-77.81L517.15-77.81Q519.04-75.70 519.04-72.37L519.04-72.37L519.04-72.37Q519.04-69.04 517.09-66.82L517.09-66.82L517.09-66.82Q515.15-64.60 511.38-64.60L511.38-64.60L511.38-64.60Q507.82-64.60 505.88-66.77L505.88-66.77L505.88-66.77Q503.94-68.93 503.94-72.04L503.94-72.04L503.94-72.04Q503.94-75.48 505.88-77.70L505.88-77.70L505.88-77.70Q507.82-79.92 511.71-79.92L511.71-79.92ZM580.97 0L568.43 0L568.43-35.85L568.43-35.85Q568.43-40.52 566.77-43.35L566.77-43.35L566.77-43.35Q565.10-46.18 561.11-46.18L561.11-46.18L561.11-46.18Q558.55-46.18 556.17-44.90L556.17-44.90L556.17-44.90Q553.78-43.62 551.89-41.18L551.89-41.18L551.89-41.18Q550.00-38.74 548.84-35.24L548.84-35.24L548.84-35.24Q547.67-31.75 547.67-27.42L547.67-27.42L547.67 0L535.02 0L535.02-27.97L535.02-27.97Q535.02-34.63 534.13-39.13L534.13-39.13L534.13-39.13Q533.24-43.62 532.25-46.40L532.25-46.40L532.25-46.40Q531.02-49.62 529.58-51.62L529.58-51.62L539.57-55.61L539.57-55.61Q540.68-54.39 541.79-52.61L541.79-52.61L541.79-52.61Q542.68-51.06 543.57-48.78L543.57-48.78L543.57-48.78Q544.46-46.51 545.01-43.62L545.01-43.62L545.01-43.62Q547.90-50.28 553.34-53.22L553.34-53.22L553.34-53.22Q558.77-56.17 564.77-56.17L564.77-56.17L564.77-56.17Q573.32-56.17 577.14-51.00L577.14-51.00L577.14-51.00Q580.97-45.84 580.97-37.07L580.97-37.07L580.97 0ZM600.18 19.43L603.28 9.77L603.28 9.77Q604.95 10.43 606.84 11.16L606.84 11.16L606.84 11.16Q608.72 11.88 610.83 12.54L610.83 12.54L610.83 12.54Q612.94 13.21 615.11 13.65L615.11 13.65L615.11 13.65Q617.27 14.10 619.38 14.10L619.38 14.10L619.38 14.10Q625.60 14.10 628.37 10.38L628.37 10.38L628.37 10.38Q631.15 6.66 631.15 0.78L631.15 0.78L631.15 0.78Q631.15-5.00 628.70-10.88L628.70-10.88L628.70-10.88Q626.82-5.22 622.77-2.28L622.77-2.28L622.77-2.28Q618.71 0.67 612.05 0.67L612.05 0.67L612.05 0.67Q606.84 0.67 603.01-1.28L603.01-1.28L603.01-1.28Q599.18-3.22 596.63-6.83L596.63-6.83L596.63-6.83Q594.07-10.43 592.85-15.54L592.85-15.54L592.85-15.54Q591.63-20.65 591.63-26.86L591.63-26.86L591.63-26.86Q591.63-33.19 593.57-38.57L593.57-38.57L593.57-38.57Q595.51-43.96 599.01-47.84L599.01-47.84L599.01-47.84Q602.51-51.73 607.39-53.95L607.39-53.95L607.39-53.95Q612.28-56.17 618.16-56.17L618.16-56.17L618.16-56.17Q620.82-56.17 623.88-55.83L623.88-55.83L623.88-55.83Q626.93-55.50 629.87-55.00L629.87-55.00L629.87-55.00Q632.81-54.50 635.42-53.95L635.42-53.95L635.42-53.95Q638.03-53.39 639.91-52.95L639.91-52.95L639.36-22.42L639.36-22.42Q639.25-19.09 639.75-16.32L639.75-16.32L639.75-16.32Q640.25-13.54 640.91-10.82L640.91-10.82L640.91-10.82Q641.58-8.10 642.13-5.33L642.13-5.33L642.13-5.33Q642.69-2.55 642.69 0.78L642.69 0.78L642.69 0.78Q642.69 12.54 636.70 18.32L636.70 18.32L636.70 18.32Q630.70 24.09 620.49 24.09L620.49 24.09L620.49 24.09Q617.16 24.09 613.83 23.48L613.83 23.48L613.83 23.48Q610.50 22.87 607.67 22.09L607.67 22.09L607.67 22.09Q604.84 21.31 602.84 20.54L602.84 20.54L602.84 20.54Q600.84 19.76 600.18 19.43L600.18 19.43ZM614.16-8.21L614.16-8.21Q616.83-8.21 619.10-9.99L619.10-9.99L619.10-9.99Q621.38-11.77 623.15-14.71L623.15-14.71L623.15-14.71Q624.93-17.65 625.93-21.42L625.93-21.42L625.93-21.42Q626.93-25.20 626.93-29.19L626.93-29.19L626.93-46.06L626.93-46.06Q625.82-46.40 623.60-46.84L623.60-46.84L623.60-46.84Q621.38-47.29 619.60-47.29L619.60-47.29L619.60-47.29Q615.38-47.29 612.66-45.84L612.66-45.84L612.66-45.84Q609.95-44.40 608.28-41.85L608.28-41.85L608.28-41.85Q606.62-39.29 605.95-35.74L605.95-35.74L605.95-35.74Q605.28-32.19 605.28-27.97L605.28-27.97L605.28-27.97Q605.28-24.09 605.50-20.54L605.50-20.54L605.50-20.54Q605.73-16.98 606.67-14.21L606.67-14.21L606.67-14.21Q607.61-11.43 609.39-9.82L609.39-9.82L609.39-9.82Q611.17-8.21 614.16-8.21L614.16-8.21Z" fill="#c887ff"></path></g></g><style>text {
  font-size: 64px;
  font-family: Arial Black;
  dominant-baseline: central;
  text-anchor: middle;
}</style></svg>