<svg width="855.425px" height="202.4px" xmlns="http://www.w3.org/2000/svg" viewBox="-177.71249999999998 -26.200000000000003 855.425 202.4" style="background: rgb(21, 21, 21);" preserveAspectRatio="xMidYMid"><defs><filter id="editing-hover" x="-100%" y="-100%" width="300%" height="300%"><feFlood flood-color="#000000" result="flood"></feFlood><feComposite operator="in" in2="SourceAlpha" in="flood" result="shadow"></feComposite><feOffset dx="-4" dy="-4" in="SourceGraphic" result="offset-1"></feOffset><feOffset dx="4" dy="4" in="shadow" result="offset-2"></feOffset><feMerge><feMergeNode in="offset-2"></feMergeNode><feMergeNode in="offset-1"></feMergeNode></feMerge></filter></defs><g filter="url(#editing-hover)"><g transform="translate(-60.18997526168823, 115.8500018119812)"><path d="M7.77 0L7.77-75.15L52.39-75.15L52.39-65.16L20.98-65.16L20.98-43.51L46.84-43.51L45.18-33.52L20.98-33.52L20.98 0L7.77 0ZM76.70-56.61L76.70-56.61Q89.47-56.61 95.24-49.06L95.24-49.06L95.24-49.06Q101.01-41.51 101.01-28.30L101.01-28.30L101.01-28.30Q101.01-22.09 99.46-16.71L99.46-16.71L99.46-16.71Q97.90-11.32 94.74-7.38L94.74-7.38L94.74-7.38Q91.57-3.44 86.80-1.17L86.80-1.17L86.80-1.17Q82.03 1.11 75.70 1.11L75.70 1.11L75.70 1.11Q69.38 1.11 64.77-0.83L64.77-0.83L64.77-0.83Q60.16-2.77 57.16-6.44L57.16-6.44L57.16-6.44Q54.17-10.10 52.78-15.32L52.78-15.32L52.78-15.32Q51.39-20.54 51.39-27.08L51.39-27.08L51.39-27.08Q51.39-33.41 52.95-38.79L52.95-38.79L52.95-38.79Q54.50-44.18 57.66-48.12L57.66-48.12L57.66-48.12Q60.83-52.06 65.60-54.33L65.60-54.33L65.60-54.33Q70.37-56.61 76.70-56.61L76.70-56.61ZM75.59-47.29L75.59-47.29Q72.37-47.29 70.32-45.84L70.32-45.84L70.32-45.84Q68.27-44.40 67.10-41.79L67.10-41.79L67.10-41.79Q65.93-39.18 65.49-35.69L65.49-35.69L65.49-35.69Q65.05-32.19 65.05-28.19L65.05-28.19L65.05-28.19Q65.05-24.09 65.55-20.42L65.55-20.42L65.55-20.42Q66.04-16.76 67.38-14.04L67.38-14.04L67.38-14.04Q68.71-11.32 70.98-9.77L70.98-9.77L70.98-9.77Q73.26-8.21 76.81-8.21L76.81-8.21L76.81-8.21Q80.03-8.21 82.08-9.66L82.08-9.66L82.08-9.66Q84.14-11.10 85.30-13.71L85.30-13.71L85.30-13.71Q86.47-16.32 86.91-19.76L86.91-19.76L86.91-19.76Q87.36-23.20 87.36-27.20L87.36-27.20L87.36-27.20Q87.36-31.30 86.86-34.97L86.86-34.97L86.86-34.97Q86.36-38.63 85.03-41.40L85.03-41.40L85.03-41.40Q83.69-44.18 81.42-45.73L81.42-45.73L81.42-45.73Q79.14-47.29 75.59-47.29L75.59-47.29ZM134.09-56.61L134.09-56.61Q146.85-56.61 152.63-49.06L152.63-49.06L152.63-49.06Q158.40-41.51 158.40-28.30L158.40-28.30L158.40-28.30Q158.40-22.09 156.84-16.71L156.84-16.71L156.84-16.71Q155.29-11.32 152.13-7.38L152.13-7.38L152.13-7.38Q148.96-3.44 144.19-1.17L144.19-1.17L144.19-1.17Q139.42 1.11 133.09 1.11L133.09 1.11L133.09 1.11Q126.76 1.11 122.16-0.83L122.16-0.83L122.16-0.83Q117.55-2.77 114.55-6.44L114.55-6.44L114.55-6.44Q111.55-10.10 110.17-15.32L110.17-15.32L110.17-15.32Q108.78-20.54 108.78-27.08L108.78-27.08L108.78-27.08Q108.78-33.41 110.33-38.79L110.33-38.79L110.33-38.79Q111.89-44.18 115.05-48.12L115.05-48.12L115.05-48.12Q118.22-52.06 122.99-54.33L122.99-54.33L122.99-54.33Q127.76-56.61 134.09-56.61L134.09-56.61ZM132.98-47.29L132.98-47.29Q129.76-47.29 127.71-45.84L127.71-45.84L127.71-45.84Q125.65-44.40 124.49-41.79L124.49-41.79L124.49-41.79Q123.32-39.18 122.88-35.69L122.88-35.69L122.88-35.69Q122.43-32.19 122.43-28.19L122.43-28.19L122.43-28.19Q122.43-24.09 122.93-20.42L122.93-20.42L122.93-20.42Q123.43-16.76 124.76-14.04L124.76-14.04L124.76-14.04Q126.10-11.32 128.37-9.77L128.37-9.77L128.37-9.77Q130.65-8.21 134.20-8.21L134.20-8.21L134.20-8.21Q137.42-8.21 139.47-9.66L139.47-9.66L139.47-9.66Q141.53-11.10 142.69-13.71L142.69-13.71L142.69-13.71Q143.86-16.32 144.30-19.76L144.30-19.76L144.30-19.76Q144.74-23.20 144.74-27.20L144.74-27.20L144.74-27.20Q144.74-31.30 144.24-34.97L144.24-34.97L144.24-34.97Q143.75-38.63 142.41-41.40L142.41-41.40L142.41-41.40Q141.08-44.18 138.81-45.73L138.81-45.73L138.81-45.73Q136.53-47.29 132.98-47.29L132.98-47.29ZM219.45-3.11L209.57 0.89L209.57 0.89Q209.35 0.78 208.57-0.17L208.57-0.17L208.57-0.17Q207.79-1.11 206.85-2.77L206.85-2.77L206.85-2.77Q205.90-4.44 205.02-6.94L205.02-6.94L205.02-6.94Q204.13-9.44 203.91-12.77L203.91-12.77L203.91-12.77Q202.02-6.11 197.86-2.72L197.86-2.72L197.86-2.72Q193.69 0.67 186.59 0.67L186.59 0.67L186.59 0.67Q181.37 0.67 177.54-1.28L177.54-1.28L177.54-1.28Q173.71-3.22 171.16-6.83L171.16-6.83L171.16-6.83Q168.61-10.43 167.39-15.54L167.39-15.54L167.39-15.54Q166.17-20.65 166.17-26.86L166.17-26.86L166.17-26.86Q166.17-33.19 168.11-38.57L168.11-38.57L168.11-38.57Q170.05-43.96 173.55-47.84L173.55-47.84L173.55-47.84Q177.04-51.73 181.93-53.95L181.93-53.95L181.93-53.95Q186.81-56.17 192.70-56.17L192.70-56.17L192.70-56.17Q194.69-56.17 196.97-55.94L196.97-55.94L196.97-55.94Q199.24-55.72 201.46-55.39L201.46-55.39L201.46-80.47L214.12-78.25L214.12-26.75L214.12-26.75Q214.12-20.09 214.90-15.71L214.90-15.71L214.90-15.71Q215.67-11.32 216.67-8.60L216.67-8.60L216.67-8.60Q217.67-5.88 218.50-4.66L218.50-4.66L218.50-4.66Q219.34-3.44 219.45-3.11L219.45-3.11ZM188.70-8.32L188.70-8.32Q191.47-8.32 193.81-10.21L193.81-10.21L193.81-10.21Q196.14-12.10 197.86-15.15L197.86-15.15L197.86-15.15Q199.58-18.20 200.52-22.09L200.52-22.09L200.52-22.09Q201.46-25.97 201.46-30.08L201.46-30.08L201.46-46.06L201.46-46.06Q200.35-46.40 198.13-46.84L198.13-46.84L198.13-46.84Q195.91-47.29 194.14-47.29L194.14-47.29L194.14-47.29Q189.92-47.29 187.20-45.84L187.20-45.84L187.20-45.84Q184.48-44.40 182.82-41.85L182.82-41.85L182.82-41.85Q181.15-39.29 180.49-35.74L180.49-35.74L180.49-35.74Q179.82-32.19 179.82-27.97L179.82-27.97L179.82-27.97Q179.82-24.09 180.04-20.54L180.04-20.54L180.04-20.54Q180.26-16.98 181.21-14.26L181.21-14.26L181.21-14.26Q182.15-11.54 183.93-9.93L183.93-9.93L183.93-9.93Q185.70-8.32 188.70-8.32L188.70-8.32ZM257.85 0L257.85-75.15L302.48-75.15L302.48-65.16L271.06-65.16L271.06-43.51L296.93-43.51L295.26-33.52L271.06-33.52L271.06 0L257.85 0ZM301.48-26.31L301.48-26.31Q301.48-33.74 303.53-39.41L303.53-39.41L303.53-39.41Q305.58-45.07 309.19-48.90L309.19-48.90L309.19-48.90Q312.80-52.73 317.68-54.67L317.68-54.67L317.68-54.67Q322.57-56.61 328.23-56.61L328.23-56.61L328.23-56.61Q333.22-56.61 336.72-55.39L336.72-55.39L336.72-55.39Q340.21-54.17 342.43-52.06L342.43-52.06L342.43-52.06Q344.65-49.95 345.71-47.06L345.71-47.06L345.71-47.06Q346.76-44.18 346.76-40.85L346.76-40.85L346.76-40.85Q346.76-36.85 344.54-33.24L344.54-33.24L344.54-33.24Q342.32-29.64 338.16-26.92L338.16-26.92L338.16-26.92Q334.00-24.20 328.12-22.59L328.12-22.59L328.12-22.59Q322.23-20.98 314.91-20.87L314.91-20.87L314.91-20.87Q315.24-18.32 315.96-16.04L315.96-16.04L315.96-16.04Q316.68-13.76 318.07-12.04L318.07-12.04L318.07-12.04Q319.46-10.32 321.68-9.32L321.68-9.32L321.68-9.32Q323.90-8.32 327.23-8.32L327.23-8.32L327.23-8.32Q329.67-8.32 332.44-8.88L332.44-8.88L332.44-8.88Q335.22-9.44 337.55-10.21L337.55-10.21L337.55-10.21Q340.33-11.10 342.99-12.21L342.99-12.21L346.32-4.33L346.32-4.33Q343.43-2.89 340.10-1.78L340.10-1.78L340.10-1.78Q337.22-0.78 333.44 0L333.44 0L333.44 0Q329.67 0.78 325.45 0.78L325.45 0.78L325.45 0.78Q319.01 0.78 314.46-1.17L314.46-1.17L314.46-1.17Q309.91-3.11 307.03-6.66L307.03-6.66L307.03-6.66Q304.14-10.21 302.81-15.21L302.81-15.21L302.81-15.21Q301.48-20.20 301.48-26.31L301.48-26.31ZM327.23-47.95L327.23-47.95Q323.56-47.95 321.18-46.23L321.18-46.23L321.18-46.23Q318.79-44.51 317.35-41.79L317.35-41.79L317.35-41.79Q315.91-39.07 315.30-35.69L315.30-35.69L315.30-35.69Q314.68-32.30 314.57-28.86L314.57-28.86L314.57-28.86Q319.90-29.08 323.62-30.25L323.62-30.25L323.62-30.25Q327.34-31.41 329.67-33.13L329.67-33.13L329.67-33.13Q332.00-34.85 333.06-36.85L333.06-36.85L333.06-36.85Q334.11-38.85 334.11-40.85L334.11-40.85L334.11-40.85Q334.11-44.07 332.22-46.01L332.22-46.01L332.22-46.01Q330.34-47.95 327.23-47.95L327.23-47.95ZM373.63-56.61L373.63-56.61L373.63-56.61Q376.84-56.61 379.95-55.94L379.95-55.94L379.95-55.94Q383.06-55.28 385.50-54.39L385.50-54.39L385.50-54.39Q388.39-53.39 390.83-52.28L390.83-52.28L387.06-43.62L387.06-43.62Q384.84-44.62 382.62-45.40L382.62-45.40L382.62-45.40Q380.73-46.06 378.45-46.68L378.45-46.68L378.45-46.68Q376.18-47.29 373.96-47.29L373.96-47.29L373.96-47.29Q371.41-47.29 369.57-46.06L369.57-46.06L369.57-46.06Q367.74-44.84 367.74-42.40L367.74-42.40L367.74-42.40Q367.74-36.08 376.96-32.52L376.96-32.52L376.96-32.52Q380.40-31.19 383.17-29.69L383.17-29.69L383.17-29.69Q385.95-28.19 387.89-26.20L387.89-26.20L387.89-26.20Q389.83-24.20 390.83-21.59L390.83-21.59L390.83-21.59Q391.83-18.98 391.83-15.43L391.83-15.43L391.83-15.43Q391.83-12.32 390.55-9.32L390.55-9.32L390.55-9.32Q389.28-6.33 386.78-4.00L386.78-4.00L386.78-4.00Q384.28-1.67 380.67-0.28L380.67-0.28L380.67-0.28Q377.07 1.11 372.52 1.11L372.52 1.11L372.52 1.11Q368.85 1.11 365.30 0.28L365.30 0.28L365.30 0.28Q361.75-0.56 358.92-1.55L358.92-1.55L358.92-1.55Q356.09-2.55 354.42-3.44L354.42-3.44L352.76-4.22L356.86-13.54L358.31-12.77L358.31-12.77Q359.75-11.88 361.97-10.88L361.97-10.88L361.97-10.88Q364.19-9.88 366.74-9.05L366.74-9.05L366.74-9.05Q369.30-8.21 371.41-8.21L371.41-8.21L371.41-8.21Q375.29-8.21 377.18-9.77L377.18-9.77L377.18-9.77Q379.06-11.32 379.06-13.88L379.06-13.88L379.06-13.88Q379.06-16.76 377.01-19.15L377.01-19.15L377.01-19.15Q374.96-21.53 370.85-23.09L370.85-23.09L370.85-23.09Q362.30-26.31 358.59-30.41L358.59-30.41L358.59-30.41Q354.87-34.52 354.87-41.07L354.87-41.07L354.87-41.07Q354.87-44.18 356.31-47.01L356.31-47.01L356.31-47.01Q357.75-49.84 360.25-52.00L360.25-52.00L360.25-52.00Q362.75-54.17 366.19-55.39L366.19-55.39L366.19-55.39Q369.63-56.61 373.63-56.61ZM396.94-46.29L396.94-55.28L406.93-55.28L409.15-68.27L419.58-70.60L419.58-55.28L433.23-55.28L431.68-46.29L419.58-46.29L419.58-13.43L419.58-13.43Q419.58-10.54 421.13-9.71L421.13-9.71L421.13-9.71Q422.69-8.88 424.57-8.88L424.57-8.88L424.57-8.88Q426.13-8.88 427.68-9.10L427.68-9.10L427.68-9.10Q429.24-9.32 430.46-9.66L430.46-9.66L430.46-9.66Q431.90-9.99 433.23-10.43L433.23-10.43L435.34-2.11L434.34-1.78L434.34-1.78Q433.34-1.33 431.40-0.83L431.40-0.83L431.40-0.83Q429.46-0.33 426.85 0.06L426.85 0.06L426.85 0.06Q424.24 0.44 421.13 0.44L421.13 0.44L421.13 0.44Q418.03 0.44 415.42-0.22L415.42-0.22L415.42-0.22Q412.81-0.89 410.92-2.39L410.92-2.39L410.92-2.39Q409.03-3.89 407.98-6.22L407.98-6.22L407.98-6.22Q406.93-8.55 406.93-11.99L406.93-11.99L406.93-46.29L396.94-46.29ZM454.77 0.44L454.77 0.44Q448.88 0.44 445.78-3.05L445.78-3.05L445.78-3.05Q442.67-6.55 442.67-12.10L442.67-12.10L442.67-55.28L455.32-55.28L455.32-13.21L455.32-13.21Q455.32-10.66 456.10-9.77L456.10-9.77L456.10-9.77Q456.88-8.88 458.43-8.88L458.43-8.88L458.43-8.88Q458.87-8.88 459.37-8.88L459.37-8.88L459.37-8.88Q459.87-8.88 460.32-8.99L460.32-8.99L460.32-8.99Q460.76-8.99 461.32-9.10L461.32-9.10L462.65-1.11L462.65-1.11Q461.87-0.67 460.65-0.33L460.65-0.33L460.65-0.33Q459.65 0 458.15 0.22L458.15 0.22L458.15 0.22Q456.65 0.44 454.77 0.44L454.77 0.44ZM449.22-79.92L449.22-79.92Q452.77-79.92 454.66-77.81L454.66-77.81L454.66-77.81Q456.54-75.70 456.54-72.37L456.54-72.37L456.54-72.37Q456.54-69.04 454.60-66.82L454.60-66.82L454.60-66.82Q452.66-64.60 448.88-64.60L448.88-64.60L448.88-64.60Q445.33-64.60 443.39-66.77L443.39-66.77L443.39-66.77Q441.45-68.93 441.45-72.04L441.45-72.04L441.45-72.04Q441.45-75.48 443.39-77.70L443.39-77.70L443.39-77.70Q445.33-79.92 449.22-79.92L449.22-79.92ZM503.50-55.28L516.37-55.28L516.59-54.39L516.59-54.39Q516.70-53.39 516.93-51.78L516.93-51.78L516.93-51.78Q517.15-50.17 517.32-48.12L517.32-48.12L517.32-48.12Q517.48-46.06 517.48-43.96L517.48-43.96L517.48-43.96Q517.48-31.64 515.65-23.14L515.65-23.14L515.65-23.14Q513.82-14.65 510.10-9.38L510.10-9.38L510.10-9.38Q506.38-4.11 500.67-1.78L500.67-1.78L500.67-1.78Q494.95 0.56 487.18 0.56L487.18 0.56L487.18 0.56Q478.41 0.56 474.69-4.50L474.69-4.50L474.69-4.50Q470.97-9.55 470.97-18.43L470.97-18.43L470.97-55.28L483.63-55.28L483.63-18.76L483.63-18.76Q483.63-14.10 485.29-11.21L485.29-11.21L485.29-11.21Q486.96-8.32 490.95-8.32L490.95-8.32L490.95-8.32Q494.95-8.32 497.61-11.32L497.61-11.32L497.61-11.32Q500.28-14.32 501.83-19.15L501.83-19.15L501.83-19.15Q503.38-23.98 504.05-30.14L504.05-30.14L504.05-30.14Q504.72-36.30 504.72-42.62L504.72-42.62L504.72-42.62Q504.72-44.95 504.55-47.23L504.55-47.23L504.55-47.23Q504.38-49.51 504.11-51.28L504.11-51.28L504.11-51.28Q503.83-53.06 503.72-54.17L503.72-54.17L503.50-55.28ZM574.31-52.95L574.31-26.75L574.31-26.75Q574.31-20.09 575.15-15.60L575.15-15.60L575.15-15.60Q575.98-11.10 576.98-8.32L576.98-8.32L576.98-8.32Q578.20-5.00 579.64-3.11L579.64-3.11L569.76 0.89L569.76 0.89Q568.32-0.56 567.10-2.55L567.10-2.55L567.10-2.55Q566.10-4.33 565.21-6.83L565.21-6.83L565.21-6.83Q564.32-9.32 564.10-12.77L564.10-12.77L564.10-12.77Q562.21-6.11 558.05-2.72L558.05-2.72L558.05-2.72Q553.89 0.67 546.79 0.67L546.79 0.67L546.79 0.67Q541.57 0.67 537.74-1.28L537.74-1.28L537.74-1.28Q533.91-3.22 531.36-6.83L531.36-6.83L531.36-6.83Q528.80-10.43 527.58-15.54L527.58-15.54L527.58-15.54Q526.36-20.65 526.36-26.86L526.36-26.86L526.36-26.86Q526.36-33.19 528.30-38.57L528.30-38.57L528.30-38.57Q530.25-43.96 533.74-47.84L533.74-47.84L533.74-47.84Q537.24-51.73 542.12-53.95L542.12-53.95L542.12-53.95Q547.01-56.17 552.89-56.17L552.89-56.17L552.89-56.17Q556.22-56.17 559.83-55.67L559.83-55.67L559.83-55.67Q563.44-55.17 566.54-54.61L566.54-54.61L566.54-54.61Q569.65-54.06 571.82-53.56L571.82-53.56L571.82-53.56Q573.98-53.06 574.31-52.95L574.31-52.95ZM548.89-8.21L548.89-8.21Q551.67-8.21 554.00-10.10L554.00-10.10L554.00-10.10Q556.33-11.99 558.05-15.04L558.05-15.04L558.05-15.04Q559.77-18.09 560.72-22.03L560.72-22.03L560.72-22.03Q561.66-25.97 561.66-30.08L561.66-30.08L561.66-46.06L561.66-46.06Q560.55-46.40 558.33-46.84L558.33-46.84L558.33-46.84Q556.11-47.29 554.33-47.29L554.33-47.29L554.33-47.29Q550.12-47.29 547.40-45.84L547.40-45.84L547.40-45.84Q544.68-44.40 543.01-41.85L543.01-41.85L543.01-41.85Q541.35-39.29 540.68-35.74L540.68-35.74L540.68-35.74Q540.01-32.19 540.01-27.97L540.01-27.97L540.01-27.97Q540.01-24.09 540.24-20.54L540.24-20.54L540.24-20.54Q540.46-16.98 541.40-14.21L541.40-14.21L541.40-14.21Q542.35-11.43 544.12-9.82L544.12-9.82L544.12-9.82Q545.90-8.21 548.89-8.21L548.89-8.21ZM600.95 0.44L600.95 0.44Q594.63 0.44 591.63-3.05L591.63-3.05L591.63-3.05Q588.63-6.55 588.63-11.99L588.63-11.99L588.63-78.25L601.29-80.59L601.29-13.21L601.29-13.21Q601.29-10.66 602.29-9.66L602.29-9.66L602.29-9.66Q603.28-8.66 605.17-8.66L605.17-8.66L605.17-8.66Q606.28-8.66 607.34-8.77L607.34-8.77L607.34-8.77Q608.39-8.88 609.28-9.10L609.28-9.10L609.28-9.10Q610.28-9.32 611.05-9.55L611.05-9.55L612.61-1.55L612.61-1.55Q611.17-1.00 609.39-0.56L609.39-0.56L609.39-0.56Q607.84-0.11 605.73 0.17L605.73 0.17L605.73 0.17Q603.62 0.44 600.95 0.44L600.95 0.44Z" fill="#c887ff"></path></g></g><style>text {
  font-size: 64px;
  font-family: Arial Black;
  dominant-baseline: central;
  text-anchor: middle;
}</style></svg>