<svg id="visual" viewBox="0 0 900 600" width="900" height="600" xmlns="http://www.w3.org/2000/svg" xmlns:xlink="http://www.w3.org/1999/xlink" version="1.1"><rect x="0" y="0" width="900" height="600" fill="#001220"></rect><path d="M0 431L21.5 430.2C43 429.3 86 427.7 128.8 421.2C171.7 414.7 214.3 403.3 257.2 404.7C300 406 343 420 385.8 421C428.7 422 471.3 410 514.2 402.7C557 395.3 600 392.7 642.8 387.7C685.7 382.7 728.3 375.3 771.2 377.8C814 380.3 857 392.7 878.5 398.8L900 405L900 601L878.5 601C857 601 814 601 771.2 601C728.3 601 685.7 601 642.8 601C600 601 557 601 514.2 601C471.3 601 428.7 601 385.8 601C343 601 300 601 257.2 601C214.3 601 171.7 601 128.8 601C86 601 43 601 21.5 601L0 601Z" fill="#715df2"></path><path d="M0 458L21.5 457.8C43 457.7 86 457.3 128.8 457C171.7 456.7 214.3 456.3 257.2 450.3C300 444.3 343 432.7 385.8 432.5C428.7 432.3 471.3 443.7 514.2 442.5C557 441.3 600 427.7 642.8 430C685.7 432.3 728.3 450.7 771.2 451.2C814 451.7 857 434.3 878.5 425.7L900 417L900 601L878.5 601C857 601 814 601 771.2 601C728.3 601 685.7 601 642.8 601C600 601 557 601 514.2 601C471.3 601 428.7 601 385.8 601C343 601 300 601 257.2 601C214.3 601 171.7 601 128.8 601C86 601 43 601 21.5 601L0 601Z" fill="#6c50f6"></path><path d="M0 485L21.5 478.8C43 472.7 86 460.3 128.8 457.7C171.7 455 214.3 462 257.2 466C300 470 343 471 385.8 476.2C428.7 481.3 471.3 490.7 514.2 496C557 501.3 600 502.7 642.8 503C685.7 503.3 728.3 502.7 771.2 494.2C814 485.7 857 469.3 878.5 461.2L900 453L900 601L878.5 601C857 601 814 601 771.2 601C728.3 601 685.7 601 642.8 601C600 601 557 601 514.2 601C471.3 601 428.7 601 385.8 601C343 601 300 601 257.2 601C214.3 601 171.7 601 128.8 601C86 601 43 601 21.5 601L0 601Z" fill="#6940fa"></path><path d="M0 537L21.5 534C43 531 86 525 128.8 525.3C171.7 525.7 214.3 532.3 257.2 533.5C300 534.7 343 530.3 385.8 522.8C428.7 515.3 471.3 504.7 514.2 506.5C557 508.3 600 522.7 642.8 526.5C685.7 530.3 728.3 523.7 771.2 517.3C814 511 857 505 878.5 502L900 499L900 601L878.5 601C857 601 814 601 771.2 601C728.3 601 685.7 601 642.8 601C600 601 557 601 514.2 601C471.3 601 428.7 601 385.8 601C343 601 300 601 257.2 601C214.3 601 171.7 601 128.8 601C86 601 43 601 21.5 601L0 601Z" fill="#672bfd"></path><path d="M0 526L21.5 530.3C43 534.7 86 543.3 128.8 548.8C171.7 554.3 214.3 556.7 257.2 556.5C300 556.3 343 553.7 385.8 552.8C428.7 552 471.3 553 514.2 555.8C557 558.7 600 563.3 642.8 564.5C685.7 565.7 728.3 563.3 771.2 559C814 554.7 857 548.3 878.5 545.2L900 542L900 601L878.5 601C857 601 814 601 771.2 601C728.3 601 685.7 601 642.8 601C600 601 557 601 514.2 601C471.3 601 428.7 601 385.8 601C343 601 300 601 257.2 601C214.3 601 171.7 601 128.8 601C86 601 43 601 21.5 601L0 601Z" fill="#6600ff"></path></svg>