<svg width="1014.3801025390625px" height="202.4px" xmlns="http://www.w3.org/2000/svg" viewBox="-257.19005126953124 -26.200000000000003 1014.3801025390625 202.4" style="background: rgb(21, 21, 21);" preserveAspectRatio="xMidYMid"><defs><filter id="editing-hover" x="-100%" y="-100%" width="300%" height="300%"><feFlood flood-color="#000000" result="flood"></feFlood><feComposite operator="in" in2="SourceAlpha" in="flood" result="shadow"></feComposite><feOffset dx="-4" dy="-4" in="SourceGraphic" result="offset-1"></feOffset><feOffset dx="4" dy="4" in="shadow" result="offset-2"></feOffset><feMerge><feMergeNode in="offset-2"></feMergeNode><feMergeNode in="offset-1"></feMergeNode></feMerge></filter></defs><g filter="url(#editing-hover)"><g transform="translate(-115.24497032165527, 127.33999967575073)"><path d="M29.41-76.15L29.41-76.15L29.41-76.15Q33.30-76.15 36.85-75.42L36.85-75.42L36.85-75.42Q40.40-74.70 43.35-73.76L43.35-73.76L43.35-73.76Q46.29-72.82 48.34-71.82L48.34-71.82L48.34-71.82Q50.39-70.82 51.17-70.26L51.17-70.26L45.73-60.72L44.29-61.49L44.29-61.49Q42.85-62.27 40.52-63.27L40.52-63.27L40.52-63.27Q38.18-64.27 35.41-65.05L35.41-65.05L35.41-65.05Q32.63-65.82 30.08-65.82L30.08-65.82L30.08-65.82Q26.09-65.82 23.14-63.94L23.14-63.94L23.14-63.94Q20.20-62.05 20.20-58.05L20.20-58.05L20.20-58.05Q20.20-53.06 23.42-49.89L23.42-49.89L23.42-49.89Q26.64-46.73 33.52-44.07L33.52-44.07L33.52-44.07Q37.96-42.29 41.46-40.35L41.46-40.35L41.46-40.35Q44.95-38.41 47.40-35.85L47.40-35.85L47.40-35.85Q49.84-33.30 51.12-29.97L51.12-29.97L51.12-29.97Q52.39-26.64 52.39-21.98L52.39-21.98L52.39-21.98Q52.39-17.76 50.78-13.65L50.78-13.65L50.78-13.65Q49.17-9.55 46.01-6.38L46.01-6.38L46.01-6.38Q42.85-3.22 38.18-1.28L38.18-1.28L38.18-1.28Q33.52 0.67 27.42 0.67L27.42 0.67L27.42 0.67Q23.09 0.67 19.20-0.22L19.20-0.22L19.20-0.22Q15.32-1.11 12.15-2.28L12.15-2.28L12.15-2.28Q8.99-3.44 6.72-4.66L6.72-4.66L6.72-4.66Q4.44-5.88 3.33-6.55L3.33-6.55L7.99-16.76L9.99-15.65L9.99-15.65Q11.99-14.54 14.87-13.21L14.87-13.21L14.87-13.21Q17.76-11.88 20.98-10.77L20.98-10.77L20.98-10.77Q24.20-9.66 26.53-9.66L26.53-9.66L26.53-9.66Q32.41-9.66 35.30-12.54L35.30-12.54L35.30-12.54Q38.18-15.43 38.18-20.65L38.18-20.65L38.18-20.65Q38.18-23.09 37.41-24.92L37.41-24.92L37.41-24.92Q36.63-26.75 35.19-28.08L35.19-28.08L35.19-28.08Q33.74-29.41 31.69-30.47L31.69-30.47L31.69-30.47Q29.64-31.52 27.08-32.52L27.08-32.52L27.08-32.52Q22.09-34.63 18.15-36.74L18.15-36.74L18.15-36.74Q14.21-38.85 11.43-41.57L11.43-41.57L11.43-41.57Q8.66-44.29 7.21-47.79L7.21-47.79L7.21-47.79Q5.77-51.28 5.77-56.17L5.77-56.17L5.77-56.17Q5.77-60.27 7.55-63.88L7.55-63.88L7.55-63.88Q9.32-67.49 12.43-70.21L12.43-70.21L12.43-70.21Q15.54-72.93 19.87-74.54L19.87-74.54L19.87-74.54Q24.20-76.15 29.41-76.15ZM95.24-28.19L95.24-55.28L107.89-55.28L107.89-26.75L107.89-26.75Q107.89-20.09 108.72-15.60L108.72-15.60L108.72-15.60Q109.56-11.10 110.56-8.32L110.56-8.32L110.56-8.32Q111.78-5.00 113.22-3.11L113.22-3.11L103.34 0.89L103.34 0.89Q102.01-0.33 100.90-2.22L100.90-2.22L100.90-2.22Q100.01-3.77 99.07-6.05L99.07-6.05L99.07-6.05Q98.12-8.32 97.79-11.43L97.79-11.43L97.79-11.43Q94.79-4.88 89.36-2.11L89.36-2.11L89.36-2.11Q83.92 0.67 78.03 0.67L78.03 0.67L78.03 0.67Q69.26 0.67 65.55-4.44L65.55-4.44L65.55-4.44Q61.83-9.55 61.83-18.43L61.83-18.43L61.83-55.28L74.48-55.28L74.48-18.65L74.48-18.65Q74.48-13.99 76.15-11.32L76.15-11.32L76.15-11.32Q77.81-8.66 81.81-8.66L81.81-8.66L81.81-8.66Q84.25-8.66 86.64-10.05L86.64-10.05L86.64-10.05Q89.02-11.43 90.96-13.99L90.96-13.99L90.96-13.99Q92.91-16.54 94.07-20.15L94.07-20.15L94.07-20.15Q95.24-23.75 95.24-28.19L95.24-28.19ZM148.07-43.73L148.07-43.73Q146.08-43.73 144.08-42.73L144.08-42.73L144.08-42.73Q142.08-41.74 140.53-40.02L140.53-40.02L140.53-40.02Q138.97-38.30 137.97-35.85L137.97-35.85L137.97-35.85Q136.97-33.41 136.97-30.41L136.97-30.41L136.97 0L124.32 0L124.32-27.97L124.32-27.97Q124.32-34.63 123.43-39.13L123.43-39.13L123.43-39.13Q122.54-43.62 121.54-46.40L121.54-46.40L121.54-46.40Q120.32-49.62 118.88-51.62L118.88-51.62L128.87-55.61L128.87-55.61Q129.87-54.39 130.98-52.61L130.98-52.61L130.98-52.61Q131.87-51.06 132.76-48.95L132.76-48.95L132.76-48.95Q133.64-46.84 134.20-43.96L134.20-43.96L134.20-43.96Q136.42-50.39 140.64-53.22L140.64-53.22L140.64-53.22Q144.85-56.05 150.18-56.05L150.18-56.05L150.18-56.05Q152.74-56.05 154.96-55.44L154.96-55.44L154.96-55.44Q157.18-54.83 157.06-54.83L157.06-54.83L153.51-42.51L153.51-42.51Q153.62-42.51 152.24-43.12L152.24-43.12L152.24-43.12Q150.85-43.73 148.07-43.73L148.07-43.73ZM196.25-55.28L209.12-55.28L209.35-54.39L209.35-54.39Q209.46-53.39 209.68-51.78L209.68-51.78L209.68-51.78Q209.90-50.17 210.07-48.12L210.07-48.12L210.07-48.12Q210.23-46.06 210.23-43.96L210.23-43.96L210.23-43.96Q210.23-31.64 208.40-23.14L208.40-23.14L208.40-23.14Q206.57-14.65 202.85-9.38L202.85-9.38L202.85-9.38Q199.13-4.11 193.42-1.78L193.42-1.78L193.42-1.78Q187.70 0.56 179.93 0.56L179.93 0.56L179.93 0.56Q171.16 0.56 167.44-4.50L167.44-4.50L167.44-4.50Q163.72-9.55 163.72-18.43L163.72-18.43L163.72-55.28L176.38-55.28L176.38-18.76L176.38-18.76Q176.38-14.10 178.04-11.21L178.04-11.21L178.04-11.21Q179.71-8.32 183.70-8.32L183.70-8.32L183.70-8.32Q187.70-8.32 190.37-11.32L190.37-11.32L190.37-11.32Q193.03-14.32 194.58-19.15L194.58-19.15L194.58-19.15Q196.14-23.98 196.80-30.14L196.80-30.14L196.80-30.14Q197.47-36.30 197.47-42.62L197.47-42.62L197.47-42.62Q197.47-44.95 197.30-47.23L197.30-47.23L197.30-47.23Q197.14-49.51 196.86-51.28L196.86-51.28L196.86-51.28Q196.58-53.06 196.47-54.17L196.47-54.17L196.25-55.28ZM234.10 0.44L234.10 0.44Q228.22 0.44 225.11-3.05L225.11-3.05L225.11-3.05Q222.00-6.55 222.00-12.10L222.00-12.10L222.00-55.28L234.65-55.28L234.65-13.21L234.65-13.21Q234.65-10.66 235.43-9.77L235.43-9.77L235.43-9.77Q236.21-8.88 237.76-8.88L237.76-8.88L237.76-8.88Q238.21-8.88 238.71-8.88L238.71-8.88L238.71-8.88Q239.20-8.88 239.65-8.99L239.65-8.99L239.65-8.99Q240.09-8.99 240.65-9.10L240.65-9.10L241.98-1.11L241.98-1.11Q241.20-0.67 239.98-0.33L239.98-0.33L239.98-0.33Q238.98 0 237.48 0.22L237.48 0.22L237.48 0.22Q235.99 0.44 234.10 0.44L234.10 0.44ZM228.55-79.92L228.55-79.92Q232.10-79.92 233.99-77.81L233.99-77.81L233.99-77.81Q235.88-75.70 235.88-72.37L235.88-72.37L235.88-72.37Q235.88-69.04 233.93-66.82L233.93-66.82L233.93-66.82Q231.99-64.60 228.22-64.60L228.22-64.60L228.22-64.60Q224.66-64.60 222.72-66.77L222.72-66.77L222.72-66.77Q220.78-68.93 220.78-72.04L220.78-72.04L220.78-72.04Q220.78-75.48 222.72-77.70L222.72-77.70L222.72-77.70Q224.66-79.92 228.55-79.92L228.55-79.92ZM282.83-55.28L295.70-55.28L295.93-54.39L295.93-54.39Q296.04-53.39 296.26-51.78L296.26-51.78L296.26-51.78Q296.48-50.17 296.65-48.12L296.65-48.12L296.65-48.12Q296.81-46.06 296.81-43.96L296.81-43.96L296.81-43.96Q296.81-31.64 294.98-23.14L294.98-23.14L294.98-23.14Q293.15-14.65 289.43-9.38L289.43-9.38L289.43-9.38Q285.71-4.11 280.00-1.78L280.00-1.78L280.00-1.78Q274.28 0.56 266.51 0.56L266.51 0.56L266.51 0.56Q257.74 0.56 254.02-4.50L254.02-4.50L254.02-4.50Q250.30-9.55 250.30-18.43L250.30-18.43L250.30-55.28L262.96-55.28L262.96-18.76L262.96-18.76Q262.96-14.10 264.62-11.21L264.62-11.21L264.62-11.21Q266.29-8.32 270.28-8.32L270.28-8.32L270.28-8.32Q274.28-8.32 276.94-11.32L276.94-11.32L276.94-11.32Q279.61-14.32 281.16-19.15L281.16-19.15L281.16-19.15Q282.72-23.98 283.38-30.14L283.38-30.14L283.38-30.14Q284.05-36.30 284.05-42.62L284.05-42.62L284.05-42.62Q284.05-44.95 283.88-47.23L283.88-47.23L283.88-47.23Q283.72-49.51 283.44-51.28L283.44-51.28L283.44-51.28Q283.16-53.06 283.05-54.17L283.05-54.17L282.83-55.28ZM320.68 0.44L320.68 0.44Q314.80 0.44 311.69-3.05L311.69-3.05L311.69-3.05Q308.58-6.55 308.58-12.10L308.58-12.10L308.58-55.28L321.23-55.28L321.23-13.21L321.23-13.21Q321.23-10.66 322.01-9.77L322.01-9.77L322.01-9.77Q322.79-8.88 324.34-8.88L324.34-8.88L324.34-8.88Q324.79-8.88 325.29-8.88L325.29-8.88L325.29-8.88Q325.78-8.88 326.23-8.99L326.23-8.99L326.23-8.99Q326.67-8.99 327.23-9.10L327.23-9.10L328.56-1.11L328.56-1.11Q327.78-0.67 326.56-0.33L326.56-0.33L326.56-0.33Q325.56 0 324.06 0.22L324.06 0.22L324.06 0.22Q322.57 0.44 320.68 0.44L320.68 0.44ZM315.13-79.92L315.13-79.92Q318.68-79.92 320.57-77.81L320.57-77.81L320.57-77.81Q322.45-75.70 322.45-72.37L322.45-72.37L322.45-72.37Q322.45-69.04 320.51-66.82L320.51-66.82L320.51-66.82Q318.57-64.60 314.80-64.60L314.80-64.60L314.80-64.60Q311.24-64.60 309.30-66.77L309.30-66.77L309.30-66.77Q307.36-68.93 307.36-72.04L307.36-72.04L307.36-72.04Q307.36-75.48 309.30-77.70L309.30-77.70L309.30-77.70Q311.24-79.92 315.13-79.92L315.13-79.92ZM384.39 0L371.85 0L371.85-35.85L371.85-35.85Q371.85-40.52 370.18-43.35L370.18-43.35L370.18-43.35Q368.52-46.18 364.52-46.18L364.52-46.18L364.52-46.18Q361.97-46.18 359.58-44.90L359.58-44.90L359.58-44.90Q357.20-43.62 355.31-41.18L355.31-41.18L355.31-41.18Q353.42-38.74 352.26-35.24L352.26-35.24L352.26-35.24Q351.09-31.75 351.09-27.42L351.09-27.42L351.09 0L338.44 0L338.44-27.97L338.44-27.97Q338.44-34.63 337.55-39.13L337.55-39.13L337.55-39.13Q336.66-43.62 335.66-46.40L335.66-46.40L335.66-46.40Q334.44-49.62 333.00-51.62L333.00-51.62L342.99-55.61L342.99-55.61Q344.10-54.39 345.21-52.61L345.21-52.61L345.21-52.61Q346.10-51.06 346.99-48.78L346.99-48.78L346.99-48.78Q347.87-46.51 348.43-43.62L348.43-43.62L348.43-43.62Q351.31-50.28 356.75-53.22L356.75-53.22L356.75-53.22Q362.19-56.17 368.19-56.17L368.19-56.17L368.19-56.17Q376.73-56.17 380.56-51.00L380.56-51.00L380.56-51.00Q384.39-45.84 384.39-37.07L384.39-37.07L384.39 0ZM403.60 19.43L406.70 9.77L406.70 9.77Q408.37 10.43 410.26 11.16L410.26 11.16L410.26 11.16Q412.14 11.88 414.25 12.54L414.25 12.54L414.25 12.54Q416.36 13.21 418.53 13.65L418.53 13.65L418.53 13.65Q420.69 14.10 422.80 14.10L422.80 14.10L422.80 14.10Q429.01 14.10 431.79 10.38L431.79 10.38L431.79 10.38Q434.56 6.66 434.56 0.78L434.56 0.78L434.56 0.78Q434.56-5.00 432.12-10.88L432.12-10.88L432.12-10.88Q430.24-5.22 426.18-2.28L426.18-2.28L426.18-2.28Q422.13 0.67 415.47 0.67L415.47 0.67L415.47 0.67Q410.26 0.67 406.43-1.28L406.43-1.28L406.43-1.28Q402.60-3.22 400.04-6.83L400.04-6.83L400.04-6.83Q397.49-10.43 396.27-15.54L396.27-15.54L396.27-15.54Q395.05-20.65 395.05-26.86L395.05-26.86L395.05-26.86Q395.05-33.19 396.99-38.57L396.99-38.57L396.99-38.57Q398.93-43.96 402.43-47.84L402.43-47.84L402.43-47.84Q405.93-51.73 410.81-53.95L410.81-53.95L410.81-53.95Q415.69-56.17 421.58-56.17L421.58-56.17L421.58-56.17Q424.24-56.17 427.29-55.83L427.29-55.83L427.29-55.83Q430.35-55.50 433.29-55.00L433.29-55.00L433.29-55.00Q436.23-54.50 438.84-53.95L438.84-53.95L438.84-53.95Q441.45-53.39 443.33-52.95L443.33-52.95L442.78-22.42L442.78-22.42Q442.67-19.09 443.17-16.32L443.17-16.32L443.17-16.32Q443.67-13.54 444.33-10.82L444.33-10.82L444.33-10.82Q445.00-8.10 445.55-5.33L445.55-5.33L445.55-5.33Q446.11-2.55 446.11 0.78L446.11 0.78L446.11 0.78Q446.11 12.54 440.12 18.32L440.12 18.32L440.12 18.32Q434.12 24.09 423.91 24.09L423.91 24.09L423.91 24.09Q420.58 24.09 417.25 23.48L417.25 23.48L417.25 23.48Q413.92 22.87 411.09 22.09L411.09 22.09L411.09 22.09Q408.26 21.31 406.26 20.54L406.26 20.54L406.26 20.54Q404.26 19.76 403.60 19.43L403.60 19.43ZM417.58-8.21L417.58-8.21Q420.25-8.21 422.52-9.99L422.52-9.99L422.52-9.99Q424.80-11.77 426.57-14.71L426.57-14.71L426.57-14.71Q428.35-17.65 429.35-21.42L429.35-21.42L429.35-21.42Q430.35-25.20 430.35-29.19L430.35-29.19L430.35-46.06L430.35-46.06Q429.24-46.40 427.02-46.84L427.02-46.84L427.02-46.84Q424.80-47.29 423.02-47.29L423.02-47.29L423.02-47.29Q418.80-47.29 416.08-45.84L416.08-45.84L416.08-45.84Q413.36-44.40 411.70-41.85L411.70-41.85L411.70-41.85Q410.03-39.29 409.37-35.74L409.37-35.74L409.37-35.74Q408.70-32.19 408.70-27.97L408.70-27.97L408.70-27.97Q408.70-24.09 408.92-20.54L408.92-20.54L408.92-20.54Q409.15-16.98 410.09-14.21L410.09-14.21L410.09-14.21Q411.03-11.43 412.81-9.82L412.81-9.82L412.81-9.82Q414.58-8.21 417.58-8.21L417.58-8.21ZM507.83-76.15L507.83-76.15L507.83-76.15Q511.71-76.15 515.26-75.42L515.26-75.42L515.26-75.42Q518.81-74.70 521.76-73.76L521.76-73.76L521.76-73.76Q524.70-72.82 526.75-71.82L526.75-71.82L526.75-71.82Q528.80-70.82 529.58-70.26L529.58-70.26L524.14-60.72L522.70-61.49L522.70-61.49Q521.26-62.27 518.93-63.27L518.93-63.27L518.93-63.27Q516.59-64.27 513.82-65.05L513.82-65.05L513.82-65.05Q511.04-65.82 508.49-65.82L508.49-65.82L508.49-65.82Q504.50-65.82 501.55-63.94L501.55-63.94L501.55-63.94Q498.61-62.05 498.61-58.05L498.61-58.05L498.61-58.05Q498.61-53.06 501.83-49.89L501.83-49.89L501.83-49.89Q505.05-46.73 511.93-44.07L511.93-44.07L511.93-44.07Q516.37-42.29 519.87-40.35L519.87-40.35L519.87-40.35Q523.37-38.41 525.81-35.85L525.81-35.85L525.81-35.85Q528.25-33.30 529.53-29.97L529.53-29.97L529.53-29.97Q530.80-26.64 530.80-21.98L530.80-21.98L530.80-21.98Q530.80-17.76 529.19-13.65L529.19-13.65L529.19-13.65Q527.58-9.55 524.42-6.38L524.42-6.38L524.42-6.38Q521.26-3.22 516.59-1.28L516.59-1.28L516.59-1.28Q511.93 0.67 505.83 0.67L505.83 0.67L505.83 0.67Q501.50 0.67 497.61-0.22L497.61-0.22L497.61-0.22Q493.73-1.11 490.56-2.28L490.56-2.28L490.56-2.28Q487.40-3.44 485.13-4.66L485.13-4.66L485.13-4.66Q482.85-5.88 481.74-6.55L481.74-6.55L486.40-16.76L488.40-15.65L488.40-15.65Q490.40-14.54 493.28-13.21L493.28-13.21L493.28-13.21Q496.17-11.88 499.39-10.77L499.39-10.77L499.39-10.77Q502.61-9.66 504.94-9.66L504.94-9.66L504.94-9.66Q510.82-9.66 513.71-12.54L513.71-12.54L513.71-12.54Q516.59-15.43 516.59-20.65L516.59-20.65L516.59-20.65Q516.59-23.09 515.82-24.92L515.82-24.92L515.82-24.92Q515.04-26.75 513.60-28.08L513.60-28.08L513.60-28.08Q512.15-29.41 510.10-30.47L510.10-30.47L510.10-30.47Q508.05-31.52 505.49-32.52L505.49-32.52L505.49-32.52Q500.50-34.63 496.56-36.74L496.56-36.74L496.56-36.74Q492.62-38.85 489.84-41.57L489.84-41.57L489.84-41.57Q487.07-44.29 485.63-47.79L485.63-47.79L485.63-47.79Q484.18-51.28 484.18-56.17L484.18-56.17L484.18-56.17Q484.18-60.27 485.96-63.88L485.96-63.88L485.96-63.88Q487.73-67.49 490.84-70.21L490.84-70.21L490.84-70.21Q493.95-72.93 498.28-74.54L498.28-74.54L498.28-74.54Q502.61-76.15 507.83-76.15ZM541.90-78.25L554.56-80.47L554.56-48.84L554.56-48.84Q555.44-49.95 556.83-51.23L556.83-51.23L556.83-51.23Q558.22-52.50 560.33-53.61L560.33-53.61L560.33-53.61Q562.44-54.72 565.21-55.50L565.21-55.50L565.21-55.50Q567.99-56.28 571.65-56.28L571.65-56.28L571.65-56.28Q575.09-56.28 578.09-55.28L578.09-55.28L578.09-55.28Q581.09-54.28 583.25-52.39L583.25-52.39L583.25-52.39Q585.41-50.51 586.69-47.79L586.69-47.79L586.69-47.79Q587.97-45.07 587.97-41.63L587.97-41.63L587.97-41.63Q587.97-36.63 585.91-33.41L585.91-33.41L585.91-33.41Q583.86-30.19 581.31-28.30L581.31-28.30L581.31-28.30Q578.42-26.09 574.65-24.75L574.65-24.75L590.19 0L575.87 0L559.88-27.64L559.77-28.75L559.77-28.75Q560.66-28.97 563.16-29.75L563.16-29.75L563.16-29.75Q565.66-30.53 568.32-31.97L568.32-31.97L568.32-31.97Q570.98-33.41 573.04-35.58L573.04-35.58L573.04-35.58Q575.09-37.74 575.09-40.74L575.09-40.74L575.09-40.74Q575.09-43.96 573.20-45.62L573.20-45.62L573.20-45.62Q571.32-47.29 568.21-47.29L568.21-47.29L568.21-47.29Q563.99-47.29 561.33-45.62L561.33-45.62L561.33-45.62Q558.66-43.96 557.16-41.85L557.16-41.85L557.16-41.85Q555.67-39.74 555.11-37.85L555.11-37.85L555.11-37.85Q554.56-35.96 554.56-35.63L554.56-35.63L554.56 0L541.90 0L541.90-78.25ZM611.28 0.44L611.28 0.44Q605.39 0.44 602.29-3.05L602.29-3.05L602.29-3.05Q599.18-6.55 599.18-12.10L599.18-12.10L599.18-55.28L611.83-55.28L611.83-13.21L611.83-13.21Q611.83-10.66 612.61-9.77L612.61-9.77L612.61-9.77Q613.39-8.88 614.94-8.88L614.94-8.88L614.94-8.88Q615.38-8.88 615.88-8.88L615.88-8.88L615.88-8.88Q616.38-8.88 616.83-8.99L616.83-8.99L616.83-8.99Q617.27-8.99 617.83-9.10L617.83-9.10L619.16-1.11L619.16-1.11Q618.38-0.67 617.16-0.33L617.16-0.33L617.16-0.33Q616.16 0 614.66 0.22L614.66 0.22L614.66 0.22Q613.16 0.44 611.28 0.44L611.28 0.44ZM605.73-79.92L605.73-79.92Q609.28-79.92 611.17-77.81L611.17-77.81L611.17-77.81Q613.05-75.70 613.05-72.37L613.05-72.37L613.05-72.37Q613.05-69.04 611.11-66.82L611.11-66.82L611.11-66.82Q609.17-64.60 605.39-64.60L605.39-64.60L605.39-64.60Q601.84-64.60 599.90-66.77L599.90-66.77L599.90-66.77Q597.96-68.93 597.96-72.04L597.96-72.04L597.96-72.04Q597.96-75.48 599.90-77.70L599.90-77.70L599.90-77.70Q601.84-79.92 605.73-79.92L605.73-79.92ZM639.80 0.44L639.80 0.44Q633.48 0.44 630.48-3.05L630.48-3.05L630.48-3.05Q627.48-6.55 627.48-11.99L627.48-11.99L627.48-78.25L640.14-80.59L640.14-13.21L640.14-13.21Q640.14-10.66 641.14-9.66L641.14-9.66L641.14-9.66Q642.14-8.66 644.02-8.66L644.02-8.66L644.02-8.66Q645.13-8.66 646.19-8.77L646.19-8.77L646.19-8.77Q647.24-8.88 648.13-9.10L648.13-9.10L648.13-9.10Q649.13-9.32 649.91-9.55L649.91-9.55L651.46-1.55L651.46-1.55Q650.02-1.00 648.24-0.56L648.24-0.56L648.24-0.56Q646.69-0.11 644.58 0.17L644.58 0.17L644.58 0.17Q642.47 0.44 639.80 0.44L639.80 0.44ZM672.11 0.44L672.11 0.44Q665.78 0.44 662.78-3.05L662.78-3.05L662.78-3.05Q659.78-6.55 659.78-11.99L659.78-11.99L659.78-78.25L672.44-80.59L672.44-13.21L672.44-13.21Q672.44-10.66 673.44-9.66L673.44-9.66L673.44-9.66Q674.44-8.66 676.32-8.66L676.32-8.66L676.32-8.66Q677.43-8.66 678.49-8.77L678.49-8.77L678.49-8.77Q679.54-8.88 680.43-9.10L680.43-9.10L680.43-9.10Q681.43-9.32 682.21-9.55L682.21-9.55L683.76-1.55L683.76-1.55Q682.32-1.00 680.54-0.56L680.54-0.56L680.54-0.56Q678.99-0.11 676.88 0.17L676.88 0.17L676.88 0.17Q674.77 0.44 672.11 0.44L672.11 0.44ZM708.96-56.61L708.96-56.61L708.96-56.61Q712.18-56.61 715.28-55.94L715.28-55.94L715.28-55.94Q718.39-55.28 720.83-54.39L720.83-54.39L720.83-54.39Q723.72-53.39 726.16-52.28L726.16-52.28L722.39-43.62L722.39-43.62Q720.17-44.62 717.95-45.40L717.95-45.40L717.95-45.40Q716.06-46.06 713.79-46.68L713.79-46.68L713.79-46.68Q711.51-47.29 709.29-47.29L709.29-47.29L709.29-47.29Q706.74-47.29 704.91-46.06L704.91-46.06L704.91-46.06Q703.07-44.84 703.07-42.40L703.07-42.40L703.07-42.40Q703.07-36.08 712.29-32.52L712.29-32.52L712.29-32.52Q715.73-31.19 718.50-29.69L718.50-29.69L718.50-29.69Q721.28-28.19 723.22-26.20L723.22-26.20L723.22-26.20Q725.16-24.20 726.16-21.59L726.16-21.59L726.16-21.59Q727.16-18.98 727.16-15.43L727.16-15.43L727.16-15.43Q727.16-12.32 725.88-9.32L725.88-9.32L725.88-9.32Q724.61-6.33 722.11-4.00L722.11-4.00L722.11-4.00Q719.61-1.67 716.01-0.28L716.01-0.28L716.01-0.28Q712.40 1.11 707.85 1.11L707.85 1.11L707.85 1.11Q704.18 1.11 700.63 0.28L700.63 0.28L700.63 0.28Q697.08-0.56 694.25-1.55L694.25-1.55L694.25-1.55Q691.42-2.55 689.75-3.44L689.75-3.44L688.09-4.22L692.20-13.54L693.64-12.77L693.64-12.77Q695.08-11.88 697.30-10.88L697.30-10.88L697.30-10.88Q699.52-9.88 702.08-9.05L702.08-9.05L702.08-9.05Q704.63-8.21 706.74-8.21L706.74-8.21L706.74-8.21Q710.62-8.21 712.51-9.77L712.51-9.77L712.51-9.77Q714.40-11.32 714.40-13.88L714.40-13.88L714.40-13.88Q714.40-16.76 712.34-19.15L712.34-19.15L712.34-19.15Q710.29-21.53 706.18-23.09L706.18-23.09L706.18-23.09Q697.64-26.31 693.92-30.41L693.92-30.41L693.92-30.41Q690.20-34.52 690.20-41.07L690.20-41.07L690.20-41.07Q690.20-44.18 691.64-47.01L691.64-47.01L691.64-47.01Q693.08-49.84 695.58-52.00L695.58-52.00L695.58-52.00Q698.08-54.17 701.52-55.39L701.52-55.39L701.52-55.39Q704.96-56.61 708.96-56.61Z" fill="#c887ff"></path></g></g><style>text {
  font-size: 64px;
  font-family: Arial Black;
  dominant-baseline: central;
  text-anchor: middle;
}</style></svg>