<svg width="527.1950073242188px" height="202.4px" xmlns="http://www.w3.org/2000/svg" viewBox="-13.597503662109375 -26.200000000000003 527.1950073242188 202.4" style="background: rgb(21, 21, 21);" preserveAspectRatio="xMidYMid"><defs><filter id="editing-hover" x="-100%" y="-100%" width="300%" height="300%"><feFlood flood-color="#000000" result="flood"></feFlood><feComposite operator="in" in2="SourceAlpha" in="flood" result="shadow"></feComposite><feOffset dx="-4" dy="-4" in="SourceGraphic" result="offset-1"></feOffset><feOffset dx="4" dy="4" in="shadow" result="offset-2"></feOffset><feMerge><feMergeNode in="offset-2"></feMergeNode><feMergeNode in="offset-1"></feMergeNode></feMerge></filter></defs><g filter="url(#editing-hover)"><g transform="translate(67.14414077997208, 113.41000318527222)"><path d="M-0.56 0L28.30-75.15L38.74-75.15L67.71 0L53.61 0L46.73-19.65L19.65-19.65L12.54 0L-0.56 0ZM23.20-29.41L43.29-29.41L43.29-29.41Q39.74-39.41 37.19-47.56L37.19-47.56L37.19-47.56Q34.63-55.72 33.30-60.38L33.30-60.38L33.30-60.38Q31.75-55.39 29.19-47.29L29.19-47.29L29.19-47.29Q26.64-39.18 23.20-29.41L23.20-29.41ZM74.92 0L74.92-75.15L74.92-75.15Q75.70-75.15 78.48-75.20L78.48-75.20L78.48-75.20Q81.25-75.26 84.69-75.26L84.69-75.26L84.69-75.26Q88.13-75.26 91.58-75.31L91.58-75.31L91.58-75.31Q95.02-75.37 97.24-75.37L97.24-75.37L97.24-75.37Q111-75.37 117.33-69.99L117.33-69.99L117.33-69.99Q123.65-64.60 123.65-54.83L123.65-54.83L123.65-54.83Q123.65-48.40 120.44-43.40L120.44-43.40L120.44-43.40Q117.22-38.41 109.89-36.19L109.89-36.19L109.89-36.19Q113.00-34.41 115.44-31.30L115.44-31.30L115.44-31.30Q117.88-28.19 120.21-23.70L120.21-23.70L120.21-23.70Q122.54-19.20 124.99-13.26L124.99-13.26L124.99-13.26Q127.43-7.33 130.65 0L130.65 0L116.33 0L116.33 0Q112.55-8.77 109.72-14.98L109.72-14.98L109.72-14.98Q106.89-21.20 104.23-25.09L104.23-25.09L104.23-25.09Q101.56-28.97 98.51-30.75L98.51-30.75L98.51-30.75Q95.46-32.52 91.35-32.52L91.35-32.52L88.13-32.52L88.13 0L74.92 0ZM88.13-65.93L88.13-42.18L96.68-42.18L96.68-42.18Q102.90-42.18 106.28-44.95L106.28-44.95L106.28-44.95Q109.67-47.73 109.67-53.17L109.67-53.17L109.67-53.17Q109.67-55.61 109.00-57.94L109.00-57.94L109.00-57.94Q108.34-60.27 106.73-62.05L106.73-62.05L106.73-62.05Q105.12-63.83 102.40-64.88L102.40-64.88L102.40-64.88Q99.68-65.93 95.57-65.93L95.57-65.93L88.13-65.93ZM184.48-68.15L177.71-60.05L177.71-60.05Q175.05-62.94 172.11-64.44L172.11-64.44L172.11-64.44Q169.16-65.93 165.28-65.93L165.28-65.93L165.28-65.93Q160.51-65.93 157.23-63.77L157.23-63.77L157.23-63.77Q153.96-61.61 151.96-57.78L151.96-57.78L151.96-57.78Q149.96-53.95 149.07-48.84L149.07-48.84L149.07-48.84Q148.19-43.73 148.19-37.85L148.19-37.85L148.19-37.85Q148.19-31.97 149.02-26.86L149.02-26.86L149.02-26.86Q149.85-21.76 151.90-17.87L151.90-17.87L151.90-17.87Q153.96-13.99 157.45-11.77L157.45-11.77L157.45-11.77Q160.95-9.55 166.28-9.55L166.28-9.55L166.28-9.55Q168.83-9.55 171.16-9.99L171.16-9.99L171.16-9.99Q173.49-10.43 175.44-10.93L175.44-10.93L175.44-10.93Q177.38-11.43 178.65-11.88L178.65-11.88L178.65-11.88Q179.93-12.32 180.26-12.43L180.26-12.43L183.37-3.11L181.93-2.55L181.93-2.55Q180.49-2.00 177.88-1.28L177.88-1.28L177.88-1.28Q175.27-0.56 171.66 0.06L171.66 0.06L171.66 0.06Q168.05 0.67 163.72 0.67L163.72 0.67L163.72 0.67Q148.85 0.67 141.36-8.82L141.36-8.82L141.36-8.82Q133.87-18.32 133.87-36.63L133.87-36.63L133.87-36.63Q133.87-45.40 135.86-52.67L135.86-52.67L135.86-52.67Q137.86-59.94 141.91-65.16L141.91-65.16L141.91-65.16Q145.97-70.37 152.13-73.26L152.13-73.26L152.13-73.26Q158.29-76.15 166.61-76.15L166.61-76.15L166.61-76.15Q173.27-76.15 177.54-73.70L177.54-73.70L177.54-73.70Q181.82-71.26 184.48-68.15L184.48-68.15ZM216.12-76.15L216.12-76.15L216.12-76.15Q220.00-76.15 223.55-75.42L223.55-75.42L223.55-75.42Q227.11-74.70 230.05-73.76L230.05-73.76L230.05-73.76Q232.99-72.82 235.04-71.82L235.04-71.82L235.04-71.82Q237.10-70.82 237.87-70.26L237.87-70.26L232.43-60.72L230.99-61.49L230.99-61.49Q229.55-62.27 227.22-63.27L227.22-63.27L227.22-63.27Q224.89-64.27 222.11-65.05L222.11-65.05L222.11-65.05Q219.34-65.82 216.78-65.82L216.78-65.82L216.78-65.82Q212.79-65.82 209.85-63.94L209.85-63.94L209.85-63.94Q206.90-62.05 206.90-58.05L206.90-58.05L206.90-58.05Q206.90-53.06 210.12-49.89L210.12-49.89L210.12-49.89Q213.34-46.73 220.22-44.07L220.22-44.07L220.22-44.07Q224.66-42.29 228.16-40.35L228.16-40.35L228.16-40.35Q231.66-38.41 234.10-35.85L234.10-35.85L234.10-35.85Q236.54-33.30 237.82-29.97L237.82-29.97L237.82-29.97Q239.09-26.64 239.09-21.98L239.09-21.98L239.09-21.98Q239.09-17.76 237.48-13.65L237.48-13.65L237.48-13.65Q235.88-9.55 232.71-6.38L232.71-6.38L232.71-6.38Q229.55-3.22 224.89-1.28L224.89-1.28L224.89-1.28Q220.22 0.67 214.12 0.67L214.12 0.67L214.12 0.67Q209.79 0.67 205.91-0.22L205.91-0.22L205.91-0.22Q202.02-1.11 198.86-2.28L198.86-2.28L198.86-2.28Q195.69-3.44 193.42-4.66L193.42-4.66L193.42-4.66Q191.14-5.88 190.03-6.55L190.03-6.55L194.69-16.76L196.69-15.65L196.69-15.65Q198.69-14.54 201.58-13.21L201.58-13.21L201.58-13.21Q204.46-11.88 207.68-10.77L207.68-10.77L207.68-10.77Q210.90-9.66 213.23-9.66L213.23-9.66L213.23-9.66Q219.11-9.66 222-12.54L222-12.54L222-12.54Q224.89-15.43 224.89-20.65L224.89-20.65L224.89-20.65Q224.89-23.09 224.11-24.92L224.11-24.92L224.11-24.92Q223.33-26.75 221.89-28.08L221.89-28.08L221.89-28.08Q220.45-29.41 218.39-30.47L218.39-30.47L218.39-30.47Q216.34-31.52 213.79-32.52L213.79-32.52L213.79-32.52Q208.79-34.63 204.85-36.74L204.85-36.74L204.85-36.74Q200.91-38.85 198.13-41.57L198.13-41.57L198.13-41.57Q195.36-44.29 193.92-47.79L193.92-47.79L193.92-47.79Q192.47-51.28 192.47-56.17L192.47-56.17L192.47-56.17Q192.47-60.27 194.25-63.88L194.25-63.88L194.25-63.88Q196.03-67.49 199.13-70.21L199.13-70.21L199.13-70.21Q202.24-72.93 206.57-74.54L206.57-74.54L206.57-74.54Q210.90-76.15 216.12-76.15ZM298.81-68.15L292.04-60.05L292.04-60.05Q289.38-62.94 286.44-64.44L286.44-64.44L286.44-64.44Q283.49-65.93 279.61-65.93L279.61-65.93L279.61-65.93Q274.84-65.93 271.56-63.77L271.56-63.77L271.56-63.77Q268.29-61.61 266.29-57.78L266.29-57.78L266.29-57.78Q264.29-53.95 263.40-48.84L263.40-48.84L263.40-48.84Q262.51-43.73 262.51-37.85L262.51-37.85L262.51-37.85Q262.51-31.97 263.35-26.86L263.35-26.86L263.35-26.86Q264.18-21.76 266.23-17.87L266.23-17.87L266.23-17.87Q268.29-13.99 271.78-11.77L271.78-11.77L271.78-11.77Q275.28-9.55 280.61-9.55L280.61-9.55L280.61-9.55Q283.16-9.55 285.49-9.99L285.49-9.99L285.49-9.99Q287.82-10.43 289.77-10.93L289.77-10.93L289.77-10.93Q291.71-11.43 292.98-11.88L292.98-11.88L292.98-11.88Q294.26-12.32 294.59-12.43L294.59-12.43L297.70-3.11L296.26-2.55L296.26-2.55Q294.82-2.00 292.21-1.28L292.21-1.28L292.21-1.28Q289.60-0.56 285.99 0.06L285.99 0.06L285.99 0.06Q282.38 0.67 278.06 0.67L278.06 0.67L278.06 0.67Q263.18 0.67 255.69-8.82L255.69-8.82L255.69-8.82Q248.20-18.32 248.20-36.63L248.20-36.63L248.20-36.63Q248.20-45.40 250.19-52.67L250.19-52.67L250.19-52.67Q252.19-59.94 256.24-65.16L256.24-65.16L256.24-65.16Q260.29-70.37 266.46-73.26L266.46-73.26L266.46-73.26Q272.62-76.15 280.94-76.15L280.94-76.15L280.94-76.15Q287.60-76.15 291.87-73.70L291.87-73.70L291.87-73.70Q296.15-71.26 298.81-68.15L298.81-68.15ZM307.69-75.15L320.79-75.15L320.79-28.64L320.79-28.64Q320.79-18.32 325.12-13.93L325.12-13.93L325.12-13.93Q329.45-9.55 336.88-9.55L336.88-9.55L336.88-9.55Q344.43-9.55 348.04-14.60L348.04-14.60L348.04-14.60Q351.65-19.65 351.65-28.64L351.65-28.64L351.65-75.15L364.86-75.15L364.86-27.64L364.86-27.64Q364.86-21.87 363.36-16.76L363.36-16.76L363.36-16.76Q361.86-11.65 358.42-7.77L358.42-7.77L358.42-7.77Q354.98-3.89 349.32-1.61L349.32-1.61L349.32-1.61Q343.66 0.67 335.44 0.67L335.44 0.67L335.44 0.67Q327.56 0.67 322.29-1.61L322.29-1.61L322.29-1.61Q317.02-3.89 313.74-7.77L313.74-7.77L313.74-7.77Q310.47-11.65 309.08-16.76L309.08-16.76L309.08-16.76Q307.69-21.87 307.69-27.64L307.69-27.64L307.69-75.15Z" fill="#c887ff"></path></g></g><style>text {
  font-size: 64px;
  font-family: Arial Black;
  dominant-baseline: central;
  text-anchor: middle;
}</style></svg>