<svg width="704.1650146484375px" height="202.4px" xmlns="http://www.w3.org/2000/svg" viewBox="-102.08250732421874 -26.200000000000003 704.1650146484375 202.4" style="background: rgb(21, 21, 21);" preserveAspectRatio="xMidYMid"><defs><filter id="editing-hover" x="-100%" y="-100%" width="300%" height="300%"><feFlood flood-color="#000000" result="flood"></feFlood><feComposite operator="in" in2="SourceAlpha" in="flood" result="shadow"></feComposite><feOffset dx="-4" dy="-4" in="SourceGraphic" result="offset-1"></feOffset><feOffset dx="4" dy="4" in="shadow" result="offset-2"></feOffset><feMerge><feMergeNode in="offset-2"></feMergeNode><feMergeNode in="offset-1"></feMergeNode></feMerge></filter></defs><g filter="url(#editing-hover)"><g transform="translate(-2.079986095428467, 127.00500059127808)"><path d="M55.83-68.15L49.06-60.05L49.06-60.05Q46.40-62.94 43.46-64.44L43.46-64.44L43.46-64.44Q40.52-65.93 36.63-65.93L36.63-65.93L36.63-65.93Q31.86-65.93 28.58-63.77L28.58-63.77L28.58-63.77Q25.31-61.61 23.31-57.78L23.31-57.78L23.31-57.78Q21.31-53.95 20.42-48.84L20.42-48.84L20.42-48.84Q19.54-43.73 19.54-37.85L19.54-37.85L19.54-37.85Q19.54-31.97 20.37-26.86L20.37-26.86L20.37-26.86Q21.20-21.76 23.25-17.87L23.25-17.87L23.25-17.87Q25.31-13.99 28.80-11.77L28.80-11.77L28.80-11.77Q32.30-9.55 37.63-9.55L37.63-9.55L37.63-9.55Q40.18-9.55 42.51-9.99L42.51-9.99L42.51-9.99Q44.84-10.43 46.79-10.93L46.79-10.93L46.79-10.93Q48.73-11.43 50.01-11.88L50.01-11.88L50.01-11.88Q51.28-12.32 51.62-12.43L51.62-12.43L54.72-3.11L53.28-2.55L53.28-2.55Q51.84-2.00 49.23-1.28L49.23-1.28L49.23-1.28Q46.62-0.56 43.01 0.06L43.01 0.06L43.01 0.06Q39.41 0.67 35.08 0.67L35.08 0.67L35.08 0.67Q20.20 0.67 12.71-8.82L12.71-8.82L12.71-8.82Q5.22-18.32 5.22-36.63L5.22-36.63L5.22-36.63Q5.22-45.40 7.21-52.67L7.21-52.67L7.21-52.67Q9.21-59.94 13.26-65.16L13.26-65.16L13.26-65.16Q17.32-70.37 23.48-73.26L23.48-73.26L23.48-73.26Q29.64-76.15 37.96-76.15L37.96-76.15L37.96-76.15Q44.62-76.15 48.90-73.70L48.90-73.70L48.90-73.70Q53.17-71.26 55.83-68.15L55.83-68.15ZM123.65-75.15L95.57 0L85.25 0L57.16-75.15L71.26-75.15L80.59-48.29L80.59-48.29Q84.14-37.85 86.69-29.91L86.69-29.91L86.69-29.91Q89.24-21.98 90.58-17.76L90.58-17.76L90.58-17.76Q91.80-21.98 94.29-29.69L94.29-29.69L94.29-29.69Q96.79-37.41 100.57-48.06L100.57-48.06L110.22-75.15L123.65-75.15ZM217.00 0L202.13-45.62L202.13-45.62Q200.47-50.17 199.47-54.50L199.47-54.50L199.47-54.50Q198.91-52.39 198.41-50.28L198.41-50.28L198.41-50.28Q197.91-48.17 197.14-45.62L197.14-45.62L182.71 0L172.94 0L152.07-75.15L165.28-75.15L175.05-37.52L175.05-37.52Q177.60-27.75 178.71-21.76L178.71-21.76L178.71-21.76Q179.49-24.86 180.54-28.64L180.54-28.64L180.54-28.64Q181.60-32.41 183.15-37.30L183.15-37.30L194.92-75.15L204.80-75.15L216.56-37.30L216.56-37.30Q218.12-32.30 219.23-28.19L219.23-28.19L219.23-28.19Q220.34-24.09 221.00-20.98L221.00-20.98L221.00-20.98Q221.44-24.09 222.28-28.19L222.28-28.19L222.28-28.19Q223.11-32.30 224.44-37.30L224.44-37.30L234.21-75.15L247.64-75.15L226.77 0L217.00 0ZM277.17-43.73L277.17-43.73Q275.17-43.73 273.17-42.73L273.17-42.73L273.17-42.73Q271.17-41.74 269.62-40.02L269.62-40.02L269.62-40.02Q268.06-38.30 267.07-35.85L267.07-35.85L267.07-35.85Q266.07-33.41 266.07-30.41L266.07-30.41L266.07 0L253.41 0L253.41-27.97L253.41-27.97Q253.41-34.63 252.53-39.13L252.53-39.13L252.53-39.13Q251.64-43.62 250.64-46.40L250.64-46.40L250.64-46.40Q249.42-49.62 247.97-51.62L247.97-51.62L257.96-55.61L257.96-55.61Q258.96-54.39 260.07-52.61L260.07-52.61L260.07-52.61Q260.96-51.06 261.85-48.95L261.85-48.95L261.85-48.95Q262.74-46.84 263.29-43.96L263.29-43.96L263.29-43.96Q265.51-50.39 269.73-53.22L269.73-53.22L269.73-53.22Q273.95-56.05 279.28-56.05L279.28-56.05L279.28-56.05Q281.83-56.05 284.05-55.44L284.05-55.44L284.05-55.44Q286.27-54.83 286.16-54.83L286.16-54.83L282.61-42.51L282.61-42.51Q282.72-42.51 281.33-43.12L281.33-43.12L281.33-43.12Q279.94-43.73 277.17-43.73L277.17-43.73ZM305.03 0.44L305.03 0.44Q299.15 0.44 296.04-3.05L296.04-3.05L296.04-3.05Q292.93-6.55 292.93-12.10L292.93-12.10L292.93-55.28L305.58-55.28L305.58-13.21L305.58-13.21Q305.58-10.66 306.36-9.77L306.36-9.77L306.36-9.77Q307.14-8.88 308.69-8.88L308.69-8.88L308.69-8.88Q309.13-8.88 309.63-8.88L309.63-8.88L309.63-8.88Q310.13-8.88 310.58-8.99L310.58-8.99L310.58-8.99Q311.02-8.99 311.58-9.10L311.58-9.10L312.91-1.11L312.91-1.11Q312.13-0.67 310.91-0.33L310.91-0.33L310.91-0.33Q309.91 0 308.41 0.22L308.41 0.22L308.41 0.22Q306.92 0.44 305.03 0.44L305.03 0.44ZM299.48-79.92L299.48-79.92Q303.03-79.92 304.92-77.81L304.92-77.81L304.92-77.81Q306.80-75.70 306.80-72.37L306.80-72.37L306.80-72.37Q306.80-69.04 304.86-66.82L304.86-66.82L304.86-66.82Q302.92-64.60 299.15-64.60L299.15-64.60L299.15-64.60Q295.59-64.60 293.65-66.77L293.65-66.77L293.65-66.77Q291.71-68.93 291.71-72.04L291.71-72.04L291.71-72.04Q291.71-75.48 293.65-77.70L293.65-77.70L293.65-77.70Q295.59-79.92 299.48-79.92L299.48-79.92ZM315.68-46.29L315.68-55.28L325.67-55.28L327.89-68.27L338.33-70.60L338.33-55.28L351.98-55.28L350.43-46.29L338.33-46.29L338.33-13.43L338.33-13.43Q338.33-10.54 339.88-9.71L339.88-9.71L339.88-9.71Q341.44-8.88 343.32-8.88L343.32-8.88L343.32-8.88Q344.88-8.88 346.43-9.10L346.43-9.10L346.43-9.10Q347.99-9.32 349.21-9.66L349.21-9.66L349.21-9.66Q350.65-9.99 351.98-10.43L351.98-10.43L354.09-2.11L353.09-1.78L353.09-1.78Q352.09-1.33 350.15-0.83L350.15-0.83L350.15-0.83Q348.21-0.33 345.60 0.06L345.60 0.06L345.60 0.06Q342.99 0.44 339.88 0.44L339.88 0.44L339.88 0.44Q336.77 0.44 334.17-0.22L334.17-0.22L334.17-0.22Q331.56-0.89 329.67-2.39L329.67-2.39L329.67-2.39Q327.78-3.89 326.73-6.22L326.73-6.22L326.73-6.22Q325.67-8.55 325.67-11.99L325.67-11.99L325.67-46.29L315.68-46.29ZM373.51 0.44L373.51 0.44Q367.63 0.44 364.52-3.05L364.52-3.05L364.52-3.05Q361.42-6.55 361.42-12.10L361.42-12.10L361.42-55.28L374.07-55.28L374.07-13.21L374.07-13.21Q374.07-10.66 374.85-9.77L374.85-9.77L374.85-9.77Q375.62-8.88 377.18-8.88L377.18-8.88L377.18-8.88Q377.62-8.88 378.12-8.88L378.12-8.88L378.12-8.88Q378.62-8.88 379.06-8.99L379.06-8.99L379.06-8.99Q379.51-8.99 380.06-9.10L380.06-9.10L381.40-1.11L381.40-1.11Q380.62-0.67 379.40-0.33L379.40-0.33L379.40-0.33Q378.40 0 376.90 0.22L376.90 0.22L376.90 0.22Q375.40 0.44 373.51 0.44L373.51 0.44ZM367.96-79.92L367.96-79.92Q371.52-79.92 373.40-77.81L373.40-77.81L373.40-77.81Q375.29-75.70 375.29-72.37L375.29-72.37L375.29-72.37Q375.29-69.04 373.35-66.82L373.35-66.82L373.35-66.82Q371.41-64.60 367.63-64.60L367.63-64.60L367.63-64.60Q364.08-64.60 362.14-66.77L362.14-66.77L362.14-66.77Q360.19-68.93 360.19-72.04L360.19-72.04L360.19-72.04Q360.19-75.48 362.14-77.70L362.14-77.70L362.14-77.70Q364.08-79.92 367.96-79.92L367.96-79.92ZM437.23 0L424.69 0L424.69-35.85L424.69-35.85Q424.69-40.52 423.02-43.35L423.02-43.35L423.02-43.35Q421.36-46.18 417.36-46.18L417.36-46.18L417.36-46.18Q414.81-46.18 412.42-44.90L412.42-44.90L412.42-44.90Q410.03-43.62 408.15-41.18L408.15-41.18L408.15-41.18Q406.26-38.74 405.09-35.24L405.09-35.24L405.09-35.24Q403.93-31.75 403.93-27.42L403.93-27.42L403.93 0L391.27 0L391.27-27.97L391.27-27.97Q391.27-34.63 390.39-39.13L390.39-39.13L390.39-39.13Q389.50-43.62 388.50-46.40L388.50-46.40L388.50-46.40Q387.28-49.62 385.84-51.62L385.84-51.62L395.83-55.61L395.83-55.61Q396.94-54.39 398.05-52.61L398.05-52.61L398.05-52.61Q398.93-51.06 399.82-48.78L399.82-48.78L399.82-48.78Q400.71-46.51 401.26-43.62L401.26-43.62L401.26-43.62Q404.15-50.28 409.59-53.22L409.59-53.22L409.59-53.22Q415.03-56.17 421.02-56.17L421.02-56.17L421.02-56.17Q429.57-56.17 433.40-51.00L433.40-51.00L433.40-51.00Q437.23-45.84 437.23-37.07L437.23-37.07L437.23 0ZM456.43 19.43L459.54 9.77L459.54 9.77Q461.20 10.43 463.09 11.16L463.09 11.16L463.09 11.16Q464.98 11.88 467.09 12.54L467.09 12.54L467.09 12.54Q469.20 13.21 471.36 13.65L471.36 13.65L471.36 13.65Q473.53 14.10 475.63 14.10L475.63 14.10L475.63 14.10Q481.85 14.10 484.63 10.38L484.63 10.38L484.63 10.38Q487.40 6.66 487.40 0.78L487.40 0.78L487.40 0.78Q487.40-5.00 484.96-10.88L484.96-10.88L484.96-10.88Q483.07-5.22 479.02-2.28L479.02-2.28L479.02-2.28Q474.97 0.67 468.31 0.67L468.31 0.67L468.31 0.67Q463.09 0.67 459.26-1.28L459.26-1.28L459.26-1.28Q455.43-3.22 452.88-6.83L452.88-6.83L452.88-6.83Q450.33-10.43 449.11-15.54L449.11-15.54L449.11-15.54Q447.88-20.65 447.88-26.86L447.88-26.86L447.88-26.86Q447.88-33.19 449.83-38.57L449.83-38.57L449.83-38.57Q451.77-43.96 455.27-47.84L455.27-47.84L455.27-47.84Q458.76-51.73 463.65-53.95L463.65-53.95L463.65-53.95Q468.53-56.17 474.41-56.17L474.41-56.17L474.41-56.17Q477.08-56.17 480.13-55.83L480.13-55.83L480.13-55.83Q483.18-55.50 486.12-55.00L486.12-55.00L486.12-55.00Q489.07-54.50 491.67-53.95L491.67-53.95L491.67-53.95Q494.28-53.39 496.17-52.95L496.17-52.95L495.62-22.42L495.62-22.42Q495.50-19.09 496.00-16.32L496.00-16.32L496.00-16.32Q496.50-13.54 497.17-10.82L497.17-10.82L497.17-10.82Q497.83-8.10 498.39-5.33L498.39-5.33L498.39-5.33Q498.94-2.55 498.94 0.78L498.94 0.78L498.94 0.78Q498.94 12.54 492.95 18.32L492.95 18.32L492.95 18.32Q486.96 24.09 476.75 24.09L476.75 24.09L476.75 24.09Q473.42 24.09 470.08 23.48L470.08 23.48L470.08 23.48Q466.75 22.87 463.92 22.09L463.92 22.09L463.92 22.09Q461.09 21.31 459.10 20.54L459.10 20.54L459.10 20.54Q457.10 19.76 456.43 19.43L456.43 19.43ZM470.42-8.21L470.42-8.21Q473.08-8.21 475.36-9.99L475.36-9.99L475.36-9.99Q477.63-11.77 479.41-14.71L479.41-14.71L479.41-14.71Q481.19-17.65 482.18-21.42L482.18-21.42L482.18-21.42Q483.18-25.20 483.18-29.19L483.18-29.19L483.18-46.06L483.18-46.06Q482.07-46.40 479.85-46.84L479.85-46.84L479.85-46.84Q477.63-47.29 475.86-47.29L475.86-47.29L475.86-47.29Q471.64-47.29 468.92-45.84L468.92-45.84L468.92-45.84Q466.20-44.40 464.54-41.85L464.54-41.85L464.54-41.85Q462.87-39.29 462.20-35.74L462.20-35.74L462.20-35.74Q461.54-32.19 461.54-27.97L461.54-27.97L461.54-27.97Q461.54-24.09 461.76-20.54L461.76-20.54L461.76-20.54Q461.98-16.98 462.93-14.21L462.93-14.21L462.93-14.21Q463.87-11.43 465.64-9.82L465.64-9.82L465.64-9.82Q467.42-8.21 470.42-8.21L470.42-8.21Z" fill="#c887ff"></path></g></g><style>text {
  font-size: 64px;
  font-family: Arial Black;
  dominant-baseline: central;
  text-anchor: middle;
}</style></svg>