<svg width="1451.7048828125px" height="202.4px" xmlns="http://www.w3.org/2000/svg" viewBox="-475.85244140625 -26.200000000000003 1451.7048828125 202.4" style="background: rgb(21, 21, 21);" preserveAspectRatio="xMidYMid"><defs><filter id="editing-hover" x="-100%" y="-100%" width="300%" height="300%"><feFlood flood-color="#000000" result="flood"></feFlood><feComposite operator="in" in2="SourceAlpha" in="flood" result="shadow"></feComposite><feOffset dx="-4" dy="-4" in="SourceGraphic" result="offset-1"></feOffset><feOffset dx="4" dy="4" in="shadow" result="offset-2"></feOffset><feMerge><feMergeNode in="offset-2"></feMergeNode><feMergeNode in="offset-1"></feMergeNode></feMerge></filter></defs><g filter="url(#editing-hover)"><g transform="translate(-278.5800280570984, 127.33999967575073)"><path d="M7.77 0L7.77-75.15L52.39-75.15L52.39-65.16L20.98-65.16L20.98-44.18L46.84-44.18L45.18-34.08L20.98-34.08L20.98-9.99L54.06-9.99L54.06 0L7.77 0ZM139.53 0L126.98 0L126.98-36.19L126.98-36.19Q126.98-40.85 125.54-43.57L125.54-43.57L125.54-43.57Q124.10-46.29 120.55-46.29L120.55-46.29L120.55-46.29Q118.44-46.29 116.27-45.12L116.27-45.12L116.27-45.12Q114.11-43.96 112.33-41.74L112.33-41.74L112.33-41.74Q110.56-39.52 109.45-36.41L109.45-36.41L109.45-36.41Q108.34-33.30 108.34-29.53L108.34-29.53L108.34 0L95.79 0L95.79-36.19L95.79-36.19Q95.79-40.85 94.35-43.57L94.35-43.57L94.35-43.57Q92.91-46.29 89.35-46.29L89.35-46.29L89.35-46.29Q87.13-46.29 84.97-45.01L84.97-45.01L84.97-45.01Q82.81-43.73 81.09-41.29L81.09-41.29L81.09-41.29Q79.36-38.85 78.31-35.35L78.31-35.35L78.31-35.35Q77.26-31.86 77.26-27.53L77.26-27.53L77.26 0L64.60 0L64.60-27.97L64.60-27.97Q64.60-34.63 63.71-39.13L63.71-39.13L63.71-39.13Q62.83-43.62 61.83-46.40L61.83-46.40L61.83-46.40Q60.61-49.62 59.16-51.62L59.16-51.62L69.15-55.61L69.15-55.61Q70.26-54.39 71.37-52.61L71.37-52.61L71.37-52.61Q72.26-51.06 73.15-48.78L73.15-48.78L73.15-48.78Q74.04-46.51 74.59-43.62L74.59-43.62L74.59-43.62Q77.37-50.28 82.42-53.22L82.42-53.22L82.42-53.22Q87.47-56.17 93.13-56.17L93.13-56.17L93.13-56.17Q98.79-56.17 101.95-53.28L101.95-53.28L101.95-53.28Q105.12-50.39 106.67-45.84L106.67-45.84L106.67-45.84Q109.67-51.39 114.39-53.78L114.39-53.78L114.39-53.78Q119.10-56.17 124.32-56.17L124.32-56.17L124.32-56.17Q128.65-56.17 131.59-54.78L131.59-54.78L131.59-54.78Q134.53-53.39 136.25-50.89L136.25-50.89L136.25-50.89Q137.97-48.40 138.75-44.90L138.75-44.90L138.75-44.90Q139.53-41.40 139.53-37.07L139.53-37.07L139.53 0ZM175.38-56.61L175.38-56.61Q188.15-56.61 193.92-49.06L193.92-49.06L193.92-49.06Q199.69-41.51 199.69-28.30L199.69-28.30L199.69-28.30Q199.69-22.09 198.14-16.71L198.14-16.71L198.14-16.71Q196.58-11.32 193.42-7.38L193.42-7.38L193.42-7.38Q190.25-3.44 185.48-1.17L185.48-1.17L185.48-1.17Q180.71 1.11 174.38 1.11L174.38 1.11L174.38 1.11Q168.05 1.11 163.45-0.83L163.45-0.83L163.45-0.83Q158.84-2.77 155.84-6.44L155.84-6.44L155.84-6.44Q152.85-10.10 151.46-15.32L151.46-15.32L151.46-15.32Q150.07-20.54 150.07-27.08L150.07-27.08L150.07-27.08Q150.07-33.41 151.63-38.79L151.63-38.79L151.63-38.79Q153.18-44.18 156.34-48.12L156.34-48.12L156.34-48.12Q159.51-52.06 164.28-54.33L164.28-54.33L164.28-54.33Q169.05-56.61 175.38-56.61L175.38-56.61ZM174.27-47.29L174.27-47.29Q171.05-47.29 169.00-45.84L169.00-45.84L169.00-45.84Q166.94-44.40 165.78-41.79L165.78-41.79L165.78-41.79Q164.61-39.18 164.17-35.69L164.17-35.69L164.17-35.69Q163.73-32.19 163.73-28.19L163.73-28.19L163.73-28.19Q163.73-24.09 164.22-20.42L164.22-20.42L164.22-20.42Q164.72-16.76 166.06-14.04L166.06-14.04L166.06-14.04Q167.39-11.32 169.66-9.77L169.66-9.77L169.66-9.77Q171.94-8.21 175.49-8.21L175.49-8.21L175.49-8.21Q178.71-8.21 180.76-9.66L180.76-9.66L180.76-9.66Q182.82-11.10 183.98-13.71L183.98-13.71L183.98-13.71Q185.15-16.32 185.59-19.76L185.59-19.76L185.59-19.76Q186.04-23.20 186.04-27.20L186.04-27.20L186.04-27.20Q186.04-31.30 185.54-34.97L185.54-34.97L185.54-34.97Q185.04-38.63 183.71-41.40L183.71-41.40L183.71-41.40Q182.37-44.18 180.10-45.73L180.10-45.73L180.10-45.73Q177.82-47.29 174.27-47.29L174.27-47.29ZM204.68-46.29L204.68-55.28L214.67-55.28L216.89-68.27L227.33-70.60L227.33-55.28L240.98-55.28L239.43-46.29L227.33-46.29L227.33-13.43L227.33-13.43Q227.33-10.54 228.88-9.71L228.88-9.71L228.88-9.71Q230.44-8.88 232.32-8.88L232.32-8.88L232.32-8.88Q233.88-8.88 235.43-9.10L235.43-9.10L235.43-9.10Q236.99-9.32 238.21-9.66L238.21-9.66L238.21-9.66Q239.65-9.99 240.98-10.43L240.98-10.43L243.09-2.11L242.09-1.78L242.09-1.78Q241.09-1.33 239.15-0.83L239.15-0.83L239.15-0.83Q237.21-0.33 234.60 0.06L234.60 0.06L234.60 0.06Q231.99 0.44 228.88 0.44L228.88 0.44L228.88 0.44Q225.77 0.44 223.17-0.22L223.17-0.22L223.17-0.22Q220.56-0.89 218.67-2.39L218.67-2.39L218.67-2.39Q216.78-3.89 215.73-6.22L215.73-6.22L215.73-6.22Q214.67-8.55 214.67-11.99L214.67-11.99L214.67-46.29L204.68-46.29ZM262.51 0.44L262.51 0.44Q256.63 0.44 253.52-3.05L253.52-3.05L253.52-3.05Q250.42-6.55 250.42-12.10L250.42-12.10L250.42-55.28L263.07-55.28L263.07-13.21L263.07-13.21Q263.07-10.66 263.85-9.77L263.85-9.77L263.85-9.77Q264.62-8.88 266.18-8.88L266.18-8.88L266.18-8.88Q266.62-8.88 267.12-8.88L267.12-8.88L267.12-8.88Q267.62-8.88 268.06-8.99L268.06-8.99L268.06-8.99Q268.51-8.99 269.06-9.10L269.06-9.10L270.40-1.11L270.40-1.11Q269.62-0.67 268.40-0.33L268.40-0.33L268.40-0.33Q267.40 0 265.90 0.22L265.90 0.22L265.90 0.22Q264.40 0.44 262.51 0.44L262.51 0.44ZM256.97-79.92L256.97-79.92Q260.52-79.92 262.40-77.81L262.40-77.81L262.40-77.81Q264.29-75.70 264.29-72.37L264.29-72.37L264.29-72.37Q264.29-69.04 262.35-66.82L262.35-66.82L262.35-66.82Q260.41-64.60 256.63-64.60L256.63-64.60L256.63-64.60Q253.08-64.60 251.14-66.77L251.14-66.77L251.14-66.77Q249.20-68.93 249.20-72.04L249.20-72.04L249.20-72.04Q249.20-75.48 251.14-77.70L251.14-77.70L251.14-77.70Q253.08-79.92 256.97-79.92L256.97-79.92ZM301.25-56.61L301.25-56.61Q314.02-56.61 319.79-49.06L319.79-49.06L319.79-49.06Q325.56-41.51 325.56-28.30L325.56-28.30L325.56-28.30Q325.56-22.09 324.01-16.71L324.01-16.71L324.01-16.71Q322.46-11.32 319.29-7.38L319.29-7.38L319.29-7.38Q316.13-3.44 311.36-1.17L311.36-1.17L311.36-1.17Q306.58 1.11 300.26 1.11L300.26 1.11L300.26 1.11Q293.93 1.11 289.32-0.83L289.32-0.83L289.32-0.83Q284.72-2.77 281.72-6.44L281.72-6.44L281.72-6.44Q278.72-10.10 277.33-15.32L277.33-15.32L277.33-15.32Q275.95-20.54 275.95-27.08L275.95-27.08L275.95-27.08Q275.95-33.41 277.50-38.79L277.50-38.79L277.50-38.79Q279.05-44.18 282.22-48.12L282.22-48.12L282.22-48.12Q285.38-52.06 290.15-54.33L290.15-54.33L290.15-54.33Q294.93-56.61 301.25-56.61L301.25-56.61ZM300.14-47.29L300.14-47.29Q296.93-47.29 294.87-45.84L294.87-45.84L294.87-45.84Q292.82-44.40 291.65-41.79L291.65-41.79L291.65-41.79Q290.49-39.18 290.04-35.69L290.04-35.69L290.04-35.69Q289.60-32.19 289.60-28.19L289.60-28.19L289.60-28.19Q289.60-24.09 290.10-20.42L290.10-20.42L290.10-20.42Q290.60-16.76 291.93-14.04L291.93-14.04L291.93-14.04Q293.26-11.32 295.54-9.77L295.54-9.77L295.54-9.77Q297.81-8.21 301.37-8.21L301.37-8.21L301.37-8.21Q304.58-8.21 306.64-9.66L306.64-9.66L306.64-9.66Q308.69-11.10 309.86-13.71L309.86-13.71L309.86-13.71Q311.02-16.32 311.47-19.76L311.47-19.76L311.47-19.76Q311.91-23.20 311.91-27.20L311.91-27.20L311.91-27.20Q311.91-31.30 311.41-34.97L311.41-34.97L311.41-34.97Q310.91-38.63 309.58-41.40L309.58-41.40L309.58-41.40Q308.25-44.18 305.97-45.73L305.97-45.73L305.97-45.73Q303.70-47.29 300.14-47.29L300.14-47.29ZM383.62 0L371.07 0L371.07-35.85L371.07-35.85Q371.07-40.52 369.41-43.35L369.41-43.35L369.41-43.35Q367.74-46.18 363.75-46.18L363.75-46.18L363.75-46.18Q361.19-46.18 358.81-44.90L358.81-44.90L358.81-44.90Q356.42-43.62 354.53-41.18L354.53-41.18L354.53-41.18Q352.65-38.74 351.48-35.24L351.48-35.24L351.48-35.24Q350.32-31.75 350.32-27.42L350.32-27.42L350.32 0L337.66 0L337.66-27.97L337.66-27.97Q337.66-34.63 336.77-39.13L336.77-39.13L336.77-39.13Q335.89-43.62 334.89-46.40L334.89-46.40L334.89-46.40Q333.67-49.62 332.22-51.62L332.22-51.62L342.21-55.61L342.21-55.61Q343.32-54.39 344.43-52.61L344.43-52.61L344.43-52.61Q345.32-51.06 346.21-48.78L346.21-48.78L346.21-48.78Q347.10-46.51 347.65-43.62L347.65-43.62L347.65-43.62Q350.54-50.28 355.98-53.22L355.98-53.22L355.98-53.22Q361.42-56.17 367.41-56.17L367.41-56.17L367.41-56.17Q375.96-56.17 379.79-51.00L379.79-51.00L379.79-51.00Q383.62-45.84 383.62-37.07L383.62-37.07L383.62 0ZM442.22-52.95L442.22-26.75L442.22-26.75Q442.22-20.09 443.06-15.60L443.06-15.60L443.06-15.60Q443.89-11.10 444.89-8.32L444.89-8.32L444.89-8.32Q446.11-5.00 447.55-3.11L447.55-3.11L437.67 0.89L437.67 0.89Q436.23-0.56 435.01-2.55L435.01-2.55L435.01-2.55Q434.01-4.33 433.12-6.83L433.12-6.83L433.12-6.83Q432.23-9.32 432.01-12.77L432.01-12.77L432.01-12.77Q430.13-6.11 425.96-2.72L425.96-2.72L425.96-2.72Q421.80 0.67 414.70 0.67L414.70 0.67L414.70 0.67Q409.48 0.67 405.65-1.28L405.65-1.28L405.65-1.28Q401.82-3.22 399.27-6.83L399.27-6.83L399.27-6.83Q396.71-10.43 395.49-15.54L395.49-15.54L395.49-15.54Q394.27-20.65 394.27-26.86L394.27-26.86L394.27-26.86Q394.27-33.19 396.21-38.57L396.21-38.57L396.21-38.57Q398.16-43.96 401.65-47.84L401.65-47.84L401.65-47.84Q405.15-51.73 410.03-53.95L410.03-53.95L410.03-53.95Q414.92-56.17 420.80-56.17L420.80-56.17L420.80-56.17Q424.13-56.17 427.74-55.67L427.74-55.67L427.74-55.67Q431.35-55.17 434.45-54.61L434.45-54.61L434.45-54.61Q437.56-54.06 439.73-53.56L439.73-53.56L439.73-53.56Q441.89-53.06 442.22-52.95L442.22-52.95ZM416.81-8.21L416.81-8.21Q419.58-8.21 421.91-10.10L421.91-10.10L421.91-10.10Q424.24-11.99 425.96-15.04L425.96-15.04L425.96-15.04Q427.68-18.09 428.63-22.03L428.63-22.03L428.63-22.03Q429.57-25.97 429.57-30.08L429.57-30.08L429.57-46.06L429.57-46.06Q428.46-46.40 426.24-46.84L426.24-46.84L426.24-46.84Q424.02-47.29 422.24-47.29L422.24-47.29L422.24-47.29Q418.03-47.29 415.31-45.84L415.31-45.84L415.31-45.84Q412.59-44.40 410.92-41.85L410.92-41.85L410.92-41.85Q409.26-39.29 408.59-35.74L408.59-35.74L408.59-35.74Q407.93-32.19 407.93-27.97L407.93-27.97L407.93-27.97Q407.93-24.09 408.15-20.54L408.15-20.54L408.15-20.54Q408.37-16.98 409.31-14.21L409.31-14.21L409.31-14.21Q410.26-11.43 412.03-9.82L412.03-9.82L412.03-9.82Q413.81-8.21 416.81-8.21L416.81-8.21ZM468.86 0.44L468.86 0.44Q462.54 0.44 459.54-3.05L459.54-3.05L459.54-3.05Q456.54-6.55 456.54-11.99L456.54-11.99L456.54-78.25L469.20-80.59L469.20-13.21L469.20-13.21Q469.20-10.66 470.20-9.66L470.20-9.66L470.20-9.66Q471.20-8.66 473.08-8.66L473.08-8.66L473.08-8.66Q474.19-8.66 475.25-8.77L475.25-8.77L475.25-8.77Q476.30-8.88 477.19-9.10L477.19-9.10L477.19-9.10Q478.19-9.32 478.97-9.55L478.97-9.55L480.52-1.55L480.52-1.55Q479.08-1.00 477.30-0.56L477.30-0.56L477.30-0.56Q475.75-0.11 473.64 0.17L473.64 0.17L473.64 0.17Q471.53 0.44 468.86 0.44L468.86 0.44ZM518.26 0L518.26-75.15L531.47-75.15L531.47 0L518.26 0ZM592.74 0L580.20 0L580.20-35.85L580.20-35.85Q580.20-40.52 578.53-43.35L578.53-43.35L578.53-43.35Q576.87-46.18 572.87-46.18L572.87-46.18L572.87-46.18Q570.32-46.18 567.93-44.90L567.93-44.90L567.93-44.90Q565.54-43.62 563.66-41.18L563.66-41.18L563.66-41.18Q561.77-38.74 560.61-35.24L560.61-35.24L560.61-35.24Q559.44-31.75 559.44-27.42L559.44-27.42L559.44 0L546.79 0L546.79-27.97L546.79-27.97Q546.79-34.63 545.90-39.13L545.90-39.13L545.90-39.13Q545.01-43.62 544.01-46.40L544.01-46.40L544.01-46.40Q542.79-49.62 541.35-51.62L541.35-51.62L551.34-55.61L551.34-55.61Q552.45-54.39 553.56-52.61L553.56-52.61L553.56-52.61Q554.45-51.06 555.33-48.78L555.33-48.78L555.33-48.78Q556.22-46.51 556.78-43.62L556.78-43.62L556.78-43.62Q559.66-50.28 565.10-53.22L565.10-53.22L565.10-53.22Q570.54-56.17 576.53-56.17L576.53-56.17L576.53-56.17Q585.08-56.17 588.91-51.00L588.91-51.00L588.91-51.00Q592.74-45.84 592.74-37.07L592.74-37.07L592.74 0ZM600.62-46.29L600.62-55.28L610.61-55.28L612.83-68.27L623.26-70.60L623.26-55.28L636.92-55.28L635.36-46.29L623.26-46.29L623.26-13.43L623.26-13.43Q623.26-10.54 624.82-9.71L624.82-9.71L624.82-9.71Q626.37-8.88 628.26-8.88L628.26-8.88L628.26-8.88Q629.81-8.88 631.37-9.10L631.37-9.10L631.37-9.10Q632.92-9.32 634.14-9.66L634.14-9.66L634.14-9.66Q635.59-9.99 636.92-10.43L636.92-10.43L639.03-2.11L638.03-1.78L638.03-1.78Q637.03-1.33 635.09-0.83L635.09-0.83L635.09-0.83Q633.14-0.33 630.54 0.06L630.54 0.06L630.54 0.06Q627.93 0.44 624.82 0.44L624.82 0.44L624.82 0.44Q621.71 0.44 619.10-0.22L619.10-0.22L619.10-0.22Q616.49-0.89 614.61-2.39L614.61-2.39L614.61-2.39Q612.72-3.89 611.67-6.22L611.67-6.22L611.67-6.22Q610.61-8.55 610.61-11.99L610.61-11.99L610.61-46.29L600.62-46.29ZM641.80-26.31L641.80-26.31Q641.80-33.74 643.86-39.41L643.86-39.41L643.86-39.41Q645.91-45.07 649.52-48.90L649.52-48.90L649.52-48.90Q653.12-52.73 658.01-54.67L658.01-54.67L658.01-54.67Q662.89-56.61 668.55-56.61L668.55-56.61L668.55-56.61Q673.55-56.61 677.04-55.39L677.04-55.39L677.04-55.39Q680.54-54.17 682.76-52.06L682.76-52.06L682.76-52.06Q684.98-49.95 686.04-47.06L686.04-47.06L686.04-47.06Q687.09-44.18 687.09-40.85L687.09-40.85L687.09-40.85Q687.09-36.85 684.87-33.24L684.87-33.24L684.87-33.24Q682.65-29.64 678.49-26.92L678.49-26.92L678.49-26.92Q674.33-24.20 668.44-22.59L668.44-22.59L668.44-22.59Q662.56-20.98 655.23-20.87L655.23-20.87L655.23-20.87Q655.57-18.32 656.29-16.04L656.29-16.04L656.29-16.04Q657.01-13.76 658.40-12.04L658.40-12.04L658.40-12.04Q659.78-10.32 662.00-9.32L662.00-9.32L662.00-9.32Q664.22-8.32 667.55-8.32L667.55-8.32L667.55-8.32Q670.00-8.32 672.77-8.88L672.77-8.88L672.77-8.88Q675.55-9.44 677.88-10.21L677.88-10.21L677.88-10.21Q680.65-11.10 683.32-12.21L683.32-12.21L686.65-4.33L686.65-4.33Q683.76-2.89 680.43-1.78L680.43-1.78L680.43-1.78Q677.54-0.78 673.77 0L673.77 0L673.77 0Q670.00 0.78 665.78 0.78L665.78 0.78L665.78 0.78Q659.34 0.78 654.79-1.17L654.79-1.17L654.79-1.17Q650.24-3.11 647.35-6.66L647.35-6.66L647.35-6.66Q644.47-10.21 643.13-15.21L643.13-15.21L643.13-15.21Q641.80-20.20 641.80-26.31L641.80-26.31ZM667.55-47.95L667.55-47.95Q663.89-47.95 661.50-46.23L661.50-46.23L661.50-46.23Q659.12-44.51 657.68-41.79L657.68-41.79L657.68-41.79Q656.23-39.07 655.62-35.69L655.62-35.69L655.62-35.69Q655.01-32.30 654.90-28.86L654.90-28.86L654.90-28.86Q660.23-29.08 663.95-30.25L663.95-30.25L663.95-30.25Q667.67-31.41 670.00-33.13L670.00-33.13L670.00-33.13Q672.33-34.85 673.38-36.85L673.38-36.85L673.38-36.85Q674.44-38.85 674.44-40.85L674.44-40.85L674.44-40.85Q674.44-44.07 672.55-46.01L672.55-46.01L672.55-46.01Q670.66-47.95 667.55-47.95L667.55-47.95ZM709.40 0.44L709.40 0.44Q703.07 0.44 700.08-3.05L700.08-3.05L700.08-3.05Q697.08-6.55 697.08-11.99L697.08-11.99L697.08-78.25L709.73-80.59L709.73-13.21L709.73-13.21Q709.73-10.66 710.73-9.66L710.73-9.66L710.73-9.66Q711.73-8.66 713.62-8.66L713.62-8.66L713.62-8.66Q714.73-8.66 715.78-8.77L715.78-8.77L715.78-8.77Q716.84-8.88 717.73-9.10L717.73-9.10L717.73-9.10Q718.73-9.32 719.50-9.55L719.50-9.55L721.06-1.55L721.06-1.55Q719.61-1.00 717.84-0.56L717.84-0.56L717.84-0.56Q716.28-0.11 714.17 0.17L714.17 0.17L714.17 0.17Q712.07 0.44 709.40 0.44L709.40 0.44ZM741.70 0.44L741.70 0.44Q735.38 0.44 732.38-3.05L732.38-3.05L732.38-3.05Q729.38-6.55 729.38-11.99L729.38-11.99L729.38-78.25L742.04-80.59L742.04-13.21L742.04-13.21Q742.04-10.66 743.03-9.66L743.03-9.66L743.03-9.66Q744.03-8.66 745.92-8.66L745.92-8.66L745.92-8.66Q747.03-8.66 748.08-8.77L748.08-8.77L748.08-8.77Q749.14-8.88 750.03-9.10L750.03-9.10L750.03-9.10Q751.03-9.32 751.80-9.55L751.80-9.55L753.36-1.55L753.36-1.55Q751.91-1.00 750.14-0.56L750.14-0.56L750.14-0.56Q748.58-0.11 746.48 0.17L746.48 0.17L746.48 0.17Q744.37 0.44 741.70 0.44L741.70 0.44ZM773.89 0.44L773.89 0.44Q768.01 0.44 764.90-3.05L764.90-3.05L764.90-3.05Q761.79-6.55 761.79-12.10L761.79-12.10L761.79-55.28L774.45-55.28L774.45-13.21L774.45-13.21Q774.45-10.66 775.22-9.77L775.22-9.77L775.22-9.77Q776.00-8.88 777.56-8.88L777.56-8.88L777.56-8.88Q778.00-8.88 778.50-8.88L778.50-8.88L778.50-8.88Q779.00-8.88 779.44-8.99L779.44-8.99L779.44-8.99Q779.89-8.99 780.44-9.10L780.44-9.10L781.77-1.11L781.77-1.11Q781.00-0.67 779.78-0.33L779.78-0.33L779.78-0.33Q778.78 0 777.28 0.22L777.28 0.22L777.28 0.22Q775.78 0.44 773.89 0.44L773.89 0.44ZM768.34-79.92L768.34-79.92Q771.89-79.92 773.78-77.81L773.78-77.81L773.78-77.81Q775.67-75.70 775.67-72.37L775.67-72.37L775.67-72.37Q775.67-69.04 773.73-66.82L773.73-66.82L773.73-66.82Q771.78-64.60 768.01-64.60L768.01-64.60L768.01-64.60Q764.46-64.60 762.51-66.77L762.51-66.77L762.51-66.77Q760.57-68.93 760.57-72.04L760.57-72.04L760.57-72.04Q760.57-75.48 762.51-77.70L762.51-77.70L762.51-77.70Q764.46-79.92 768.34-79.92L768.34-79.92ZM795.87 19.43L798.98 9.77L798.98 9.77Q800.64 10.43 802.53 11.16L802.53 11.16L802.53 11.16Q804.42 11.88 806.53 12.54L806.53 12.54L806.53 12.54Q808.64 13.21 810.80 13.65L810.80 13.65L810.80 13.65Q812.96 14.10 815.07 14.10L815.07 14.10L815.07 14.10Q821.29 14.10 824.06 10.38L824.06 10.38L824.06 10.38Q826.84 6.66 826.84 0.78L826.84 0.78L826.84 0.78Q826.84-5.00 824.40-10.88L824.40-10.88L824.40-10.88Q822.51-5.22 818.46-2.28L818.46-2.28L818.46-2.28Q814.41 0.67 807.75 0.67L807.75 0.67L807.75 0.67Q802.53 0.67 798.70-1.28L798.70-1.28L798.70-1.28Q794.87-3.22 792.32-6.83L792.32-6.83L792.32-6.83Q789.77-10.43 788.54-15.54L788.54-15.54L788.54-15.54Q787.32-20.65 787.32-26.86L787.32-26.86L787.32-26.86Q787.32-33.19 789.27-38.57L789.27-38.57L789.27-38.57Q791.21-43.96 794.70-47.84L794.70-47.84L794.70-47.84Q798.20-51.73 803.09-53.95L803.09-53.95L803.09-53.95Q807.97-56.17 813.85-56.17L813.85-56.17L813.85-56.17Q816.52-56.17 819.57-55.83L819.57-55.83L819.57-55.83Q822.62-55.50 825.56-55.00L825.56-55.00L825.56-55.00Q828.50-54.50 831.11-53.95L831.11-53.95L831.11-53.95Q833.72-53.39 835.61-52.95L835.61-52.95L835.05-22.42L835.05-22.42Q834.94-19.09 835.44-16.32L835.44-16.32L835.44-16.32Q835.94-13.54 836.61-10.82L836.61-10.82L836.61-10.82Q837.27-8.10 837.83-5.33L837.83-5.33L837.83-5.33Q838.38-2.55 838.38 0.78L838.38 0.78L838.38 0.78Q838.38 12.54 832.39 18.32L832.39 18.32L832.39 18.32Q826.40 24.09 816.18 24.09L816.18 24.09L816.18 24.09Q812.85 24.09 809.52 23.48L809.52 23.48L809.52 23.48Q806.19 22.87 803.36 22.09L803.36 22.09L803.36 22.09Q800.53 21.31 798.53 20.54L798.53 20.54L798.53 20.54Q796.54 19.76 795.87 19.43L795.87 19.43ZM809.86-8.21L809.86-8.21Q812.52-8.21 814.80-9.99L814.80-9.99L814.80-9.99Q817.07-11.77 818.85-14.71L818.85-14.71L818.85-14.71Q820.62-17.65 821.62-21.42L821.62-21.42L821.62-21.42Q822.62-25.20 822.62-29.19L822.62-29.19L822.62-46.06L822.62-46.06Q821.51-46.40 819.29-46.84L819.29-46.84L819.29-46.84Q817.07-47.29 815.30-47.29L815.30-47.29L815.30-47.29Q811.08-47.29 808.36-45.84L808.36-45.84L808.36-45.84Q805.64-44.40 803.97-41.85L803.97-41.85L803.97-41.85Q802.31-39.29 801.64-35.74L801.64-35.74L801.64-35.74Q800.98-32.19 800.98-27.97L800.98-27.97L800.98-27.97Q800.98-24.09 801.20-20.54L801.20-20.54L801.20-20.54Q801.42-16.98 802.36-14.21L802.36-14.21L802.36-14.21Q803.31-11.43 805.08-9.82L805.08-9.82L805.08-9.82Q806.86-8.21 809.86-8.21L809.86-8.21ZM846.26-26.31L846.26-26.31Q846.26-33.74 848.32-39.41L848.32-39.41L848.32-39.41Q850.37-45.07 853.98-48.90L853.98-48.90L853.98-48.90Q857.59-52.73 862.47-54.67L862.47-54.67L862.47-54.67Q867.35-56.61 873.02-56.61L873.02-56.61L873.02-56.61Q878.01-56.61 881.51-55.39L881.51-55.39L881.51-55.39Q885.00-54.17 887.22-52.06L887.22-52.06L887.22-52.06Q889.44-49.95 890.50-47.06L890.50-47.06L890.50-47.06Q891.55-44.18 891.55-40.85L891.55-40.85L891.55-40.85Q891.55-36.85 889.33-33.24L889.33-33.24L889.33-33.24Q887.11-29.64 882.95-26.92L882.95-26.92L882.95-26.92Q878.79-24.20 872.90-22.59L872.90-22.59L872.90-22.59Q867.02-20.98 859.70-20.87L859.70-20.87L859.70-20.87Q860.03-18.32 860.75-16.04L860.75-16.04L860.75-16.04Q861.47-13.76 862.86-12.04L862.86-12.04L862.86-12.04Q864.25-10.32 866.47-9.32L866.47-9.32L866.47-9.32Q868.69-8.32 872.02-8.32L872.02-8.32L872.02-8.32Q874.46-8.32 877.23-8.88L877.23-8.88L877.23-8.88Q880.01-9.44 882.34-10.21L882.34-10.21L882.34-10.21Q885.11-11.10 887.78-12.21L887.78-12.21L891.11-4.33L891.11-4.33Q888.22-2.89 884.89-1.78L884.89-1.78L884.89-1.78Q882.01-0.78 878.23 0L878.23 0L878.23 0Q874.46 0.78 870.24 0.78L870.24 0.78L870.24 0.78Q863.80 0.78 859.25-1.17L859.25-1.17L859.25-1.17Q854.70-3.11 851.81-6.66L851.81-6.66L851.81-6.66Q848.93-10.21 847.60-15.21L847.60-15.21L847.60-15.21Q846.26-20.20 846.26-26.31L846.26-26.31ZM872.02-47.95L872.02-47.95Q868.35-47.95 865.97-46.23L865.97-46.23L865.97-46.23Q863.58-44.51 862.14-41.79L862.14-41.79L862.14-41.79Q860.69-39.07 860.08-35.69L860.08-35.69L860.08-35.69Q859.47-32.30 859.36-28.86L859.36-28.86L859.36-28.86Q864.69-29.08 868.41-30.25L868.41-30.25L868.41-30.25Q872.13-31.41 874.46-33.13L874.46-33.13L874.46-33.13Q876.79-34.85 877.84-36.85L877.84-36.85L877.84-36.85Q878.90-38.85 878.90-40.85L878.90-40.85L878.90-40.85Q878.90-44.07 877.01-46.01L877.01-46.01L877.01-46.01Q875.12-47.95 872.02-47.95L872.02-47.95ZM949.05 0L936.51 0L936.51-35.85L936.51-35.85Q936.51-40.52 934.84-43.35L934.84-43.35L934.84-43.35Q933.18-46.18 929.18-46.18L929.18-46.18L929.18-46.18Q926.63-46.18 924.24-44.90L924.24-44.90L924.24-44.90Q921.86-43.62 919.97-41.18L919.97-41.18L919.97-41.18Q918.08-38.74 916.92-35.24L916.92-35.24L916.92-35.24Q915.75-31.75 915.75-27.42L915.75-27.42L915.75 0L903.10 0L903.10-27.97L903.10-27.97Q903.10-34.63 902.21-39.13L902.21-39.13L902.21-39.13Q901.32-43.62 900.32-46.40L900.32-46.40L900.32-46.40Q899.10-49.62 897.66-51.62L897.66-51.62L907.65-55.61L907.65-55.61Q908.76-54.39 909.87-52.61L909.87-52.61L909.87-52.61Q910.76-51.06 911.64-48.78L911.64-48.78L911.64-48.78Q912.53-46.51 913.09-43.62L913.09-43.62L913.09-43.62Q915.97-50.28 921.41-53.22L921.41-53.22L921.41-53.22Q926.85-56.17 932.84-56.17L932.84-56.17L932.84-56.17Q941.39-56.17 945.22-51.00L945.22-51.00L945.22-51.00Q949.05-45.84 949.05-37.07L949.05-37.07L949.05 0ZM1000.11-49.06L993.01-42.29L993.01-42.29Q991.34-44.18 989.62-45.51L989.62-45.51L989.62-45.51Q987.90-46.84 985.01-46.84L985.01-46.84L985.01-46.84Q983.35-46.84 981.30-46.34L981.30-46.34L981.30-46.34Q979.24-45.84 977.47-43.90L977.47-43.90L977.47-43.90Q975.69-41.96 974.52-38.18L974.52-38.18L974.52-38.18Q973.36-34.41 973.36-27.97L973.36-27.97L973.36-27.97Q973.36-21.42 974.52-17.59L974.52-17.59L974.52-17.59Q975.69-13.76 977.52-11.65L977.52-11.65L977.52-11.65Q979.35-9.55 981.46-8.94L981.46-8.94L981.46-8.94Q983.57-8.32 985.57-8.32L985.57-8.32L985.57-8.32Q987.12-8.32 988.79-8.60L988.79-8.60L988.79-8.60Q990.45-8.88 992.01-9.27L992.01-9.27L992.01-9.27Q993.56-9.66 994.73-9.99L994.73-9.99L994.73-9.99Q995.89-10.32 996.45-10.54L996.45-10.54L999.56-2.55L999.56-2.55Q999.22-2.44 998.06-1.89L998.06-1.89L998.06-1.89Q996.89-1.33 994.89-0.78L994.89-0.78L994.89-0.78Q992.90-0.22 990.12 0.28L990.12 0.28L990.12 0.28Q987.35 0.78 983.90 0.78L983.90 0.78L983.90 0.78Q977.47 0.78 972.92-1.17L972.92-1.17L972.92-1.17Q968.36-3.11 965.42-6.66L965.42-6.66L965.42-6.66Q962.48-10.21 961.09-15.21L961.09-15.21L961.09-15.21Q959.71-20.20 959.71-26.31L959.71-26.31L959.71-26.31Q959.71-33.63 961.65-39.29L961.65-39.29L961.65-39.29Q963.59-44.95 967.03-48.78L967.03-48.78L967.03-48.78Q970.47-52.61 975.14-54.61L975.14-54.61L975.14-54.61Q979.80-56.61 985.13-56.61L985.13-56.61L985.13-56.61Q990.34-56.61 993.95-54.61L993.95-54.61L993.95-54.61Q997.56-52.61 1000.11-49.06L1000.11-49.06ZM1004.11-26.31L1004.11-26.31Q1004.11-33.74 1006.16-39.41L1006.16-39.41L1006.16-39.41Q1008.21-45.07 1011.82-48.90L1011.82-48.90L1011.82-48.90Q1015.43-52.73 1020.31-54.67L1020.31-54.67L1020.31-54.67Q1025.20-56.61 1030.86-56.61L1030.86-56.61L1030.86-56.61Q1035.85-56.61 1039.35-55.39L1039.35-55.39L1039.35-55.39Q1042.85-54.17 1045.07-52.06L1045.07-52.06L1045.07-52.06Q1047.29-49.95 1048.34-47.06L1048.34-47.06L1048.34-47.06Q1049.39-44.18 1049.39-40.85L1049.39-40.85L1049.39-40.85Q1049.39-36.85 1047.17-33.24L1047.17-33.24L1047.17-33.24Q1044.95-29.64 1040.79-26.92L1040.79-26.92L1040.79-26.92Q1036.63-24.20 1030.75-22.59L1030.75-22.59L1030.75-22.59Q1024.86-20.98 1017.54-20.87L1017.54-20.87L1017.54-20.87Q1017.87-18.32 1018.59-16.04L1018.59-16.04L1018.59-16.04Q1019.31-13.76 1020.70-12.04L1020.70-12.04L1020.70-12.04Q1022.09-10.32 1024.31-9.32L1024.31-9.32L1024.31-9.32Q1026.53-8.32 1029.86-8.32L1029.86-8.32L1029.86-8.32Q1032.30-8.32 1035.08-8.88L1035.08-8.88L1035.08-8.88Q1037.85-9.44 1040.18-10.21L1040.18-10.21L1040.18-10.21Q1042.96-11.10 1045.62-12.21L1045.62-12.21L1048.95-4.33L1048.95-4.33Q1046.06-2.89 1042.73-1.78L1042.73-1.78L1042.73-1.78Q1039.85-0.78 1036.07 0L1036.07 0L1036.07 0Q1032.30 0.78 1028.08 0.78L1028.08 0.78L1028.08 0.78Q1021.64 0.78 1017.09-1.17L1017.09-1.17L1017.09-1.17Q1012.54-3.11 1009.66-6.66L1009.66-6.66L1009.66-6.66Q1006.77-10.21 1005.44-15.21L1005.44-15.21L1005.44-15.21Q1004.11-20.20 1004.11-26.31L1004.11-26.31ZM1029.86-47.95L1029.86-47.95Q1026.20-47.95 1023.81-46.23L1023.81-46.23L1023.81-46.23Q1021.42-44.51 1019.98-41.79L1019.98-41.79L1019.98-41.79Q1018.54-39.07 1017.93-35.69L1017.93-35.69L1017.93-35.69Q1017.32-32.30 1017.20-28.86L1017.20-28.86L1017.20-28.86Q1022.53-29.08 1026.25-30.25L1026.25-30.25L1026.25-30.25Q1029.97-31.41 1032.30-33.13L1032.30-33.13L1032.30-33.13Q1034.63-34.85 1035.69-36.85L1035.69-36.85L1035.69-36.85Q1036.74-38.85 1036.74-40.85L1036.74-40.85L1036.74-40.85Q1036.74-44.07 1034.85-46.01L1034.85-46.01L1034.85-46.01Q1032.97-47.95 1029.86-47.95L1029.86-47.95Z" fill="#c887ff"></path></g></g><style>text {
  font-size: 64px;
  font-family: Arial Black;
  dominant-baseline: central;
  text-anchor: middle;
}</style></svg>