<svg width="600.7549926757812px" height="202.4px" xmlns="http://www.w3.org/2000/svg" viewBox="-50.37749633789059 -26.200000000000003 600.7549926757812 202.4" style="background: rgb(21, 21, 21);" preserveAspectRatio="xMidYMid"><defs><filter id="editing-hover" x="-100%" y="-100%" width="300%" height="300%"><feFlood flood-color="#000000" result="flood"></feFlood><feComposite operator="in" in2="SourceAlpha" in="flood" result="shadow"></feComposite><feOffset dx="-4" dy="-4" in="SourceGraphic" result="offset-1"></feOffset><feOffset dx="4" dy="4" in="shadow" result="offset-2"></feOffset><feMerge><feMergeNode in="offset-2"></feMergeNode><feMergeNode in="offset-1"></feMergeNode></feMerge></filter></defs><g filter="url(#editing-hover)"><g transform="translate(33.33001756668091, 127.27999830245972)"><path d="M7.77 0L7.77-75.15L52.39-75.15L52.39-65.16L20.98-65.16L20.98-44.18L46.84-44.18L45.18-34.08L20.98-34.08L20.98-9.99L54.06-9.99L54.06 0L7.77 0ZM58.05-46.29L58.05-55.28L68.04-55.28L70.26-68.27L80.70-70.60L80.70-55.28L94.35-55.28L92.80-46.29L80.70-46.29L80.70-13.43L80.70-13.43Q80.70-10.54 82.25-9.71L82.25-9.71L82.25-9.71Q83.81-8.88 85.69-8.88L85.69-8.88L85.69-8.88Q87.25-8.88 88.80-9.10L88.80-9.10L88.80-9.10Q90.35-9.32 91.57-9.66L91.57-9.66L91.57-9.66Q93.02-9.99 94.35-10.43L94.35-10.43L96.46-2.11L95.46-1.78L95.46-1.78Q94.46-1.33 92.52-0.83L92.52-0.83L92.52-0.83Q90.58-0.33 87.97 0.06L87.97 0.06L87.97 0.06Q85.36 0.44 82.25 0.44L82.25 0.44L82.25 0.44Q79.14 0.44 76.53-0.22L76.53-0.22L76.53-0.22Q73.93-0.89 72.04-2.39L72.04-2.39L72.04-2.39Q70.15-3.89 69.10-6.22L69.10-6.22L69.10-6.22Q68.04-8.55 68.04-11.99L68.04-11.99L68.04-46.29L58.05-46.29ZM115.88 0.44L115.88 0.44Q110.00 0.44 106.89-3.05L106.89-3.05L106.89-3.05Q103.78-6.55 103.78-12.10L103.78-12.10L103.78-55.28L116.44-55.28L116.44-13.21L116.44-13.21Q116.44-10.66 117.22-9.77L117.22-9.77L117.22-9.77Q117.99-8.88 119.55-8.88L119.55-8.88L119.55-8.88Q119.99-8.88 120.49-8.88L120.49-8.88L120.49-8.88Q120.99-8.88 121.43-8.99L121.43-8.99L121.43-8.99Q121.88-8.99 122.43-9.10L122.43-9.10L123.77-1.11L123.77-1.11Q122.99-0.67 121.77-0.33L121.77-0.33L121.77-0.33Q120.77 0 119.27 0.22L119.27 0.22L119.27 0.22Q117.77 0.44 115.88 0.44L115.88 0.44ZM110.33-79.92L110.33-79.92Q113.89-79.92 115.77-77.81L115.77-77.81L115.77-77.81Q117.66-75.70 117.66-72.37L117.66-72.37L117.66-72.37Q117.66-69.04 115.72-66.82L115.72-66.82L115.72-66.82Q113.77-64.60 110.00-64.60L110.00-64.60L110.00-64.60Q106.45-64.60 104.51-66.77L104.51-66.77L104.51-66.77Q102.56-68.93 102.56-72.04L102.56-72.04L102.56-72.04Q102.56-75.48 104.51-77.70L104.51-77.70L104.51-77.70Q106.45-79.92 110.33-79.92L110.33-79.92ZM177.27-52.95L177.27 24.64L164.61 22.31L164.61-6.88L164.61-6.88Q162.39-3.11 158.73-1.22L158.73-1.22L158.73-1.22Q155.07 0.67 149.74 0.67L149.74 0.67L149.74 0.67Q144.52 0.67 140.69-1.28L140.69-1.28L140.69-1.28Q136.86-3.22 134.31-6.83L134.31-6.83L134.31-6.83Q131.76-10.43 130.54-15.54L130.54-15.54L130.54-15.54Q129.31-20.65 129.31-26.86L129.31-26.86L129.31-26.86Q129.31-33.19 131.26-38.57L131.26-38.57L131.26-38.57Q133.20-43.96 136.70-47.84L136.70-47.84L136.70-47.84Q140.19-51.73 145.08-53.95L145.08-53.95L145.08-53.95Q149.96-56.17 155.84-56.17L155.84-56.17L155.84-56.17Q159.17-56.17 162.89-55.61L162.89-55.61L162.89-55.61Q166.61-55.06 169.83-54.50L169.83-54.50L169.83-54.50Q173.49-53.84 177.27-52.95L177.27-52.95ZM151.85-8.32L151.85-8.32Q154.51-8.32 156.84-10.16L156.84-10.16L156.84-10.16Q159.17-11.99 160.89-15.04L160.89-15.04L160.89-15.04Q162.62-18.09 163.61-22.03L163.61-22.03L163.61-22.03Q164.61-25.97 164.61-30.08L164.61-30.08L164.61-46.06L164.61-46.06Q163.50-46.40 161.28-46.84L161.28-46.84L161.28-46.84Q159.06-47.29 157.29-47.29L157.29-47.29L157.29-47.29Q153.07-47.29 150.35-45.84L150.35-45.84L150.35-45.84Q147.63-44.40 145.97-41.85L145.97-41.85L145.97-41.85Q144.30-39.29 143.63-35.74L143.63-35.74L143.63-35.74Q142.97-32.19 142.97-27.97L142.97-27.97L142.97-27.97Q142.97-24.09 143.19-20.54L143.19-20.54L143.19-20.54Q143.41-16.98 144.36-14.26L144.36-14.26L144.36-14.26Q145.30-11.54 147.07-9.93L147.07-9.93L147.07-9.93Q148.85-8.32 151.85-8.32L151.85-8.32ZM224.55-28.19L224.55-55.28L237.21-55.28L237.21-26.75L237.21-26.75Q237.21-20.09 238.04-15.60L238.04-15.60L238.04-15.60Q238.87-11.10 239.87-8.32L239.87-8.32L239.87-8.32Q241.09-5.00 242.53-3.11L242.53-3.11L232.66 0.89L232.66 0.89Q231.32-0.33 230.21-2.22L230.21-2.22L230.21-2.22Q229.33-3.77 228.38-6.05L228.38-6.05L228.38-6.05Q227.44-8.32 227.11-11.43L227.11-11.43L227.11-11.43Q224.11-4.88 218.67-2.11L218.67-2.11L218.67-2.11Q213.23 0.67 207.35 0.67L207.35 0.67L207.35 0.67Q198.58 0.67 194.86-4.44L194.86-4.44L194.86-4.44Q191.14-9.55 191.14-18.43L191.14-18.43L191.14-55.28L203.80-55.28L203.80-18.65L203.80-18.65Q203.80-13.99 205.46-11.32L205.46-11.32L205.46-11.32Q207.13-8.66 211.12-8.66L211.12-8.66L211.12-8.66Q213.56-8.66 215.95-10.05L215.95-10.05L215.95-10.05Q218.34-11.43 220.28-13.99L220.28-13.99L220.28-13.99Q222.22-16.54 223.39-20.15L223.39-20.15L223.39-20.15Q224.55-23.75 224.55-28.19L224.55-28.19ZM249.31-26.31L249.31-26.31Q249.31-33.74 251.36-39.41L251.36-39.41L251.36-39.41Q253.41-45.07 257.02-48.90L257.02-48.90L257.02-48.90Q260.63-52.73 265.51-54.67L265.51-54.67L265.51-54.67Q270.40-56.61 276.06-56.61L276.06-56.61L276.06-56.61Q281.05-56.61 284.55-55.39L284.55-55.39L284.55-55.39Q288.05-54.17 290.26-52.06L290.26-52.06L290.26-52.06Q292.49-49.95 293.54-47.06L293.54-47.06L293.54-47.06Q294.59-44.18 294.59-40.85L294.59-40.85L294.59-40.85Q294.59-36.85 292.37-33.24L292.37-33.24L292.37-33.24Q290.15-29.64 285.99-26.92L285.99-26.92L285.99-26.92Q281.83-24.20 275.95-22.59L275.95-22.59L275.95-22.59Q270.06-20.98 262.74-20.87L262.74-20.87L262.74-20.87Q263.07-18.32 263.79-16.04L263.79-16.04L263.79-16.04Q264.51-13.76 265.90-12.04L265.90-12.04L265.90-12.04Q267.29-10.32 269.51-9.32L269.51-9.32L269.51-9.32Q271.73-8.32 275.06-8.32L275.06-8.32L275.06-8.32Q277.50-8.32 280.27-8.88L280.27-8.88L280.27-8.88Q283.05-9.44 285.38-10.21L285.38-10.21L285.38-10.21Q288.16-11.10 290.82-12.21L290.82-12.21L294.15-4.33L294.15-4.33Q291.26-2.89 287.93-1.78L287.93-1.78L287.93-1.78Q285.05-0.78 281.27 0L281.27 0L281.27 0Q277.50 0.78 273.28 0.78L273.28 0.78L273.28 0.78Q266.84 0.78 262.29-1.17L262.29-1.17L262.29-1.17Q257.74-3.11 254.86-6.66L254.86-6.66L254.86-6.66Q251.97-10.21 250.64-15.21L250.64-15.21L250.64-15.21Q249.31-20.20 249.31-26.31L249.31-26.31ZM275.06-47.95L275.06-47.95Q271.39-47.95 269.01-46.23L269.01-46.23L269.01-46.23Q266.62-44.51 265.18-41.79L265.18-41.79L265.18-41.79Q263.74-39.07 263.13-35.69L263.13-35.69L263.13-35.69Q262.51-32.30 262.40-28.86L262.40-28.86L262.40-28.86Q267.73-29.08 271.45-30.25L271.45-30.25L271.45-30.25Q275.17-31.41 277.50-33.13L277.50-33.13L277.50-33.13Q279.83-34.85 280.89-36.85L280.89-36.85L280.89-36.85Q281.94-38.85 281.94-40.85L281.94-40.85L281.94-40.85Q281.94-44.07 280.05-46.01L280.05-46.01L280.05-46.01Q278.17-47.95 275.06-47.95L275.06-47.95ZM299.03-46.29L299.03-55.28L309.02-55.28L311.24-68.27L321.68-70.60L321.68-55.28L335.33-55.28L333.78-46.29L321.68-46.29L321.68-13.43L321.68-13.43Q321.68-10.54 323.23-9.71L323.23-9.71L323.23-9.71Q324.79-8.88 326.67-8.88L326.67-8.88L326.67-8.88Q328.23-8.88 329.78-9.10L329.78-9.10L329.78-9.10Q331.33-9.32 332.56-9.66L332.56-9.66L332.56-9.66Q334.00-9.99 335.33-10.43L335.33-10.43L337.44-2.11L336.44-1.78L336.44-1.78Q335.44-1.33 333.50-0.83L333.50-0.83L333.50-0.83Q331.56-0.33 328.95 0.06L328.95 0.06L328.95 0.06Q326.34 0.44 323.23 0.44L323.23 0.44L323.23 0.44Q320.12 0.44 317.52-0.22L317.52-0.22L317.52-0.22Q314.91-0.89 313.02-2.39L313.02-2.39L313.02-2.39Q311.13-3.89 310.08-6.22L310.08-6.22L310.08-6.22Q309.02-8.55 309.02-11.99L309.02-11.99L309.02-46.29L299.03-46.29ZM339.11-46.29L339.11-55.28L349.10-55.28L351.31-68.27L361.75-70.60L361.75-55.28L375.40-55.28L373.85-46.29L361.75-46.29L361.75-13.43L361.75-13.43Q361.75-10.54 363.30-9.71L363.30-9.71L363.30-9.71Q364.86-8.88 366.74-8.88L366.74-8.88L366.74-8.88Q368.30-8.88 369.85-9.10L369.85-9.10L369.85-9.10Q371.41-9.32 372.63-9.66L372.63-9.66L372.63-9.66Q374.07-9.99 375.40-10.43L375.40-10.43L377.51-2.11L376.51-1.78L376.51-1.78Q375.51-1.33 373.57-0.83L373.57-0.83L373.57-0.83Q371.63-0.33 369.02 0.06L369.02 0.06L369.02 0.06Q366.41 0.44 363.30 0.44L363.30 0.44L363.30 0.44Q360.19 0.44 357.59-0.22L357.59-0.22L357.59-0.22Q354.98-0.89 353.09-2.39L353.09-2.39L353.09-2.39Q351.20-3.89 350.15-6.22L350.15-6.22L350.15-6.22Q349.10-8.55 349.10-11.99L349.10-11.99L349.10-46.29L339.11-46.29ZM380.29-26.31L380.29-26.31Q380.29-33.74 382.34-39.41L382.34-39.41L382.34-39.41Q384.39-45.07 388.00-48.90L388.00-48.90L388.00-48.90Q391.61-52.73 396.49-54.67L396.49-54.67L396.49-54.67Q401.38-56.61 407.04-56.61L407.04-56.61L407.04-56.61Q412.03-56.61 415.53-55.39L415.53-55.39L415.53-55.39Q419.03-54.17 421.25-52.06L421.25-52.06L421.25-52.06Q423.47-49.95 424.52-47.06L424.52-47.06L424.52-47.06Q425.57-44.18 425.57-40.85L425.57-40.85L425.57-40.85Q425.57-36.85 423.35-33.24L423.35-33.24L423.35-33.24Q421.13-29.64 416.97-26.92L416.97-26.92L416.97-26.92Q412.81-24.20 406.93-22.59L406.93-22.59L406.93-22.59Q401.04-20.98 393.72-20.87L393.72-20.87L393.72-20.87Q394.05-18.32 394.77-16.04L394.77-16.04L394.77-16.04Q395.49-13.76 396.88-12.04L396.88-12.04L396.88-12.04Q398.27-10.32 400.49-9.32L400.49-9.32L400.49-9.32Q402.71-8.32 406.04-8.32L406.04-8.32L406.04-8.32Q408.48-8.32 411.25-8.88L411.25-8.88L411.25-8.88Q414.03-9.44 416.36-10.21L416.36-10.21L416.36-10.21Q419.14-11.10 421.80-12.21L421.80-12.21L425.13-4.33L425.13-4.33Q422.24-2.89 418.91-1.78L418.91-1.78L418.91-1.78Q416.03-0.78 412.25 0L412.25 0L412.25 0Q408.48 0.78 404.26 0.78L404.26 0.78L404.26 0.78Q397.82 0.78 393.27-1.17L393.27-1.17L393.27-1.17Q388.72-3.11 385.84-6.66L385.84-6.66L385.84-6.66Q382.95-10.21 381.62-15.21L381.62-15.21L381.62-15.21Q380.29-20.20 380.29-26.31L380.29-26.31ZM406.04-47.95L406.04-47.95Q402.38-47.95 399.99-46.23L399.99-46.23L399.99-46.23Q397.60-44.51 396.16-41.79L396.16-41.79L396.16-41.79Q394.72-39.07 394.11-35.69L394.11-35.69L394.11-35.69Q393.50-32.30 393.38-28.86L393.38-28.86L393.38-28.86Q398.71-29.08 402.43-30.25L402.43-30.25L402.43-30.25Q406.15-31.41 408.48-33.13L408.48-33.13L408.48-33.13Q410.81-34.85 411.87-36.85L411.87-36.85L411.87-36.85Q412.92-38.85 412.92-40.85L412.92-40.85L412.92-40.85Q412.92-44.07 411.03-46.01L411.03-46.01L411.03-46.01Q409.15-47.95 406.04-47.95L406.04-47.95Z" fill="#c887ff"></path></g></g><style>text {
  font-size: 64px;
  font-family: Arial Black;
  dominant-baseline: central;
  text-anchor: middle;
}</style></svg>