<svg width="1006.6851318359375px" height="202.4px" xmlns="http://www.w3.org/2000/svg" viewBox="-253.34256591796873 -26.200000000000003 1006.6851318359375 202.4" style="background: rgb(21, 21, 21);" preserveAspectRatio="xMidYMid"><defs><filter id="editing-hover" x="-100%" y="-100%" width="300%" height="300%"><feFlood flood-color="#000000" result="flood"></feFlood><feComposite operator="in" in2="SourceAlpha" in="flood" result="shadow"></feComposite><feOffset dx="-4" dy="-4" in="SourceGraphic" result="offset-1"></feOffset><feOffset dx="4" dy="4" in="shadow" result="offset-2"></feOffset><feMerge><feMergeNode in="offset-2"></feMergeNode><feMergeNode in="offset-1"></feMergeNode></feMerge></filter></defs><g filter="url(#editing-hover)"><g transform="translate(-114.63497495651245, 115.8500018119812)"><path d="M7.77 0L7.77-75.15L20.98-75.15L20.98 0L7.77 0ZM82.25 0L69.71 0L69.71-35.85L69.71-35.85Q69.71-40.52 68.04-43.35L68.04-43.35L68.04-43.35Q66.38-46.18 62.38-46.18L62.38-46.18L62.38-46.18Q59.83-46.18 57.44-44.90L57.44-44.90L57.44-44.90Q55.06-43.62 53.17-41.18L53.17-41.18L53.17-41.18Q51.28-38.74 50.12-35.24L50.12-35.24L50.12-35.24Q48.95-31.75 48.95-27.42L48.95-27.42L48.95 0L36.30 0L36.30-27.97L36.30-27.97Q36.30-34.63 35.41-39.13L35.41-39.13L35.41-39.13Q34.52-43.62 33.52-46.40L33.52-46.40L33.52-46.40Q32.30-49.62 30.86-51.62L30.86-51.62L40.85-55.61L40.85-55.61Q41.96-54.39 43.07-52.61L43.07-52.61L43.07-52.61Q43.96-51.06 44.84-48.78L44.84-48.78L44.84-48.78Q45.73-46.51 46.29-43.62L46.29-43.62L46.29-43.62Q49.17-50.28 54.61-53.22L54.61-53.22L54.61-53.22Q60.05-56.17 66.05-56.17L66.05-56.17L66.05-56.17Q74.59-56.17 78.42-51.00L78.42-51.00L78.42-51.00Q82.25-45.84 82.25-37.07L82.25-37.07L82.25 0ZM90.13-46.29L90.13-55.28L100.12-55.28L102.34-68.27L112.78-70.60L112.78-55.28L126.43-55.28L124.88-46.29L112.78-46.29L112.78-13.43L112.78-13.43Q112.78-10.54 114.33-9.71L114.33-9.71L114.33-9.71Q115.88-8.88 117.77-8.88L117.77-8.88L117.77-8.88Q119.32-8.88 120.88-9.10L120.88-9.10L120.88-9.10Q122.43-9.32 123.65-9.66L123.65-9.66L123.65-9.66Q125.10-9.99 126.43-10.43L126.43-10.43L128.54-2.11L127.54-1.78L127.54-1.78Q126.54-1.33 124.60-0.83L124.60-0.83L124.60-0.83Q122.66-0.33 120.05 0.06L120.05 0.06L120.05 0.06Q117.44 0.44 114.33 0.44L114.33 0.44L114.33 0.44Q111.22 0.44 108.61-0.22L108.61-0.22L108.61-0.22Q106.00-0.89 104.12-2.39L104.12-2.39L104.12-2.39Q102.23-3.89 101.18-6.22L101.18-6.22L101.18-6.22Q100.12-8.55 100.12-11.99L100.12-11.99L100.12-46.29L90.13-46.29ZM131.31-26.31L131.31-26.31Q131.31-33.74 133.37-39.41L133.37-39.41L133.37-39.41Q135.42-45.07 139.03-48.90L139.03-48.90L139.03-48.90Q142.63-52.73 147.52-54.67L147.52-54.67L147.52-54.67Q152.40-56.61 158.06-56.61L158.06-56.61L158.06-56.61Q163.06-56.61 166.56-55.39L166.56-55.39L166.56-55.39Q170.05-54.17 172.27-52.06L172.27-52.06L172.27-52.06Q174.49-49.95 175.55-47.06L175.55-47.06L175.55-47.06Q176.60-44.18 176.60-40.85L176.60-40.85L176.60-40.85Q176.60-36.85 174.38-33.24L174.38-33.24L174.38-33.24Q172.16-29.64 168.00-26.92L168.00-26.92L168.00-26.92Q163.84-24.20 157.95-22.59L157.95-22.59L157.95-22.59Q152.07-20.98 144.74-20.87L144.74-20.87L144.74-20.87Q145.08-18.32 145.80-16.04L145.80-16.04L145.80-16.04Q146.52-13.76 147.91-12.04L147.91-12.04L147.91-12.04Q149.29-10.32 151.51-9.32L151.51-9.32L151.51-9.32Q153.73-8.32 157.06-8.32L157.06-8.32L157.06-8.32Q159.51-8.32 162.28-8.88L162.28-8.88L162.28-8.88Q165.06-9.44 167.39-10.21L167.39-10.21L167.39-10.21Q170.16-11.10 172.83-12.21L172.83-12.21L176.16-4.33L176.16-4.33Q173.27-2.89 169.94-1.78L169.94-1.78L169.94-1.78Q167.05-0.78 163.28 0L163.28 0L163.28 0Q159.51 0.78 155.29 0.78L155.29 0.78L155.29 0.78Q148.85 0.78 144.30-1.17L144.30-1.17L144.30-1.17Q139.75-3.11 136.86-6.66L136.86-6.66L136.86-6.66Q133.98-10.21 132.64-15.21L132.64-15.21L132.64-15.21Q131.31-20.20 131.31-26.31L131.31-26.31ZM157.06-47.95L157.06-47.95Q153.40-47.95 151.02-46.23L151.02-46.23L151.02-46.23Q148.63-44.51 147.19-41.79L147.19-41.79L147.19-41.79Q145.74-39.07 145.13-35.69L145.13-35.69L145.13-35.69Q144.52-32.30 144.41-28.86L144.41-28.86L144.41-28.86Q149.74-29.08 153.46-30.25L153.46-30.25L153.46-30.25Q157.18-31.41 159.51-33.13L159.51-33.13L159.51-33.13Q161.84-34.85 162.89-36.85L162.89-36.85L162.89-36.85Q163.95-38.85 163.95-40.85L163.95-40.85L163.95-40.85Q163.95-44.07 162.06-46.01L162.06-46.01L162.06-46.01Q160.17-47.95 157.06-47.95L157.06-47.95ZM211.90-43.73L211.90-43.73Q209.90-43.73 207.90-42.73L207.90-42.73L207.90-42.73Q205.90-41.74 204.35-40.02L204.35-40.02L204.35-40.02Q202.80-38.30 201.80-35.85L201.80-35.85L201.80-35.85Q200.80-33.41 200.80-30.41L200.80-30.41L200.80 0L188.14 0L188.14-27.97L188.14-27.97Q188.14-34.63 187.26-39.13L187.26-39.13L187.26-39.13Q186.37-43.62 185.37-46.40L185.37-46.40L185.37-46.40Q184.15-49.62 182.71-51.62L182.71-51.62L192.70-55.61L192.70-55.61Q193.69-54.39 194.80-52.61L194.80-52.61L194.80-52.61Q195.69-51.06 196.58-48.95L196.58-48.95L196.58-48.95Q197.47-46.84 198.02-43.96L198.02-43.96L198.02-43.96Q200.24-50.39 204.46-53.22L204.46-53.22L204.46-53.22Q208.68-56.05 214.01-56.05L214.01-56.05L214.01-56.05Q216.56-56.05 218.78-55.44L218.78-55.44L218.78-55.44Q221.00-54.83 220.89-54.83L220.89-54.83L217.34-42.51L217.34-42.51Q217.45-42.51 216.06-43.12L216.06-43.12L216.06-43.12Q214.67-43.73 211.90-43.73L211.90-43.73ZM260.07-55.28L272.95-55.28L273.17-54.39L273.17-54.39Q273.28-53.39 273.50-51.78L273.50-51.78L273.50-51.78Q273.73-50.17 273.89-48.12L273.89-48.12L273.89-48.12Q274.06-46.06 274.06-43.96L274.06-43.96L274.06-43.96Q274.06-31.64 272.23-23.14L272.23-23.14L272.23-23.14Q270.40-14.65 266.68-9.38L266.68-9.38L266.68-9.38Q262.96-4.11 257.24-1.78L257.24-1.78L257.24-1.78Q251.53 0.56 243.76 0.56L243.76 0.56L243.76 0.56Q234.99 0.56 231.27-4.50L231.27-4.50L231.27-4.50Q227.55-9.55 227.55-18.43L227.55-18.43L227.55-55.28L240.20-55.28L240.20-18.76L240.20-18.76Q240.20-14.10 241.87-11.21L241.87-11.21L241.87-11.21Q243.53-8.32 247.53-8.32L247.53-8.32L247.53-8.32Q251.53-8.32 254.19-11.32L254.19-11.32L254.19-11.32Q256.85-14.32 258.41-19.15L258.41-19.15L258.41-19.15Q259.96-23.98 260.63-30.14L260.63-30.14L260.63-30.14Q261.29-36.30 261.29-42.62L261.29-42.62L261.29-42.62Q261.29-44.95 261.13-47.23L261.13-47.23L261.13-47.23Q260.96-49.51 260.68-51.28L260.68-51.28L260.68-51.28Q260.41-53.06 260.29-54.17L260.29-54.17L260.07-55.28ZM297.92 0.44L297.92 0.44Q292.04 0.44 288.93-3.05L288.93-3.05L288.93-3.05Q285.82-6.55 285.82-12.10L285.82-12.10L285.82-55.28L298.48-55.28L298.48-13.21L298.48-13.21Q298.48-10.66 299.26-9.77L299.26-9.77L299.26-9.77Q300.03-8.88 301.59-8.88L301.59-8.88L301.59-8.88Q302.03-8.88 302.53-8.88L302.53-8.88L302.53-8.88Q303.03-8.88 303.47-8.99L303.47-8.99L303.47-8.99Q303.92-8.99 304.47-9.10L304.47-9.10L305.80-1.11L305.80-1.11Q305.03-0.67 303.81-0.33L303.81-0.33L303.81-0.33Q302.81 0 301.31 0.22L301.31 0.22L301.31 0.22Q299.81 0.44 297.92 0.44L297.92 0.44ZM292.37-79.92L292.37-79.92Q295.93-79.92 297.81-77.81L297.81-77.81L297.81-77.81Q299.70-75.70 299.70-72.37L299.70-72.37L299.70-72.37Q299.70-69.04 297.76-66.82L297.76-66.82L297.76-66.82Q295.81-64.60 292.04-64.60L292.04-64.60L292.04-64.60Q288.49-64.60 286.55-66.77L286.55-66.77L286.55-66.77Q284.60-68.93 284.60-72.04L284.60-72.04L284.60-72.04Q284.60-75.48 286.55-77.70L286.55-77.70L286.55-77.70Q288.49-79.92 292.37-79.92L292.37-79.92ZM311.35-26.31L311.35-26.31Q311.35-33.74 313.41-39.41L313.41-39.41L313.41-39.41Q315.46-45.07 319.07-48.90L319.07-48.90L319.07-48.90Q322.68-52.73 327.56-54.67L327.56-54.67L327.56-54.67Q332.44-56.61 338.11-56.61L338.11-56.61L338.11-56.61Q343.10-56.61 346.60-55.39L346.60-55.39L346.60-55.39Q350.09-54.17 352.31-52.06L352.31-52.06L352.31-52.06Q354.53-49.95 355.59-47.06L355.59-47.06L355.59-47.06Q356.64-44.18 356.64-40.85L356.64-40.85L356.64-40.85Q356.64-36.85 354.42-33.24L354.42-33.24L354.42-33.24Q352.20-29.64 348.04-26.92L348.04-26.92L348.04-26.92Q343.88-24.20 337.99-22.59L337.99-22.59L337.99-22.59Q332.11-20.98 324.79-20.87L324.79-20.87L324.79-20.87Q325.12-18.32 325.84-16.04L325.84-16.04L325.84-16.04Q326.56-13.76 327.95-12.04L327.95-12.04L327.95-12.04Q329.34-10.32 331.56-9.32L331.56-9.32L331.56-9.32Q333.78-8.32 337.11-8.32L337.11-8.32L337.11-8.32Q339.55-8.32 342.32-8.88L342.32-8.88L342.32-8.88Q345.10-9.44 347.43-10.21L347.43-10.21L347.43-10.21Q350.20-11.10 352.87-12.21L352.87-12.21L356.20-4.33L356.20-4.33Q353.31-2.89 349.98-1.78L349.98-1.78L349.98-1.78Q347.10-0.78 343.32 0L343.32 0L343.32 0Q339.55 0.78 335.33 0.78L335.33 0.78L335.33 0.78Q328.89 0.78 324.34-1.17L324.34-1.17L324.34-1.17Q319.79-3.11 316.90-6.66L316.90-6.66L316.90-6.66Q314.02-10.21 312.69-15.21L312.69-15.21L312.69-15.21Q311.35-20.20 311.35-26.31L311.35-26.31ZM337.11-47.95L337.11-47.95Q333.44-47.95 331.06-46.23L331.06-46.23L331.06-46.23Q328.67-44.51 327.23-41.79L327.23-41.79L327.23-41.79Q325.78-39.07 325.17-35.69L325.17-35.69L325.17-35.69Q324.56-32.30 324.45-28.86L324.45-28.86L324.45-28.86Q329.78-29.08 333.50-30.25L333.50-30.25L333.50-30.25Q337.22-31.41 339.55-33.13L339.55-33.13L339.55-33.13Q341.88-34.85 342.93-36.85L342.93-36.85L342.93-36.85Q343.99-38.85 343.99-40.85L343.99-40.85L343.99-40.85Q343.99-44.07 342.10-46.01L342.10-46.01L342.10-46.01Q340.21-47.95 337.11-47.95L337.11-47.95ZM425.46-55.28L438.34-55.28L438.56-54.39L438.56-54.39Q438.67-53.39 438.89-51.84L438.89-51.84L438.89-51.84Q439.12-50.28 439.28-48.17L439.28-48.17L439.28-48.17Q439.45-46.06 439.45-43.96L439.45-43.96L439.45-43.96Q439.45-31.64 438.06-23.09L438.06-23.09L438.06-23.09Q436.67-14.54 433.51-9.27L433.51-9.27L433.51-9.27Q430.35-4.00 425.13-1.61L425.13-1.61L425.13-1.61Q419.91 0.78 412.25 0.78L412.25 0.78L412.25 0.78Q401.49 0.78 397.49-8.10L397.49-8.10L397.49-8.10Q395.49-3.55 392.00-1.39L392.00-1.39L392.00-1.39Q388.50 0.78 381.73 0.78L381.73 0.78L381.73 0.78Q373.07 0.78 369.30-4.22L369.30-4.22L369.30-4.22Q365.52-9.21 365.52-18.09L365.52-18.09L365.52-55.28L378.18-55.28L378.18-19.09L378.18-19.09Q378.18-14.43 379.84-11.38L379.84-11.38L379.84-11.38Q381.51-8.32 385.50-8.32L385.50-8.32L385.50-8.32Q390.61-8.32 393.38-13.32L393.38-13.32L393.38-13.32Q396.16-18.32 396.16-29.86L396.16-29.86L396.16-55.28L408.70-55.28L408.70-55.28Q408.59-46.95 408.59-39.85L408.59-39.85L408.59-39.85Q408.59-36.74 408.54-33.63L408.54-33.63L408.54-33.63Q408.48-30.53 408.48-27.75L408.48-27.75L408.48-27.75Q408.48-24.98 408.48-22.70L408.48-22.70L408.48-22.70Q408.48-20.42 408.48-19.09L408.48-19.09L408.48-19.09Q408.48-14.43 410.26-11.38L410.26-11.38L410.26-11.38Q412.03-8.32 416.03-8.32L416.03-8.32L416.03-8.32Q419.91-8.32 422.08-11.32L422.08-11.32L422.08-11.32Q424.24-14.32 425.24-19.15L425.24-19.15L425.24-19.15Q426.24-23.98 426.46-30.14L426.46-30.14L426.46-30.14Q426.68-36.30 426.68-42.62L426.68-42.62L426.68-42.62Q426.68-45.18 426.52-47.45L426.52-47.45L426.52-47.45Q426.35-49.73 426.07-51.50L426.07-51.50L426.07-51.50Q425.80-53.28 425.68-54.28L425.68-54.28L425.46-55.28ZM502.16-76.15L502.16-76.15L502.16-76.15Q506.05-76.15 509.60-75.42L509.60-75.42L509.60-75.42Q513.15-74.70 516.09-73.76L516.09-73.76L516.09-73.76Q519.04-72.82 521.09-71.82L521.09-71.82L521.09-71.82Q523.14-70.82 523.92-70.26L523.92-70.26L518.48-60.72L517.04-61.49L517.04-61.49Q515.60-62.27 513.26-63.27L513.26-63.27L513.26-63.27Q510.93-64.27 508.16-65.05L508.16-65.05L508.16-65.05Q505.38-65.82 502.83-65.82L502.83-65.82L502.83-65.82Q498.83-65.82 495.89-63.94L495.89-63.94L495.89-63.94Q492.95-62.05 492.95-58.05L492.95-58.05L492.95-58.05Q492.95-53.06 496.17-49.89L496.17-49.89L496.17-49.89Q499.39-46.73 506.27-44.07L506.27-44.07L506.27-44.07Q510.71-42.29 514.21-40.35L514.21-40.35L514.21-40.35Q517.70-38.41 520.15-35.85L520.15-35.85L520.15-35.85Q522.59-33.30 523.86-29.97L523.86-29.97L523.86-29.97Q525.14-26.64 525.14-21.98L525.14-21.98L525.14-21.98Q525.14-17.76 523.53-13.65L523.53-13.65L523.53-13.65Q521.92-9.55 518.76-6.38L518.76-6.38L518.76-6.38Q515.60-3.22 510.93-1.28L510.93-1.28L510.93-1.28Q506.27 0.67 500.17 0.67L500.17 0.67L500.17 0.67Q495.84 0.67 491.95-0.22L491.95-0.22L491.95-0.22Q488.07-1.11 484.90-2.28L484.90-2.28L484.90-2.28Q481.74-3.44 479.46-4.66L479.46-4.66L479.46-4.66Q477.19-5.88 476.08-6.55L476.08-6.55L480.74-16.76L482.74-15.65L482.74-15.65Q484.74-14.54 487.62-13.21L487.62-13.21L487.62-13.21Q490.51-11.88 493.73-10.77L493.73-10.77L493.73-10.77Q496.95-9.66 499.28-9.66L499.28-9.66L499.28-9.66Q505.16-9.66 508.05-12.54L508.05-12.54L508.05-12.54Q510.93-15.43 510.93-20.65L510.93-20.65L510.93-20.65Q510.93-23.09 510.16-24.92L510.16-24.92L510.16-24.92Q509.38-26.75 507.94-28.08L507.94-28.08L507.94-28.08Q506.49-29.41 504.44-30.47L504.44-30.47L504.44-30.47Q502.39-31.52 499.83-32.52L499.83-32.52L499.83-32.52Q494.84-34.63 490.90-36.74L490.90-36.74L490.90-36.74Q486.96-38.85 484.18-41.57L484.18-41.57L484.18-41.57Q481.41-44.29 479.96-47.79L479.96-47.79L479.96-47.79Q478.52-51.28 478.52-56.17L478.52-56.17L478.52-56.17Q478.52-60.27 480.30-63.88L480.30-63.88L480.30-63.88Q482.07-67.49 485.18-70.21L485.18-70.21L485.18-70.21Q488.29-72.93 492.62-74.54L492.62-74.54L492.62-74.54Q496.95-76.15 502.16-76.15ZM536.24-78.25L548.89-80.47L548.89-48.84L548.89-48.84Q549.78-49.95 551.17-51.23L551.17-51.23L551.17-51.23Q552.56-52.50 554.67-53.61L554.67-53.61L554.67-53.61Q556.78-54.72 559.55-55.50L559.55-55.50L559.55-55.50Q562.33-56.28 565.99-56.28L565.99-56.28L565.99-56.28Q569.43-56.28 572.43-55.28L572.43-55.28L572.43-55.28Q575.42-54.28 577.59-52.39L577.59-52.39L577.59-52.39Q579.75-50.51 581.03-47.79L581.03-47.79L581.03-47.79Q582.31-45.07 582.31-41.63L582.31-41.63L582.31-41.63Q582.31-36.63 580.25-33.41L580.25-33.41L580.25-33.41Q578.20-30.19 575.65-28.30L575.65-28.30L575.65-28.30Q572.76-26.09 568.99-24.75L568.99-24.75L584.53 0L570.21 0L554.22-27.64L554.11-28.75L554.11-28.75Q555-28.97 557.50-29.75L557.50-29.75L557.50-29.75Q560.00-30.53 562.66-31.97L562.66-31.97L562.66-31.97Q565.32-33.41 567.38-35.58L567.38-35.58L567.38-35.58Q569.43-37.74 569.43-40.74L569.43-40.74L569.43-40.74Q569.43-43.96 567.54-45.62L567.54-45.62L567.54-45.62Q565.66-47.29 562.55-47.29L562.55-47.29L562.55-47.29Q558.33-47.29 555.67-45.62L555.67-45.62L555.67-45.62Q553.00-43.96 551.50-41.85L551.50-41.85L551.50-41.85Q550.00-39.74 549.45-37.85L549.45-37.85L549.45-37.85Q548.89-35.96 548.89-35.63L548.89-35.63L548.89 0L536.24 0L536.24-78.25ZM605.62 0.44L605.62 0.44Q599.73 0.44 596.63-3.05L596.63-3.05L596.63-3.05Q593.52-6.55 593.52-12.10L593.52-12.10L593.52-55.28L606.17-55.28L606.17-13.21L606.17-13.21Q606.17-10.66 606.95-9.77L606.95-9.77L606.95-9.77Q607.73-8.88 609.28-8.88L609.28-8.88L609.28-8.88Q609.72-8.88 610.22-8.88L610.22-8.88L610.22-8.88Q610.72-8.88 611.17-8.99L611.17-8.99L611.17-8.99Q611.61-8.99 612.16-9.10L612.16-9.10L613.50-1.11L613.50-1.11Q612.72-0.67 611.50-0.33L611.50-0.33L611.50-0.33Q610.50 0 609.00 0.22L609.00 0.22L609.00 0.22Q607.50 0.44 605.62 0.44L605.62 0.44ZM600.07-79.92L600.07-79.92Q603.62-79.92 605.50-77.81L605.50-77.81L605.50-77.81Q607.39-75.70 607.39-72.37L607.39-72.37L607.39-72.37Q607.39-69.04 605.45-66.82L605.45-66.82L605.45-66.82Q603.51-64.60 599.73-64.60L599.73-64.60L599.73-64.60Q596.18-64.60 594.24-66.77L594.24-66.77L594.24-66.77Q592.30-68.93 592.30-72.04L592.30-72.04L592.30-72.04Q592.30-75.48 594.24-77.70L594.24-77.70L594.24-77.70Q596.18-79.92 600.07-79.92L600.07-79.92ZM634.14 0.44L634.14 0.44Q627.82 0.44 624.82-3.05L624.82-3.05L624.82-3.05Q621.82-6.55 621.82-11.99L621.82-11.99L621.82-78.25L634.48-80.59L634.48-13.21L634.48-13.21Q634.48-10.66 635.48-9.66L635.48-9.66L635.48-9.66Q636.47-8.66 638.36-8.66L638.36-8.66L638.36-8.66Q639.47-8.66 640.53-8.77L640.53-8.77L640.53-8.77Q641.58-8.88 642.47-9.10L642.47-9.10L642.47-9.10Q643.47-9.32 644.24-9.55L644.24-9.55L645.80-1.55L645.80-1.55Q644.36-1.00 642.58-0.56L642.58-0.56L642.58-0.56Q641.03-0.11 638.92 0.17L638.92 0.17L638.92 0.17Q636.81 0.44 634.14 0.44L634.14 0.44ZM666.44 0.44L666.44 0.44Q660.12 0.44 657.12-3.05L657.12-3.05L657.12-3.05Q654.12-6.55 654.12-11.99L654.12-11.99L654.12-78.25L666.78-80.59L666.78-13.21L666.78-13.21Q666.78-10.66 667.78-9.66L667.78-9.66L667.78-9.66Q668.78-8.66 670.66-8.66L670.66-8.66L670.66-8.66Q671.77-8.66 672.83-8.77L672.83-8.77L672.83-8.77Q673.88-8.88 674.77-9.10L674.77-9.10L674.77-9.10Q675.77-9.32 676.55-9.55L676.55-9.55L678.10-1.55L678.10-1.55Q676.66-1.00 674.88-0.56L674.88-0.56L674.88-0.56Q673.33-0.11 671.22 0.17L671.22 0.17L671.22 0.17Q669.11 0.44 666.44 0.44L666.44 0.44ZM703.30-56.61L703.30-56.61L703.30-56.61Q706.52-56.61 709.62-55.94L709.62-55.94L709.62-55.94Q712.73-55.28 715.17-54.39L715.17-54.39L715.17-54.39Q718.06-53.39 720.50-52.28L720.50-52.28L716.73-43.62L716.73-43.62Q714.51-44.62 712.29-45.40L712.29-45.40L712.29-45.40Q710.40-46.06 708.12-46.68L708.12-46.68L708.12-46.68Q705.85-47.29 703.63-47.29L703.63-47.29L703.63-47.29Q701.08-47.29 699.24-46.06L699.24-46.06L699.24-46.06Q697.41-44.84 697.41-42.40L697.41-42.40L697.41-42.40Q697.41-36.08 706.63-32.52L706.63-32.52L706.63-32.52Q710.07-31.19 712.84-29.69L712.84-29.69L712.84-29.69Q715.62-28.19 717.56-26.20L717.56-26.20L717.56-26.20Q719.50-24.20 720.50-21.59L720.50-21.59L720.50-21.59Q721.50-18.98 721.50-15.43L721.50-15.43L721.50-15.43Q721.50-12.32 720.22-9.32L720.22-9.32L720.22-9.32Q718.95-6.33 716.45-4.00L716.45-4.00L716.45-4.00Q713.95-1.67 710.34-0.28L710.34-0.28L710.34-0.28Q706.74 1.11 702.19 1.11L702.19 1.11L702.19 1.11Q698.52 1.11 694.97 0.28L694.97 0.28L694.97 0.28Q691.42-0.56 688.59-1.55L688.59-1.55L688.59-1.55Q685.76-2.55 684.09-3.44L684.09-3.44L682.43-4.22L686.54-13.54L687.98-12.77L687.98-12.77Q689.42-11.88 691.64-10.88L691.64-10.88L691.64-10.88Q693.86-9.88 696.41-9.05L696.41-9.05L696.41-9.05Q698.97-8.21 701.08-8.21L701.08-8.21L701.08-8.21Q704.96-8.21 706.85-9.77L706.85-9.77L706.85-9.77Q708.74-11.32 708.74-13.88L708.74-13.88L708.74-13.88Q708.74-16.76 706.68-19.15L706.68-19.15L706.68-19.15Q704.63-21.53 700.52-23.09L700.52-23.09L700.52-23.09Q691.97-26.31 688.26-30.41L688.26-30.41L688.26-30.41Q684.54-34.52 684.54-41.07L684.54-41.07L684.54-41.07Q684.54-44.18 685.98-47.01L685.98-47.01L685.98-47.01Q687.42-49.84 689.92-52.00L689.92-52.00L689.92-52.00Q692.42-54.17 695.86-55.39L695.86-55.39L695.86-55.39Q699.30-56.61 703.30-56.61Z" fill="#c887ff"></path></g></g><style>text {
  font-size: 64px;
  font-family: Arial Black;
  dominant-baseline: central;
  text-anchor: middle;
}</style></svg>