<svg width="804.5450439453125px" height="202.4px" xmlns="http://www.w3.org/2000/svg" viewBox="-152.27252197265625 -26.200000000000003 804.5450439453125 202.4" style="background: rgb(21, 21, 21);" preserveAspectRatio="xMidYMid"><defs><filter id="editing-hover" x="-100%" y="-100%" width="300%" height="300%"><feFlood flood-color="#000000" result="flood"></feFlood><feComposite operator="in" in2="SourceAlpha" in="flood" result="shadow"></feComposite><feOffset dx="-4" dy="-4" in="SourceGraphic" result="offset-1"></feOffset><feOffset dx="4" dy="4" in="shadow" result="offset-2"></feOffset><feMerge><feMergeNode in="offset-2"></feMergeNode><feMergeNode in="offset-1"></feMergeNode></feMerge></filter></defs><g filter="url(#editing-hover)"><g transform="translate(-38.934958934783936, 115.79000425338745)"><path d="M7.77 0L7.77-75.15L20.98-75.15L20.98 0L7.77 0ZM82.25 0L69.71 0L69.71-35.85L69.71-35.85Q69.71-40.52 68.04-43.35L68.04-43.35L68.04-43.35Q66.38-46.18 62.38-46.18L62.38-46.18L62.38-46.18Q59.83-46.18 57.44-44.90L57.44-44.90L57.44-44.90Q55.06-43.62 53.17-41.18L53.17-41.18L53.17-41.18Q51.28-38.74 50.12-35.24L50.12-35.24L50.12-35.24Q48.95-31.75 48.95-27.42L48.95-27.42L48.95 0L36.30 0L36.30-27.97L36.30-27.97Q36.30-34.63 35.41-39.13L35.41-39.13L35.41-39.13Q34.52-43.62 33.52-46.40L33.52-46.40L33.52-46.40Q32.30-49.62 30.86-51.62L30.86-51.62L40.85-55.61L40.85-55.61Q41.96-54.39 43.07-52.61L43.07-52.61L43.07-52.61Q43.96-51.06 44.84-48.78L44.84-48.78L44.84-48.78Q45.73-46.51 46.29-43.62L46.29-43.62L46.29-43.62Q49.17-50.28 54.61-53.22L54.61-53.22L54.61-53.22Q60.05-56.17 66.05-56.17L66.05-56.17L66.05-56.17Q74.59-56.17 78.42-51.00L78.42-51.00L78.42-51.00Q82.25-45.84 82.25-37.07L82.25-37.07L82.25 0ZM90.13-46.29L90.13-55.28L100.12-55.28L102.34-68.27L112.78-70.60L112.78-55.28L126.43-55.28L124.88-46.29L112.78-46.29L112.78-13.43L112.78-13.43Q112.78-10.54 114.33-9.71L114.33-9.71L114.33-9.71Q115.88-8.88 117.77-8.88L117.77-8.88L117.77-8.88Q119.32-8.88 120.88-9.10L120.88-9.10L120.88-9.10Q122.43-9.32 123.65-9.66L123.65-9.66L123.65-9.66Q125.10-9.99 126.43-10.43L126.43-10.43L128.54-2.11L127.54-1.78L127.54-1.78Q126.54-1.33 124.60-0.83L124.60-0.83L124.60-0.83Q122.66-0.33 120.05 0.06L120.05 0.06L120.05 0.06Q117.44 0.44 114.33 0.44L114.33 0.44L114.33 0.44Q111.22 0.44 108.61-0.22L108.61-0.22L108.61-0.22Q106.00-0.89 104.12-2.39L104.12-2.39L104.12-2.39Q102.23-3.89 101.18-6.22L101.18-6.22L101.18-6.22Q100.12-8.55 100.12-11.99L100.12-11.99L100.12-46.29L90.13-46.29ZM161.06-43.73L161.06-43.73Q159.06-43.73 157.06-42.73L157.06-42.73L157.06-42.73Q155.07-41.74 153.51-40.02L153.51-40.02L153.51-40.02Q151.96-38.30 150.96-35.85L150.96-35.85L150.96-35.85Q149.96-33.41 149.96-30.41L149.96-30.41L149.96 0L137.31 0L137.31-27.97L137.31-27.97Q137.31-34.63 136.42-39.13L136.42-39.13L136.42-39.13Q135.53-43.62 134.53-46.40L134.53-46.40L134.53-46.40Q133.31-49.62 131.87-51.62L131.87-51.62L141.86-55.61L141.86-55.61Q142.86-54.39 143.97-52.61L143.97-52.61L143.97-52.61Q144.85-51.06 145.74-48.95L145.74-48.95L145.74-48.95Q146.63-46.84 147.19-43.96L147.19-43.96L147.19-43.96Q149.41-50.39 153.62-53.22L153.62-53.22L153.62-53.22Q157.84-56.05 163.17-56.05L163.17-56.05L163.17-56.05Q165.72-56.05 167.94-55.44L167.94-55.44L167.94-55.44Q170.16-54.83 170.05-54.83L170.05-54.83L166.50-42.51L166.50-42.51Q166.61-42.51 165.22-43.12L165.22-43.12L165.22-43.12Q163.84-43.73 161.06-43.73L161.06-43.73ZM195.91-56.61L195.91-56.61Q208.68-56.61 214.45-49.06L214.45-49.06L214.45-49.06Q220.22-41.51 220.22-28.30L220.22-28.30L220.22-28.30Q220.22-22.09 218.67-16.71L218.67-16.71L218.67-16.71Q217.12-11.32 213.95-7.38L213.95-7.38L213.95-7.38Q210.79-3.44 206.02-1.17L206.02-1.17L206.02-1.17Q201.24 1.11 194.92 1.11L194.92 1.11L194.92 1.11Q188.59 1.11 183.98-0.83L183.98-0.83L183.98-0.83Q179.38-2.77 176.38-6.44L176.38-6.44L176.38-6.44Q173.38-10.10 171.99-15.32L171.99-15.32L171.99-15.32Q170.61-20.54 170.61-27.08L170.61-27.08L170.61-27.08Q170.61-33.41 172.16-38.79L172.16-38.79L172.16-38.79Q173.71-44.18 176.88-48.12L176.88-48.12L176.88-48.12Q180.04-52.06 184.81-54.33L184.81-54.33L184.81-54.33Q189.59-56.61 195.91-56.61L195.91-56.61ZM194.80-47.29L194.80-47.29Q191.59-47.29 189.53-45.84L189.53-45.84L189.53-45.84Q187.48-44.40 186.31-41.79L186.31-41.79L186.31-41.79Q185.15-39.18 184.70-35.69L184.70-35.69L184.70-35.69Q184.26-32.19 184.26-28.19L184.26-28.19L184.26-28.19Q184.26-24.09 184.76-20.42L184.76-20.42L184.76-20.42Q185.26-16.76 186.59-14.04L186.59-14.04L186.59-14.04Q187.92-11.32 190.20-9.77L190.20-9.77L190.20-9.77Q192.47-8.21 196.03-8.21L196.03-8.21L196.03-8.21Q199.24-8.21 201.30-9.66L201.30-9.66L201.30-9.66Q203.35-11.10 204.52-13.71L204.52-13.71L204.52-13.71Q205.68-16.32 206.13-19.76L206.13-19.76L206.13-19.76Q206.57-23.20 206.57-27.20L206.57-27.20L206.57-27.20Q206.57-31.30 206.07-34.97L206.07-34.97L206.07-34.97Q205.57-38.63 204.24-41.40L204.24-41.40L204.24-41.40Q202.91-44.18 200.63-45.73L200.63-45.73L200.63-45.73Q198.36-47.29 194.80-47.29L194.80-47.29ZM281.27-3.11L271.39 0.89L271.39 0.89Q271.17 0.78 270.40-0.17L270.40-0.17L270.40-0.17Q269.62-1.11 268.68-2.77L268.68-2.77L268.68-2.77Q267.73-4.44 266.84-6.94L266.84-6.94L266.84-6.94Q265.96-9.44 265.73-12.77L265.73-12.77L265.73-12.77Q263.85-6.11 259.68-2.72L259.68-2.72L259.68-2.72Q255.52 0.67 248.42 0.67L248.42 0.67L248.42 0.67Q243.20 0.67 239.37-1.28L239.37-1.28L239.37-1.28Q235.54-3.22 232.99-6.83L232.99-6.83L232.99-6.83Q230.44-10.43 229.21-15.54L229.21-15.54L229.21-15.54Q227.99-20.65 227.99-26.86L227.99-26.86L227.99-26.86Q227.99-33.19 229.94-38.57L229.94-38.57L229.94-38.57Q231.88-43.96 235.38-47.84L235.38-47.84L235.38-47.84Q238.87-51.73 243.76-53.95L243.76-53.95L243.76-53.95Q248.64-56.17 254.52-56.17L254.52-56.17L254.52-56.17Q256.52-56.17 258.80-55.94L258.80-55.94L258.80-55.94Q261.07-55.72 263.29-55.39L263.29-55.39L263.29-80.47L275.95-78.25L275.95-26.75L275.95-26.75Q275.95-20.09 276.72-15.71L276.72-15.71L276.72-15.71Q277.50-11.32 278.50-8.60L278.50-8.60L278.50-8.60Q279.50-5.88 280.33-4.66L280.33-4.66L280.33-4.66Q281.16-3.44 281.27-3.11L281.27-3.11ZM250.53-8.32L250.53-8.32Q253.30-8.32 255.63-10.21L255.63-10.21L255.63-10.21Q257.96-12.10 259.68-15.15L259.68-15.15L259.68-15.15Q261.40-18.20 262.35-22.09L262.35-22.09L262.35-22.09Q263.29-25.97 263.29-30.08L263.29-30.08L263.29-46.06L263.29-46.06Q262.18-46.40 259.96-46.84L259.96-46.84L259.96-46.84Q257.74-47.29 255.97-47.29L255.97-47.29L255.97-47.29Q251.75-47.29 249.03-45.84L249.03-45.84L249.03-45.84Q246.31-44.40 244.64-41.85L244.64-41.85L244.64-41.85Q242.98-39.29 242.31-35.74L242.31-35.74L242.31-35.74Q241.65-32.19 241.65-27.97L241.65-27.97L241.65-27.97Q241.65-24.09 241.87-20.54L241.87-20.54L241.87-20.54Q242.09-16.98 243.03-14.26L243.03-14.26L243.03-14.26Q243.98-11.54 245.75-9.93L245.75-9.93L245.75-9.93Q247.53-8.32 250.53-8.32L250.53-8.32ZM323.68-28.19L323.68-55.28L336.33-55.28L336.33-26.75L336.33-26.75Q336.33-20.09 337.16-15.60L337.16-15.60L337.16-15.60Q337.99-11.10 338.99-8.32L338.99-8.32L338.99-8.32Q340.21-5.00 341.66-3.11L341.66-3.11L331.78 0.89L331.78 0.89Q330.45-0.33 329.34-2.22L329.34-2.22L329.34-2.22Q328.45-3.77 327.51-6.05L327.51-6.05L327.51-6.05Q326.56-8.32 326.23-11.43L326.23-11.43L326.23-11.43Q323.23-4.88 317.79-2.11L317.79-2.11L317.79-2.11Q312.35 0.67 306.47 0.67L306.47 0.67L306.47 0.67Q297.70 0.67 293.98-4.44L293.98-4.44L293.98-4.44Q290.26-9.55 290.26-18.43L290.26-18.43L290.26-55.28L302.92-55.28L302.92-18.65L302.92-18.65Q302.92-13.99 304.58-11.32L304.58-11.32L304.58-11.32Q306.25-8.66 310.24-8.66L310.24-8.66L310.24-8.66Q312.69-8.66 315.07-10.05L315.07-10.05L315.07-10.05Q317.46-11.43 319.40-13.99L319.40-13.99L319.40-13.99Q321.34-16.54 322.51-20.15L322.51-20.15L322.51-20.15Q323.68-23.75 323.68-28.19L323.68-28.19ZM388.83-49.06L381.73-42.29L381.73-42.29Q380.06-44.18 378.34-45.51L378.34-45.51L378.34-45.51Q376.62-46.84 373.74-46.84L373.74-46.84L373.74-46.84Q372.07-46.84 370.02-46.34L370.02-46.34L370.02-46.34Q367.96-45.84 366.19-43.90L366.19-43.90L366.19-43.90Q364.41-41.96 363.25-38.18L363.25-38.18L363.25-38.18Q362.08-34.41 362.08-27.97L362.08-27.97L362.08-27.97Q362.08-21.42 363.25-17.59L363.25-17.59L363.25-17.59Q364.41-13.76 366.24-11.65L366.24-11.65L366.24-11.65Q368.08-9.55 370.19-8.94L370.19-8.94L370.19-8.94Q372.29-8.32 374.29-8.32L374.29-8.32L374.29-8.32Q375.85-8.32 377.51-8.60L377.51-8.60L377.51-8.60Q379.18-8.88 380.73-9.27L380.73-9.27L380.73-9.27Q382.28-9.66 383.45-9.99L383.45-9.99L383.45-9.99Q384.62-10.32 385.17-10.54L385.17-10.54L388.28-2.55L388.28-2.55Q387.94-2.44 386.78-1.89L386.78-1.89L386.78-1.89Q385.61-1.33 383.62-0.78L383.62-0.78L383.62-0.78Q381.62-0.22 378.84 0.28L378.84 0.28L378.84 0.28Q376.07 0.78 372.63 0.78L372.63 0.78L372.63 0.78Q366.19 0.78 361.64-1.17L361.64-1.17L361.64-1.17Q357.09-3.11 354.15-6.66L354.15-6.66L354.15-6.66Q351.20-10.21 349.82-15.21L349.82-15.21L349.82-15.21Q348.43-20.20 348.43-26.31L348.43-26.31L348.43-26.31Q348.43-33.63 350.37-39.29L350.37-39.29L350.37-39.29Q352.31-44.95 355.75-48.78L355.75-48.78L355.75-48.78Q359.20-52.61 363.86-54.61L363.86-54.61L363.86-54.61Q368.52-56.61 373.85-56.61L373.85-56.61L373.85-56.61Q379.06-56.61 382.67-54.61L382.67-54.61L382.67-54.61Q386.28-52.61 388.83-49.06L388.83-49.06ZM391.16-46.29L391.16-55.28L401.15-55.28L403.37-68.27L413.81-70.60L413.81-55.28L427.46-55.28L425.91-46.29L413.81-46.29L413.81-13.43L413.81-13.43Q413.81-10.54 415.36-9.71L415.36-9.71L415.36-9.71Q416.92-8.88 418.80-8.88L418.80-8.88L418.80-8.88Q420.36-8.88 421.91-9.10L421.91-9.10L421.91-9.10Q423.46-9.32 424.69-9.66L424.69-9.66L424.69-9.66Q426.13-9.99 427.46-10.43L427.46-10.43L429.57-2.11L428.57-1.78L428.57-1.78Q427.57-1.33 425.63-0.83L425.63-0.83L425.63-0.83Q423.69-0.33 421.08 0.06L421.08 0.06L421.08 0.06Q418.47 0.44 415.36 0.44L415.36 0.44L415.36 0.44Q412.25 0.44 409.65-0.22L409.65-0.22L409.65-0.22Q407.04-0.89 405.15-2.39L405.15-2.39L405.15-2.39Q403.26-3.89 402.21-6.22L402.21-6.22L402.21-6.22Q401.15-8.55 401.15-11.99L401.15-11.99L401.15-46.29L391.16-46.29ZM449.00 0.44L449.00 0.44Q443.11 0.44 440.00-3.05L440.00-3.05L440.00-3.05Q436.90-6.55 436.90-12.10L436.90-12.10L436.90-55.28L449.55-55.28L449.55-13.21L449.55-13.21Q449.55-10.66 450.33-9.77L450.33-9.77L450.33-9.77Q451.10-8.88 452.66-8.88L452.66-8.88L452.66-8.88Q453.10-8.88 453.60-8.88L453.60-8.88L453.60-8.88Q454.10-8.88 454.55-8.99L454.55-8.99L454.55-8.99Q454.99-8.99 455.54-9.10L455.54-9.10L456.88-1.11L456.88-1.11Q456.10-0.67 454.88-0.33L454.88-0.33L454.88-0.33Q453.88 0 452.38 0.22L452.38 0.22L452.38 0.22Q450.88 0.44 449.00 0.44L449.00 0.44ZM443.44-79.92L443.44-79.92Q447.00-79.92 448.88-77.81L448.88-77.81L448.88-77.81Q450.77-75.70 450.77-72.37L450.77-72.37L450.77-72.37Q450.77-69.04 448.83-66.82L448.83-66.82L448.83-66.82Q446.89-64.60 443.11-64.60L443.11-64.60L443.11-64.60Q439.56-64.60 437.62-66.77L437.62-66.77L437.62-66.77Q435.68-68.93 435.68-72.04L435.68-72.04L435.68-72.04Q435.68-75.48 437.62-77.70L437.62-77.70L437.62-77.70Q439.56-79.92 443.44-79.92L443.44-79.92ZM487.73-56.61L487.73-56.61Q500.50-56.61 506.27-49.06L506.27-49.06L506.27-49.06Q512.04-41.51 512.04-28.30L512.04-28.30L512.04-28.30Q512.04-22.09 510.49-16.71L510.49-16.71L510.49-16.71Q508.94-11.32 505.77-7.38L505.77-7.38L505.77-7.38Q502.61-3.44 497.83-1.17L497.83-1.17L497.83-1.17Q493.06 1.11 486.74 1.11L486.74 1.11L486.74 1.11Q480.41 1.11 475.80-0.83L475.80-0.83L475.80-0.83Q471.19-2.77 468.20-6.44L468.20-6.44L468.20-6.44Q465.20-10.10 463.81-15.32L463.81-15.32L463.81-15.32Q462.43-20.54 462.43-27.08L462.43-27.08L462.43-27.08Q462.43-33.41 463.98-38.79L463.98-38.79L463.98-38.79Q465.53-44.18 468.70-48.12L468.70-48.12L468.70-48.12Q471.86-52.06 476.63-54.33L476.63-54.33L476.63-54.33Q481.41-56.61 487.73-56.61L487.73-56.61ZM486.62-47.29L486.62-47.29Q483.40-47.29 481.35-45.84L481.35-45.84L481.35-45.84Q479.30-44.40 478.13-41.79L478.13-41.79L478.13-41.79Q476.97-39.18 476.52-35.69L476.52-35.69L476.52-35.69Q476.08-32.19 476.08-28.19L476.08-28.19L476.08-28.19Q476.08-24.09 476.58-20.42L476.58-20.42L476.58-20.42Q477.08-16.76 478.41-14.04L478.41-14.04L478.41-14.04Q479.74-11.32 482.02-9.77L482.02-9.77L482.02-9.77Q484.29-8.21 487.85-8.21L487.85-8.21L487.85-8.21Q491.06-8.21 493.12-9.66L493.12-9.66L493.12-9.66Q495.17-11.10 496.34-13.71L496.34-13.71L496.34-13.71Q497.50-16.32 497.95-19.76L497.95-19.76L497.95-19.76Q498.39-23.20 498.39-27.20L498.39-27.20L498.39-27.20Q498.39-31.30 497.89-34.97L497.89-34.97L497.89-34.97Q497.39-38.63 496.06-41.40L496.06-41.40L496.06-41.40Q494.73-44.18 492.45-45.73L492.45-45.73L492.45-45.73Q490.18-47.29 486.62-47.29L486.62-47.29ZM570.10 0L557.55 0L557.55-35.85L557.55-35.85Q557.55-40.52 555.89-43.35L555.89-43.35L555.89-43.35Q554.22-46.18 550.23-46.18L550.23-46.18L550.23-46.18Q547.67-46.18 545.29-44.90L545.29-44.90L545.29-44.90Q542.90-43.62 541.01-41.18L541.01-41.18L541.01-41.18Q539.13-38.74 537.96-35.24L537.96-35.24L537.96-35.24Q536.80-31.75 536.80-27.42L536.80-27.42L536.80 0L524.14 0L524.14-27.97L524.14-27.97Q524.14-34.63 523.25-39.13L523.25-39.13L523.25-39.13Q522.37-43.62 521.37-46.40L521.37-46.40L521.37-46.40Q520.15-49.62 518.70-51.62L518.70-51.62L528.69-55.61L528.69-55.61Q529.80-54.39 530.91-52.61L530.91-52.61L530.91-52.61Q531.80-51.06 532.69-48.78L532.69-48.78L532.69-48.78Q533.58-46.51 534.13-43.62L534.13-43.62L534.13-43.62Q537.02-50.28 542.46-53.22L542.46-53.22L542.46-53.22Q547.90-56.17 553.89-56.17L553.89-56.17L553.89-56.17Q562.44-56.17 566.27-51.00L566.27-51.00L566.27-51.00Q570.10-45.84 570.10-37.07L570.10-37.07L570.10 0Z" fill="#c887ff"></path></g></g><style>text {
  font-size: 64px;
  font-family: Arial Black;
  dominant-baseline: central;
  text-anchor: middle;
}</style></svg>