<?xml version="1.0" standalone="no"?>
<!DOCTYPE svg PUBLIC "-//W3C//DTD SVG 20010904//EN"
 "http://www.w3.org/TR/2001/REC-SVG-20010904/DTD/svg10.dtd">
<svg version="1.0" xmlns="http://www.w3.org/2000/svg"
 width="483.000000pt" height="246.000000pt" viewBox="0 0 483.000000 246.000000"
 preserveAspectRatio="xMidYMid meet">
<metadata>
Created by potrace 1.10, written by Peter Selinger 2001-2011
</metadata>
<g transform="translate(0.000000,246.000000) scale(0.100000,-0.100000)"
fill="#ffffff" stroke="none">
<path d="M594 2345 c-11 -8 -27 -15 -36 -15 -35 0 -134 -64 -190 -120 -62 -64
-80 -94 -109 -179 -20 -61 -27 -225 -9 -236 5 -3 10 -16 10 -27 0 -20 32 -80
55 -104 6 -6 28 -34 50 -63 22 -28 67 -73 100 -99 33 -26 101 -87 151 -137 94
-92 101 -106 105 -195 2 -55 -38 -125 -77 -134 -13 -4 -24 -11 -24 -16 0 -17
-139 -12 -156 5 -9 8 -28 15 -44 15 -16 0 -31 4 -34 9 -3 5 -25 19 -47 31 -23
11 -53 34 -68 51 -14 16 -29 29 -33 29 -5 0 -8 -86 -8 -190 0 -173 2 -191 18
-196 9 -3 31 -12 47 -19 141 -60 440 -63 570 -4 96 43 208 145 243 221 53 115
56 129 57 237 0 79 -4 114 -16 136 -9 17 -26 50 -37 75 -35 76 -146 197 -267
289 -98 75 -165 163 -165 216 0 25 42 105 55 105 5 0 24 7 40 16 65 35 213 -4
289 -75 43 -41 46 -32 46 147 -1 118 -4 172 -13 184 -7 9 -35 19 -62 23 -28 4
-56 12 -64 19 -8 6 -79 11 -186 13 -136 2 -176 -1 -191 -12z"/>
<path d="M2064 2346 c-11 -7 -40 -16 -66 -20 -26 -4 -50 -11 -53 -17 -4 -5
-16 -9 -28 -9 -12 -1 -40 -12 -62 -25 -22 -14 -47 -28 -55 -32 -8 -3 -41 -26
-72 -50 -31 -24 -60 -43 -64 -43 -11 0 -84 -82 -84 -95 0 -5 -14 -23 -30 -39
-17 -16 -30 -35 -30 -43 0 -7 -3 -13 -8 -13 -7 0 -18 -23 -66 -132 -9 -20 -16
-50 -16 -66 0 -17 -5 -32 -11 -34 -32 -11 -36 -396 -4 -445 8 -12 15 -31 15
-42 0 -18 40 -107 87 -195 9 -17 55 -68 103 -115 66 -66 105 -95 166 -125 43
-21 88 -44 99 -49 108 -57 631 -55 688 2 6 6 20 11 32 11 11 0 29 6 40 14 11
7 35 17 53 21 18 3 37 15 42 25 13 24 13 377 1 385 -6 3 -13 -1 -18 -8 -11
-17 -118 -98 -163 -123 -19 -10 -42 -24 -50 -31 -8 -6 -37 -14 -64 -16 -26 -3
-53 -10 -59 -16 -18 -18 -192 -14 -207 4 -7 8 -23 15 -36 15 -30 0 -139 66
-164 99 -11 14 -24 31 -30 38 -21 26 -69 131 -81 178 -13 52 -18 297 -7 352 6
29 37 96 73 161 35 65 144 148 221 170 53 15 229 15 291 0 56 -13 174 -67 227
-103 20 -14 41 -25 46 -25 12 0 13 379 2 397 -4 7 -39 15 -77 19 -39 4 -76 12
-84 18 -21 17 -473 19 -497 2z"/>
<path d="M2994 2327 c-2 -7 -3 -76 -2 -152 l3 -140 80 -5 80 -5 2 -422 c1
-232 5 -435 9 -450 11 -53 38 -128 51 -144 7 -8 13 -19 13 -23 0 -29 156 -185
186 -186 5 0 15 -5 22 -12 28 -28 170 -68 282 -78 92 -9 299 -2 315 10 6 4 30
11 54 15 113 19 298 157 350 262 13 26 30 60 38 75 21 42 25 108 32 548 l6
405 75 5 75 5 0 150 0 150 -367 3 -368 2 -5 -22 c-3 -13 -4 -81 -3 -153 l3
-130 85 -5 85 -5 3 -365 c2 -308 0 -369 -13 -396 -8 -18 -15 -40 -15 -49 0 -9
-22 -37 -48 -63 -38 -37 -60 -50 -103 -59 -94 -22 -191 -10 -251 30 -39 27
-78 82 -83 118 -2 18 -9 37 -14 42 -7 7 -11 134 -11 379 l0 367 88 3 87 3 3
130 c1 72 0 140 -3 153 l-5 22 -366 0 c-290 0 -366 -3 -370 -13z"/>
<path d="M302 527 c-67 -45 -90 -115 -54 -168 9 -14 38 -47 65 -73 55 -56 67
-88 42 -116 -23 -25 -53 -25 -85 0 -14 11 -29 20 -33 20 -4 0 -7 -24 -5 -52
l3 -53 48 -9 c58 -10 125 -1 152 22 31 26 65 86 65 115 0 33 -37 89 -101 150
-27 26 -49 52 -49 57 0 16 39 50 57 50 9 0 24 -7 34 -16 10 -9 23 -13 28 -9
16 9 5 78 -15 92 -29 21 -114 15 -152 -10z"/>
<path d="M580 540 c-12 -8 -13 -13 -2 -30 17 -27 17 -381 0 -398 -25 -25 8
-33 128 -30 108 3 119 5 122 22 2 11 10 26 18 34 16 16 17 22 5 41 -6 9 -11
10 -15 2 -4 -6 -25 -11 -46 -11 -21 0 -42 -5 -45 -10 -3 -6 -13 -10 -21 -10
-12 0 -14 33 -14 200 l0 200 -57 0 c-32 0 -65 -5 -73 -10z"/>
<path d="M938 328 c1 -123 5 -229 7 -236 3 -9 22 -12 61 -10 l57 3 1 230 0
230 -64 3 -65 3 3 -223z"/>
<path d="M1170 541 c0 -5 5 -13 11 -16 7 -5 10 -79 8 -223 l-2 -217 58 0 57 0
1 230 1 230 -67 3 c-39 2 -67 -1 -67 -7z"/>
<path d="M1386 511 c-10 -22 -16 -47 -12 -57 6 -16 8 -16 25 0 13 12 32 16 62
14 l44 -3 0 -160 c-1 -88 -3 -173 -5 -190 l-5 -30 65 -3 65 -3 -4 171 c-4 200
-1 220 34 220 14 0 34 -6 45 -12 16 -11 22 -9 34 7 9 11 16 35 16 53 l0 32
-172 0 -173 0 -19 -39z"/>
<path d="M2002 525 c-48 -27 -122 -94 -122 -111 0 -6 -7 -25 -15 -40 -20 -38
-20 -128 0 -144 8 -7 15 -21 15 -31 0 -20 56 -89 72 -89 5 0 16 -6 24 -14 33
-33 234 -28 256 6 10 17 10 98 0 98 -4 0 -13 -5 -19 -11 -7 -7 -34 -19 -62
-29 -43 -14 -53 -15 -62 -3 -6 7 -21 13 -33 13 -13 0 -30 14 -45 35 -20 30
-23 44 -20 112 4 83 12 97 71 136 33 21 65 22 104 3 57 -28 69 -25 72 18 5 59
-22 76 -118 75 -59 0 -84 -5 -118 -24z"/>
<path d="M2339 543 c0 -5 0 -109 -1 -233 l0 -225 57 0 57 0 -1 212 c-1 137 2
220 9 233 10 19 8 20 -55 20 -36 0 -65 -3 -66 -7z"/>
<path d="M2553 538 c-12 -20 -33 -82 -28 -86 2 -3 17 1 33 7 17 7 45 11 63 9
l34 -3 3 -178 c2 -116 -1 -177 -8 -177 -5 0 -10 -7 -10 -15 0 -13 12 -15 67
-13 l67 3 1 190 0 190 33 3 c18 2 32 -1 32 -7 0 -6 11 -11 24 -11 18 0 25 7
30 30 6 34 31 40 41 10 3 -11 10 -20 14 -20 4 0 22 -30 41 -67 18 -38 39 -75
46 -83 9 -10 14 -55 16 -125 l3 -110 60 0 60 0 -4 101 c-3 98 -2 102 28 151
17 28 31 55 31 62 0 6 4 11 9 11 5 0 13 10 17 23 4 12 20 38 35 58 16 20 29
42 29 48 0 7 -23 11 -60 11 -52 0 -60 -2 -60 -19 0 -10 -7 -24 -15 -31 -8 -7
-15 -19 -15 -26 0 -8 -4 -14 -9 -14 -5 0 -12 -11 -15 -25 -13 -50 -46 -26 -87
63 l-24 52 -237 0 c-178 0 -239 -3 -245 -12z"/>
<path d="M3447 543 c-4 -3 -7 -26 -7 -49 0 -34 4 -44 20 -49 19 -6 20 -15 20
-132 0 -119 1 -126 26 -162 49 -67 68 -76 169 -76 78 0 94 3 118 22 66 51 70
64 73 207 2 119 4 131 22 139 24 11 34 51 21 84 -8 22 -14 23 -104 23 l-95 0
0 -46 c0 -32 5 -51 16 -59 14 -9 16 -31 15 -126 -2 -105 -4 -115 -24 -131 -29
-23 -53 -22 -93 3 l-34 21 0 108 0 109 28 13 c28 14 38 43 28 84 -6 23 -10 24
-100 24 -51 0 -96 -3 -99 -7z"/>
<path d="M3957 543 c-15 -15 -7 -80 13 -98 18 -16 20 -31 20 -141 0 -114 -2
-124 -21 -134 -16 -9 -19 -19 -17 -48 l3 -37 100 0 100 0 3 28 c4 33 -13 57
-39 57 -17 0 -19 9 -19 84 0 47 4 87 8 90 10 6 82 -100 82 -120 0 -7 6 -17 13
-21 8 -4 22 -24 33 -43 33 -60 55 -80 90 -80 18 0 36 5 39 11 4 5 6 84 5 175
l-1 165 31 11 c29 10 31 13 28 57 l-3 46 -100 0 -100 0 -3 -46 c-3 -40 0 -47
22 -57 20 -9 25 -19 27 -62 2 -29 1 -56 -2 -61 -12 -20 -53 28 -80 94 -6 15
-14 27 -18 27 -3 0 -15 17 -26 38 -30 59 -52 72 -121 72 -33 0 -64 -3 -67 -7z"/>
<path d="M4467 544 c-4 -4 -7 -27 -7 -50 0 -35 4 -44 23 -50 12 -4 24 -10 27
-14 3 -5 4 -64 2 -133 -3 -121 -4 -126 -25 -129 -18 -2 -22 -9 -22 -43 l0 -40
100 0 100 0 0 40 c0 34 -4 41 -22 43 -21 3 -22 8 -25 129 -2 69 -1 128 2 133
3 4 15 11 28 14 20 7 23 13 20 54 l-3 47 -95 3 c-53 1 -99 0 -103 -4z"/>
</g>
</svg>
