<svg width="1158.3950439453124px" height="202.4px" xmlns="http://www.w3.org/2000/svg" viewBox="-329.1975219726562 -26.200000000000003 1158.3950439453124 202.4" style="background: rgb(21, 21, 21);" preserveAspectRatio="xMidYMid"><defs><filter id="editing-hover" x="-100%" y="-100%" width="300%" height="300%"><feFlood flood-color="#000000" result="flood"></feFlood><feComposite operator="in" in2="SourceAlpha" in="flood" result="shadow"></feComposite><feOffset dx="-4" dy="-4" in="SourceGraphic" result="offset-1"></feOffset><feOffset dx="4" dy="4" in="shadow" result="offset-2"></feOffset><feMerge><feMergeNode in="offset-2"></feMergeNode><feMergeNode in="offset-1"></feMergeNode></feMerge></filter></defs><g filter="url(#editing-hover)"><g transform="translate(-170.4149889945984, 127.33999967575073)"><path d="M52.50-35.85L52.17-75.15L65.38-75.15L65.38 0.11L54.39 0.11L29.08-39.41L29.08-39.41Q26.97-42.62 24.48-46.68L24.48-46.68L24.48-46.68Q21.98-50.73 19.76-54.17L19.76-54.17L19.76-54.17Q20.09-50.62 20.37-46.73L20.37-46.73L20.37-46.73Q20.65-42.85 20.65-39.29L20.65-39.29L20.98 0L7.77 0L7.77-75.37L18.09-75.37L44.18-36.30L44.18-36.30Q46.40-33.08 48.67-29.47L48.67-29.47L48.67-29.47Q50.95-25.86 53.17-22.53L53.17-22.53L53.17-22.53Q52.95-26.09 52.73-29.69L52.73-29.69L52.73-29.69Q52.50-33.30 52.50-35.85L52.50-35.85ZM76.26-26.31L76.26-26.31Q76.26-33.74 78.31-39.41L78.31-39.41L78.31-39.41Q80.36-45.07 83.97-48.90L83.97-48.90L83.97-48.90Q87.58-52.73 92.46-54.67L92.46-54.67L92.46-54.67Q97.35-56.61 103.01-56.61L103.01-56.61L103.01-56.61Q108.00-56.61 111.50-55.39L111.50-55.39L111.50-55.39Q115.00-54.17 117.22-52.06L117.22-52.06L117.22-52.06Q119.44-49.95 120.49-47.06L120.49-47.06L120.49-47.06Q121.55-44.18 121.55-40.85L121.55-40.85L121.55-40.85Q121.55-36.85 119.33-33.24L119.33-33.24L119.33-33.24Q117.11-29.64 112.94-26.92L112.94-26.92L112.94-26.92Q108.78-24.20 102.90-22.59L102.90-22.59L102.90-22.59Q97.01-20.98 89.69-20.87L89.69-20.87L89.69-20.87Q90.02-18.32 90.74-16.04L90.74-16.04L90.74-16.04Q91.46-13.76 92.85-12.04L92.85-12.04L92.85-12.04Q94.24-10.32 96.46-9.32L96.46-9.32L96.46-9.32Q98.68-8.32 102.01-8.32L102.01-8.32L102.01-8.32Q104.45-8.32 107.23-8.88L107.23-8.88L107.23-8.88Q110.00-9.44 112.33-10.21L112.33-10.21L112.33-10.21Q115.11-11.10 117.77-12.21L117.77-12.21L121.10-4.33L121.10-4.33Q118.22-2.89 114.88-1.78L114.88-1.78L114.88-1.78Q112.00-0.78 108.22 0L108.22 0L108.22 0Q104.45 0.78 100.23 0.78L100.23 0.78L100.23 0.78Q93.80 0.78 89.24-1.17L89.24-1.17L89.24-1.17Q84.69-3.11 81.81-6.66L81.81-6.66L81.81-6.66Q78.92-10.21 77.59-15.21L77.59-15.21L77.59-15.21Q76.26-20.20 76.26-26.31L76.26-26.31ZM102.01-47.95L102.01-47.95Q98.35-47.95 95.96-46.23L95.96-46.23L95.96-46.23Q93.57-44.51 92.13-41.79L92.13-41.79L92.13-41.79Q90.69-39.07 90.08-35.69L90.08-35.69L90.08-35.69Q89.47-32.30 89.36-28.86L89.36-28.86L89.36-28.86Q94.68-29.08 98.40-30.25L98.40-30.25L98.40-30.25Q102.12-31.41 104.45-33.13L104.45-33.13L104.45-33.13Q106.78-34.85 107.84-36.85L107.84-36.85L107.84-36.85Q108.89-38.85 108.89-40.85L108.89-40.85L108.89-40.85Q108.89-44.07 107.00-46.01L107.00-46.01L107.00-46.01Q105.12-47.95 102.01-47.95L102.01-47.95ZM137.31 19.43L140.41 9.77L140.41 9.77Q142.08 10.43 143.97 11.16L143.97 11.16L143.97 11.16Q145.85 11.88 147.96 12.54L147.96 12.54L147.96 12.54Q150.07 13.21 152.24 13.65L152.24 13.65L152.24 13.65Q154.40 14.10 156.51 14.10L156.51 14.10L156.51 14.10Q162.73 14.10 165.50 10.38L165.50 10.38L165.50 10.38Q168.28 6.66 168.28 0.78L168.28 0.78L168.28 0.78Q168.28-5.00 165.83-10.88L165.83-10.88L165.83-10.88Q163.95-5.22 159.90-2.28L159.90-2.28L159.90-2.28Q155.84 0.67 149.18 0.67L149.18 0.67L149.18 0.67Q143.97 0.67 140.14-1.28L140.14-1.28L140.14-1.28Q136.31-3.22 133.75-6.83L133.75-6.83L133.75-6.83Q131.20-10.43 129.98-15.54L129.98-15.54L129.98-15.54Q128.76-20.65 128.76-26.86L128.76-26.86L128.76-26.86Q128.76-33.19 130.70-38.57L130.70-38.57L130.70-38.57Q132.65-43.96 136.14-47.84L136.14-47.84L136.14-47.84Q139.64-51.73 144.52-53.95L144.52-53.95L144.52-53.95Q149.41-56.17 155.29-56.17L155.29-56.17L155.29-56.17Q157.95-56.17 161.01-55.83L161.01-55.83L161.01-55.83Q164.06-55.50 167.00-55.00L167.00-55.00L167.00-55.00Q169.94-54.50 172.55-53.95L172.55-53.95L172.55-53.95Q175.16-53.39 177.05-52.95L177.05-52.95L176.49-22.42L176.49-22.42Q176.38-19.09 176.88-16.32L176.88-16.32L176.88-16.32Q177.38-13.54 178.04-10.82L178.04-10.82L178.04-10.82Q178.71-8.10 179.26-5.33L179.26-5.33L179.26-5.33Q179.82-2.55 179.82 0.78L179.82 0.78L179.82 0.78Q179.82 12.54 173.83 18.32L173.83 18.32L173.83 18.32Q167.83 24.09 157.62 24.09L157.62 24.09L157.62 24.09Q154.29 24.09 150.96 23.48L150.96 23.48L150.96 23.48Q147.63 22.87 144.80 22.09L144.80 22.09L144.80 22.09Q141.97 21.31 139.97 20.54L139.97 20.54L139.97 20.54Q137.97 19.76 137.31 19.43L137.31 19.43ZM151.29-8.21L151.29-8.21Q153.96-8.21 156.23-9.99L156.23-9.99L156.23-9.99Q158.51-11.77 160.28-14.71L160.28-14.71L160.28-14.71Q162.06-17.65 163.06-21.42L163.06-21.42L163.06-21.42Q164.06-25.20 164.06-29.19L164.06-29.19L164.06-46.06L164.06-46.06Q162.95-46.40 160.73-46.84L160.73-46.84L160.73-46.84Q158.51-47.29 156.73-47.29L156.73-47.29L156.73-47.29Q152.51-47.29 149.79-45.84L149.79-45.84L149.79-45.84Q147.07-44.40 145.41-41.85L145.41-41.85L145.41-41.85Q143.75-39.29 143.08-35.74L143.08-35.74L143.08-35.74Q142.41-32.19 142.41-27.97L142.41-27.97L142.41-27.97Q142.41-24.09 142.63-20.54L142.63-20.54L142.63-20.54Q142.86-16.98 143.80-14.21L143.80-14.21L143.80-14.21Q144.74-11.43 146.52-9.82L146.52-9.82L146.52-9.82Q148.30-8.21 151.29-8.21L151.29-8.21ZM213.01-56.61L213.01-56.61Q225.77-56.61 231.55-49.06L231.55-49.06L231.55-49.06Q237.32-41.51 237.32-28.30L237.32-28.30L237.32-28.30Q237.32-22.09 235.76-16.71L235.76-16.71L235.76-16.71Q234.21-11.32 231.05-7.38L231.05-7.38L231.05-7.38Q227.88-3.44 223.11-1.17L223.11-1.17L223.11-1.17Q218.34 1.11 212.01 1.11L212.01 1.11L212.01 1.11Q205.68 1.11 201.08-0.83L201.08-0.83L201.08-0.83Q196.47-2.77 193.47-6.44L193.47-6.44L193.47-6.44Q190.48-10.10 189.09-15.32L189.09-15.32L189.09-15.32Q187.70-20.54 187.70-27.08L187.70-27.08L187.70-27.08Q187.70-33.41 189.25-38.79L189.25-38.79L189.25-38.79Q190.81-44.18 193.97-48.12L193.97-48.12L193.97-48.12Q197.14-52.06 201.91-54.33L201.91-54.33L201.91-54.33Q206.68-56.61 213.01-56.61L213.01-56.61ZM211.90-47.29L211.90-47.29Q208.68-47.29 206.63-45.84L206.63-45.84L206.63-45.84Q204.57-44.40 203.41-41.79L203.41-41.79L203.41-41.79Q202.24-39.18 201.80-35.69L201.80-35.69L201.80-35.69Q201.35-32.19 201.35-28.19L201.35-28.19L201.35-28.19Q201.35-24.09 201.85-20.42L201.85-20.42L201.85-20.42Q202.35-16.76 203.69-14.04L203.69-14.04L203.69-14.04Q205.02-11.32 207.29-9.77L207.29-9.77L207.29-9.77Q209.57-8.21 213.12-8.21L213.12-8.21L213.12-8.21Q216.34-8.21 218.39-9.66L218.39-9.66L218.39-9.66Q220.45-11.10 221.61-13.71L221.61-13.71L221.61-13.71Q222.78-16.32 223.22-19.76L223.22-19.76L223.22-19.76Q223.67-23.20 223.67-27.20L223.67-27.20L223.67-27.20Q223.67-31.30 223.17-34.97L223.17-34.97L223.17-34.97Q222.67-38.63 221.33-41.40L221.33-41.40L221.33-41.40Q220.00-44.18 217.73-45.73L217.73-45.73L217.73-45.73Q215.45-47.29 211.90-47.29L211.90-47.29ZM242.31-46.29L242.31-55.28L252.30-55.28L254.52-68.27L264.96-70.60L264.96-55.28L278.61-55.28L277.06-46.29L264.96-46.29L264.96-13.43L264.96-13.43Q264.96-10.54 266.51-9.71L266.51-9.71L266.51-9.71Q268.06-8.88 269.95-8.88L269.95-8.88L269.95-8.88Q271.51-8.88 273.06-9.10L273.06-9.10L273.06-9.10Q274.61-9.32 275.83-9.66L275.83-9.66L275.83-9.66Q277.28-9.99 278.61-10.43L278.61-10.43L280.72-2.11L279.72-1.78L279.72-1.78Q278.72-1.33 276.78-0.83L276.78-0.83L276.78-0.83Q274.84-0.33 272.23 0.06L272.23 0.06L272.23 0.06Q269.62 0.44 266.51 0.44L266.51 0.44L266.51 0.44Q263.40 0.44 260.79-0.22L260.79-0.22L260.79-0.22Q258.19-0.89 256.30-2.39L256.30-2.39L256.30-2.39Q254.41-3.89 253.36-6.22L253.36-6.22L253.36-6.22Q252.30-8.55 252.30-11.99L252.30-11.99L252.30-46.29L242.31-46.29ZM300.14 0.44L300.14 0.44Q294.26 0.44 291.15-3.05L291.15-3.05L291.15-3.05Q288.05-6.55 288.05-12.10L288.05-12.10L288.05-55.28L300.70-55.28L300.70-13.21L300.70-13.21Q300.70-10.66 301.48-9.77L301.48-9.77L301.48-9.77Q302.25-8.88 303.81-8.88L303.81-8.88L303.81-8.88Q304.25-8.88 304.75-8.88L304.75-8.88L304.75-8.88Q305.25-8.88 305.69-8.99L305.69-8.99L305.69-8.99Q306.14-8.99 306.69-9.10L306.69-9.10L308.02-1.11L308.02-1.11Q307.25-0.67 306.03-0.33L306.03-0.33L306.03-0.33Q305.03 0 303.53 0.22L303.53 0.22L303.53 0.22Q302.03 0.44 300.14 0.44L300.14 0.44ZM294.59-79.92L294.59-79.92Q298.15-79.92 300.03-77.81L300.03-77.81L300.03-77.81Q301.92-75.70 301.92-72.37L301.92-72.37L301.92-72.37Q301.92-69.04 299.98-66.82L299.98-66.82L299.98-66.82Q298.04-64.60 294.26-64.60L294.26-64.60L294.26-64.60Q290.71-64.60 288.77-66.77L288.77-66.77L288.77-66.77Q286.82-68.93 286.82-72.04L286.82-72.04L286.82-72.04Q286.82-75.48 288.77-77.70L288.77-77.70L288.77-77.70Q290.71-79.92 294.59-79.92L294.59-79.92ZM361.53-52.95L361.53-26.75L361.53-26.75Q361.53-20.09 362.36-15.60L362.36-15.60L362.36-15.60Q363.19-11.10 364.19-8.32L364.19-8.32L364.19-8.32Q365.41-5.00 366.86-3.11L366.86-3.11L356.98 0.89L356.98 0.89Q355.53-0.56 354.31-2.55L354.31-2.55L354.31-2.55Q353.31-4.33 352.43-6.83L352.43-6.83L352.43-6.83Q351.54-9.32 351.31-12.77L351.31-12.77L351.31-12.77Q349.43-6.11 345.27-2.72L345.27-2.72L345.27-2.72Q341.10 0.67 334.00 0.67L334.00 0.67L334.00 0.67Q328.78 0.67 324.95-1.28L324.95-1.28L324.95-1.28Q321.12-3.22 318.57-6.83L318.57-6.83L318.57-6.83Q316.02-10.43 314.80-15.54L314.80-15.54L314.80-15.54Q313.57-20.65 313.57-26.86L313.57-26.86L313.57-26.86Q313.57-33.19 315.52-38.57L315.52-38.57L315.52-38.57Q317.46-43.96 320.96-47.84L320.96-47.84L320.96-47.84Q324.45-51.73 329.34-53.95L329.34-53.95L329.34-53.95Q334.22-56.17 340.10-56.17L340.10-56.17L340.10-56.17Q343.43-56.17 347.04-55.67L347.04-55.67L347.04-55.67Q350.65-55.17 353.76-54.61L353.76-54.61L353.76-54.61Q356.87-54.06 359.03-53.56L359.03-53.56L359.03-53.56Q361.19-53.06 361.53-52.95L361.53-52.95ZM336.11-8.21L336.11-8.21Q338.88-8.21 341.21-10.10L341.21-10.10L341.21-10.10Q343.55-11.99 345.27-15.04L345.27-15.04L345.27-15.04Q346.99-18.09 347.93-22.03L347.93-22.03L347.93-22.03Q348.87-25.97 348.87-30.08L348.87-30.08L348.87-46.06L348.87-46.06Q347.76-46.40 345.54-46.84L345.54-46.84L345.54-46.84Q343.32-47.29 341.55-47.29L341.55-47.29L341.55-47.29Q337.33-47.29 334.61-45.84L334.61-45.84L334.61-45.84Q331.89-44.40 330.23-41.85L330.23-41.85L330.23-41.85Q328.56-39.29 327.89-35.74L327.89-35.74L327.89-35.74Q327.23-32.19 327.23-27.97L327.23-27.97L327.23-27.97Q327.23-24.09 327.45-20.54L327.45-20.54L327.45-20.54Q327.67-16.98 328.62-14.21L328.62-14.21L328.62-14.21Q329.56-11.43 331.33-9.82L331.33-9.82L331.33-9.82Q333.11-8.21 336.11-8.21L336.11-8.21ZM370.30-46.29L370.30-55.28L380.29-55.28L382.51-68.27L392.94-70.60L392.94-55.28L406.59-55.28L405.04-46.29L392.94-46.29L392.94-13.43L392.94-13.43Q392.94-10.54 394.49-9.71L394.49-9.71L394.49-9.71Q396.05-8.88 397.94-8.88L397.94-8.88L397.94-8.88Q399.49-8.88 401.04-9.10L401.04-9.10L401.04-9.10Q402.60-9.32 403.82-9.66L403.82-9.66L403.82-9.66Q405.26-9.99 406.59-10.43L406.59-10.43L408.70-2.11L407.70-1.78L407.70-1.78Q406.70-1.33 404.76-0.83L404.76-0.83L404.76-0.83Q402.82-0.33 400.21 0.06L400.21 0.06L400.21 0.06Q397.60 0.44 394.49 0.44L394.49 0.44L394.49 0.44Q391.39 0.44 388.78-0.22L388.78-0.22L388.78-0.22Q386.17-0.89 384.28-2.39L384.28-2.39L384.28-2.39Q382.39-3.89 381.34-6.22L381.34-6.22L381.34-6.22Q380.29-8.55 380.29-11.99L380.29-11.99L380.29-46.29L370.30-46.29ZM428.13 0.44L428.13 0.44Q422.24 0.44 419.14-3.05L419.14-3.05L419.14-3.05Q416.03-6.55 416.03-12.10L416.03-12.10L416.03-55.28L428.68-55.28L428.68-13.21L428.68-13.21Q428.68-10.66 429.46-9.77L429.46-9.77L429.46-9.77Q430.24-8.88 431.79-8.88L431.79-8.88L431.79-8.88Q432.23-8.88 432.73-8.88L432.73-8.88L432.73-8.88Q433.23-8.88 433.68-8.99L433.68-8.99L433.68-8.99Q434.12-8.99 434.68-9.10L434.68-9.10L436.01-1.11L436.01-1.11Q435.23-0.67 434.01-0.33L434.01-0.33L434.01-0.33Q433.01 0 431.51 0.22L431.51 0.22L431.51 0.22Q430.01 0.44 428.13 0.44L428.13 0.44ZM422.58-79.92L422.58-79.92Q426.13-79.92 428.02-77.81L428.02-77.81L428.02-77.81Q429.90-75.70 429.90-72.37L429.90-72.37L429.90-72.37Q429.90-69.04 427.96-66.82L427.96-66.82L427.96-66.82Q426.02-64.60 422.24-64.60L422.24-64.60L422.24-64.60Q418.69-64.60 416.75-66.77L416.75-66.77L416.75-66.77Q414.81-68.93 414.81-72.04L414.81-72.04L414.81-72.04Q414.81-75.48 416.75-77.70L416.75-77.70L416.75-77.70Q418.69-79.92 422.58-79.92L422.58-79.92ZM466.87-56.61L466.87-56.61Q479.63-56.61 485.40-49.06L485.40-49.06L485.40-49.06Q491.17-41.51 491.17-28.30L491.17-28.30L491.17-28.30Q491.17-22.09 489.62-16.71L489.62-16.71L489.62-16.71Q488.07-11.32 484.90-7.38L484.90-7.38L484.90-7.38Q481.74-3.44 476.97-1.17L476.97-1.17L476.97-1.17Q472.19 1.11 465.87 1.11L465.87 1.11L465.87 1.11Q459.54 1.11 454.93-0.83L454.93-0.83L454.93-0.83Q450.33-2.77 447.33-6.44L447.33-6.44L447.33-6.44Q444.33-10.10 442.95-15.32L442.95-15.32L442.95-15.32Q441.56-20.54 441.56-27.08L441.56-27.08L441.56-27.08Q441.56-33.41 443.11-38.79L443.11-38.79L443.11-38.79Q444.67-44.18 447.83-48.12L447.83-48.12L447.83-48.12Q450.99-52.06 455.77-54.33L455.77-54.33L455.77-54.33Q460.54-56.61 466.87-56.61L466.87-56.61ZM465.76-47.29L465.76-47.29Q462.54-47.29 460.48-45.84L460.48-45.84L460.48-45.84Q458.43-44.40 457.26-41.79L457.26-41.79L457.26-41.79Q456.10-39.18 455.65-35.69L455.65-35.69L455.65-35.69Q455.21-32.19 455.21-28.19L455.21-28.19L455.21-28.19Q455.21-24.09 455.71-20.42L455.71-20.42L455.71-20.42Q456.21-16.76 457.54-14.04L457.54-14.04L457.54-14.04Q458.87-11.32 461.15-9.77L461.15-9.77L461.15-9.77Q463.42-8.21 466.98-8.21L466.98-8.21L466.98-8.21Q470.20-8.21 472.25-9.66L472.25-9.66L472.25-9.66Q474.30-11.10 475.47-13.71L475.47-13.71L475.47-13.71Q476.63-16.32 477.08-19.76L477.08-19.76L477.08-19.76Q477.52-23.20 477.52-27.20L477.52-27.20L477.52-27.20Q477.52-31.30 477.02-34.97L477.02-34.97L477.02-34.97Q476.52-38.63 475.19-41.40L475.19-41.40L475.19-41.40Q473.86-44.18 471.58-45.73L471.58-45.73L471.58-45.73Q469.31-47.29 465.76-47.29L465.76-47.29ZM549.23 0L536.68 0L536.68-35.85L536.68-35.85Q536.68-40.52 535.02-43.35L535.02-43.35L535.02-43.35Q533.35-46.18 529.36-46.18L529.36-46.18L529.36-46.18Q526.81-46.18 524.42-44.90L524.42-44.90L524.42-44.90Q522.03-43.62 520.15-41.18L520.15-41.18L520.15-41.18Q518.26-38.74 517.09-35.24L517.09-35.24L517.09-35.24Q515.93-31.75 515.93-27.42L515.93-27.42L515.93 0L503.27 0L503.27-27.97L503.27-27.97Q503.27-34.63 502.39-39.13L502.39-39.13L502.39-39.13Q501.50-43.62 500.50-46.40L500.50-46.40L500.50-46.40Q499.28-49.62 497.83-51.62L497.83-51.62L507.82-55.61L507.82-55.61Q508.93-54.39 510.04-52.61L510.04-52.61L510.04-52.61Q510.93-51.06 511.82-48.78L511.82-48.78L511.82-48.78Q512.71-46.51 513.26-43.62L513.26-43.62L513.26-43.62Q516.15-50.28 521.59-53.22L521.59-53.22L521.59-53.22Q527.03-56.17 533.02-56.17L533.02-56.17L533.02-56.17Q541.57-56.17 545.40-51.00L545.40-51.00L545.40-51.00Q549.23-45.84 549.23-37.07L549.23-37.07L549.23 0ZM613.72-76.15L613.72-76.15L613.72-76.15Q617.60-76.15 621.16-75.42L621.16-75.42L621.16-75.42Q624.71-74.70 627.65-73.76L627.65-73.76L627.65-73.76Q630.59-72.82 632.64-71.82L632.64-71.82L632.64-71.82Q634.70-70.82 635.47-70.26L635.47-70.26L630.04-60.72L628.59-61.49L628.59-61.49Q627.15-62.27 624.82-63.27L624.82-63.27L624.82-63.27Q622.49-64.27 619.71-65.05L619.71-65.05L619.71-65.05Q616.94-65.82 614.38-65.82L614.38-65.82L614.38-65.82Q610.39-65.82 607.45-63.94L607.45-63.94L607.45-63.94Q604.51-62.05 604.51-58.05L604.51-58.05L604.51-58.05Q604.51-53.06 607.72-49.89L607.72-49.89L607.72-49.89Q610.94-46.73 617.83-44.07L617.83-44.07L617.83-44.07Q622.27-42.29 625.76-40.35L625.76-40.35L625.76-40.35Q629.26-38.41 631.70-35.85L631.70-35.85L631.70-35.85Q634.14-33.30 635.42-29.97L635.42-29.97L635.42-29.97Q636.70-26.64 636.70-21.98L636.70-21.98L636.70-21.98Q636.70-17.76 635.09-13.65L635.09-13.65L635.09-13.65Q633.48-9.55 630.31-6.38L630.31-6.38L630.31-6.38Q627.15-3.22 622.49-1.28L622.49-1.28L622.49-1.28Q617.83 0.67 611.72 0.67L611.72 0.67L611.72 0.67Q607.39 0.67 603.51-0.22L603.51-0.22L603.51-0.22Q599.62-1.11 596.46-2.28L596.46-2.28L596.46-2.28Q593.29-3.44 591.02-4.66L591.02-4.66L591.02-4.66Q588.74-5.88 587.63-6.55L587.63-6.55L592.30-16.76L594.29-15.65L594.29-15.65Q596.29-14.54 599.18-13.21L599.18-13.21L599.18-13.21Q602.06-11.88 605.28-10.77L605.28-10.77L605.28-10.77Q608.50-9.66 610.83-9.66L610.83-9.66L610.83-9.66Q616.72-9.66 619.60-12.54L619.60-12.54L619.60-12.54Q622.49-15.43 622.49-20.65L622.49-20.65L622.49-20.65Q622.49-23.09 621.71-24.92L621.71-24.92L621.71-24.92Q620.93-26.75 619.49-28.08L619.49-28.08L619.49-28.08Q618.05-29.41 615.99-30.47L615.99-30.47L615.99-30.47Q613.94-31.52 611.39-32.52L611.39-32.52L611.39-32.52Q606.39-34.63 602.45-36.74L602.45-36.74L602.45-36.74Q598.51-38.85 595.74-41.57L595.74-41.57L595.74-41.57Q592.96-44.29 591.52-47.79L591.52-47.79L591.52-47.79Q590.08-51.28 590.08-56.17L590.08-56.17L590.08-56.17Q590.08-60.27 591.85-63.88L591.85-63.88L591.85-63.88Q593.63-67.49 596.74-70.21L596.74-70.21L596.74-70.21Q599.84-72.93 604.17-74.54L604.17-74.54L604.17-74.54Q608.50-76.15 613.72-76.15ZM647.80-78.25L660.45-80.47L660.45-48.84L660.45-48.84Q661.34-49.95 662.73-51.23L662.73-51.23L662.73-51.23Q664.11-52.50 666.22-53.61L666.22-53.61L666.22-53.61Q668.33-54.72 671.11-55.50L671.11-55.50L671.11-55.50Q673.88-56.28 677.54-56.28L677.54-56.28L677.54-56.28Q680.98-56.28 683.98-55.28L683.98-55.28L683.98-55.28Q686.98-54.28 689.14-52.39L689.14-52.39L689.14-52.39Q691.31-50.51 692.58-47.79L692.58-47.79L692.58-47.79Q693.86-45.07 693.86-41.63L693.86-41.63L693.86-41.63Q693.86-36.63 691.81-33.41L691.81-33.41L691.81-33.41Q689.75-30.19 687.20-28.30L687.20-28.30L687.20-28.30Q684.31-26.09 680.54-24.75L680.54-24.75L696.08 0L681.76 0L665.78-27.64L665.67-28.75L665.67-28.75Q666.55-28.97 669.05-29.75L669.05-29.75L669.05-29.75Q671.55-30.53 674.21-31.97L674.21-31.97L674.21-31.97Q676.88-33.41 678.93-35.58L678.93-35.58L678.93-35.58Q680.98-37.74 680.98-40.74L680.98-40.74L680.98-40.74Q680.98-43.96 679.10-45.62L679.10-45.62L679.10-45.62Q677.21-47.29 674.10-47.29L674.10-47.29L674.10-47.29Q669.88-47.29 667.22-45.62L667.22-45.62L667.22-45.62Q664.56-43.96 663.06-41.85L663.06-41.85L663.06-41.85Q661.56-39.74 661.00-37.85L661.00-37.85L661.00-37.85Q660.45-35.96 660.45-35.63L660.45-35.63L660.45 0L647.80 0L647.80-78.25ZM717.17 0.44L717.17 0.44Q711.29 0.44 708.18-3.05L708.18-3.05L708.18-3.05Q705.07-6.55 705.07-12.10L705.07-12.10L705.07-55.28L717.73-55.28L717.73-13.21L717.73-13.21Q717.73-10.66 718.50-9.77L718.50-9.77L718.50-9.77Q719.28-8.88 720.83-8.88L720.83-8.88L720.83-8.88Q721.28-8.88 721.78-8.88L721.78-8.88L721.78-8.88Q722.28-8.88 722.72-8.99L722.72-8.99L722.72-8.99Q723.16-8.99 723.72-9.10L723.72-9.10L725.05-1.11L725.05-1.11Q724.27-0.67 723.05-0.33L723.05-0.33L723.05-0.33Q722.05 0 720.56 0.22L720.56 0.22L720.56 0.22Q719.06 0.44 717.17 0.44L717.17 0.44ZM711.62-79.92L711.62-79.92Q715.17-79.92 717.06-77.81L717.06-77.81L717.06-77.81Q718.95-75.70 718.95-72.37L718.95-72.37L718.95-72.37Q718.95-69.04 717.00-66.82L717.00-66.82L717.00-66.82Q715.06-64.60 711.29-64.60L711.29-64.60L711.29-64.60Q707.74-64.60 705.79-66.77L705.79-66.77L705.79-66.77Q703.85-68.93 703.85-72.04L703.85-72.04L703.85-72.04Q703.85-75.48 705.79-77.70L705.79-77.70L705.79-77.70Q707.74-79.92 711.62-79.92L711.62-79.92ZM745.70 0.44L745.70 0.44Q739.37 0.44 736.37-3.05L736.37-3.05L736.37-3.05Q733.38-6.55 733.38-11.99L733.38-11.99L733.38-78.25L746.03-80.59L746.03-13.21L746.03-13.21Q746.03-10.66 747.03-9.66L747.03-9.66L747.03-9.66Q748.03-8.66 749.92-8.66L749.92-8.66L749.92-8.66Q751.03-8.66 752.08-8.77L752.08-8.77L752.08-8.77Q753.13-8.88 754.02-9.10L754.02-9.10L754.02-9.10Q755.02-9.32 755.80-9.55L755.80-9.55L757.35-1.55L757.35-1.55Q755.91-1.00 754.13-0.56L754.13-0.56L754.13-0.56Q752.58-0.11 750.47 0.17L750.47 0.17L750.47 0.17Q748.36 0.44 745.70 0.44L745.70 0.44ZM778.00 0.44L778.00 0.44Q771.67 0.44 768.68-3.05L768.68-3.05L768.68-3.05Q765.68-6.55 765.68-11.99L765.68-11.99L765.68-78.25L778.33-80.59L778.33-13.21L778.33-13.21Q778.33-10.66 779.33-9.66L779.33-9.66L779.33-9.66Q780.33-8.66 782.22-8.66L782.22-8.66L782.22-8.66Q783.33-8.66 784.38-8.77L784.38-8.77L784.38-8.77Q785.44-8.88 786.32-9.10L786.32-9.10L786.32-9.10Q787.32-9.32 788.10-9.55L788.10-9.55L789.65-1.55L789.65-1.55Q788.21-1.00 786.44-0.56L786.44-0.56L786.44-0.56Q784.88-0.11 782.77 0.17L782.77 0.17L782.77 0.17Q780.66 0.44 778.00 0.44L778.00 0.44ZM814.85-56.61L814.85-56.61L814.85-56.61Q818.07-56.61 821.18-55.94L821.18-55.94L821.18-55.94Q824.29-55.28 826.73-54.39L826.73-54.39L826.73-54.39Q829.61-53.39 832.06-52.28L832.06-52.28L828.28-43.62L828.28-43.62Q826.06-44.62 823.84-45.40L823.84-45.40L823.84-45.40Q821.96-46.06 819.68-46.68L819.68-46.68L819.68-46.68Q817.40-47.29 815.18-47.29L815.18-47.29L815.18-47.29Q812.63-47.29 810.80-46.06L810.80-46.06L810.80-46.06Q808.97-44.84 808.97-42.40L808.97-42.40L808.97-42.40Q808.97-36.08 818.18-32.52L818.18-32.52L818.18-32.52Q821.62-31.19 824.40-29.69L824.40-29.69L824.40-29.69Q827.17-28.19 829.11-26.20L829.11-26.20L829.11-26.20Q831.06-24.20 832.06-21.59L832.06-21.59L832.06-21.59Q833.06-18.98 833.06-15.43L833.06-15.43L833.06-15.43Q833.06-12.32 831.78-9.32L831.78-9.32L831.78-9.32Q830.50-6.33 828.00-4.00L828.00-4.00L828.00-4.00Q825.51-1.67 821.90-0.28L821.90-0.28L821.90-0.28Q818.29 1.11 813.74 1.11L813.74 1.11L813.74 1.11Q810.08 1.11 806.53 0.28L806.53 0.28L806.53 0.28Q802.97-0.56 800.14-1.55L800.14-1.55L800.14-1.55Q797.31-2.55 795.65-3.44L795.65-3.44L793.98-4.22L798.09-13.54L799.53-12.77L799.53-12.77Q800.98-11.88 803.20-10.88L803.20-10.88L803.20-10.88Q805.42-9.88 807.97-9.05L807.97-9.05L807.97-9.05Q810.52-8.21 812.63-8.21L812.63-8.21L812.63-8.21Q816.52-8.21 818.40-9.77L818.40-9.77L818.40-9.77Q820.29-11.32 820.29-13.88L820.29-13.88L820.29-13.88Q820.29-16.76 818.24-19.15L818.24-19.15L818.24-19.15Q816.18-21.53 812.08-23.09L812.08-23.09L812.08-23.09Q803.53-26.31 799.81-30.41L799.81-30.41L799.81-30.41Q796.09-34.52 796.09-41.07L796.09-41.07L796.09-41.07Q796.09-44.18 797.54-47.01L797.54-47.01L797.54-47.01Q798.98-49.84 801.48-52.00L801.48-52.00L801.48-52.00Q803.97-54.17 807.41-55.39L807.41-55.39L807.41-55.39Q810.86-56.61 814.85-56.61Z" fill="#c887ff"></path></g></g><style>text {
  font-size: 64px;
  font-family: Arial Black;
  dominant-baseline: central;
  text-anchor: middle;
}</style></svg>