<svg width="1455.40009765625px" height="202.4px" xmlns="http://www.w3.org/2000/svg" viewBox="-477.700048828125 -26.200000000000003 1455.40009765625 202.4" style="background: rgb(21, 21, 21);" preserveAspectRatio="xMidYMid"><defs><filter id="editing-hover" x="-100%" y="-100%" width="300%" height="300%"><feFlood flood-color="#000000" result="flood"></feFlood><feComposite operator="in" in2="SourceAlpha" in="flood" result="shadow"></feComposite><feOffset dx="-4" dy="-4" in="SourceGraphic" result="offset-1"></feOffset><feOffset dx="4" dy="4" in="shadow" result="offset-2"></feOffset><feMerge><feMergeNode in="offset-2"></feMergeNode><feMergeNode in="offset-1"></feMergeNode></feMerge></filter></defs><g filter="url(#editing-hover)"><g transform="translate(-281.16590452194214, 127.66999769210815)"><path d="M7.77 0L7.77-75.15L7.77-75.15Q8.55-75.15 11.32-75.20L11.32-75.20L11.32-75.20Q14.10-75.26 17.54-75.26L17.54-75.26L17.54-75.26Q20.98-75.26 24.42-75.31L24.42-75.31L24.42-75.31Q27.86-75.37 30.08-75.37L30.08-75.37L30.08-75.37Q43.62-75.37 50.06-69.32L50.06-69.32L50.06-69.32Q56.50-63.27 56.50-52.73L56.50-52.73L56.50-52.73Q56.50-47.62 54.72-43.35L54.72-43.35L54.72-43.35Q52.95-39.07 49.45-35.96L49.45-35.96L49.45-35.96Q45.95-32.86 40.79-31.14L40.79-31.14L40.79-31.14Q35.63-29.41 28.75-29.41L28.75-29.41L20.98-29.41L20.98 0L7.77 0ZM20.98-65.82L20.98-39.29L29.53-39.29L29.53-39.29Q36.52-39.29 39.52-42.96L39.52-42.96L39.52-42.96Q42.51-46.62 42.51-52.28L42.51-52.28L42.51-52.28Q42.51-54.83 41.85-57.28L41.85-57.28L41.85-57.28Q41.18-59.72 39.57-61.66L39.57-61.66L39.57-61.66Q37.96-63.60 35.24-64.77L35.24-64.77L35.24-64.77Q32.52-65.93 28.42-65.93L28.42-65.93L28.42-65.93Q25.97-65.93 24.14-65.93L24.14-65.93L24.14-65.93Q22.31-65.93 20.98-65.82L20.98-65.82ZM83.58-56.61L83.58-56.61Q96.35-56.61 102.12-49.06L102.12-49.06L102.12-49.06Q107.89-41.51 107.89-28.30L107.89-28.30L107.89-28.30Q107.89-22.09 106.34-16.71L106.34-16.71L106.34-16.71Q104.78-11.32 101.62-7.38L101.62-7.38L101.62-7.38Q98.46-3.44 93.68-1.17L93.68-1.17L93.68-1.17Q88.91 1.11 82.58 1.11L82.58 1.11L82.58 1.11Q76.26 1.11 71.65-0.83L71.65-0.83L71.65-0.83Q67.04-2.77 64.05-6.44L64.05-6.44L64.05-6.44Q61.05-10.10 59.66-15.32L59.66-15.32L59.66-15.32Q58.27-20.54 58.27-27.08L58.27-27.08L58.27-27.08Q58.27-33.41 59.83-38.79L59.83-38.79L59.83-38.79Q61.38-44.18 64.55-48.12L64.55-48.12L64.55-48.12Q67.71-52.06 72.48-54.33L72.48-54.33L72.48-54.33Q77.26-56.61 83.58-56.61L83.58-56.61ZM82.47-47.29L82.47-47.29Q79.25-47.29 77.20-45.84L77.20-45.84L77.20-45.84Q75.15-44.40 73.98-41.79L73.98-41.79L73.98-41.79Q72.82-39.18 72.37-35.69L72.37-35.69L72.37-35.69Q71.93-32.19 71.93-28.19L71.93-28.19L71.93-28.19Q71.93-24.09 72.43-20.42L72.43-20.42L72.43-20.42Q72.93-16.76 74.26-14.04L74.26-14.04L74.26-14.04Q75.59-11.32 77.87-9.77L77.87-9.77L77.87-9.77Q80.14-8.21 83.69-8.21L83.69-8.21L83.69-8.21Q86.91-8.21 88.97-9.66L88.97-9.66L88.97-9.66Q91.02-11.10 92.19-13.71L92.19-13.71L92.19-13.71Q93.35-16.32 93.80-19.76L93.80-19.76L93.80-19.76Q94.24-23.20 94.24-27.20L94.24-27.20L94.24-27.20Q94.24-31.30 93.74-34.97L93.74-34.97L93.74-34.97Q93.24-38.63 91.91-41.40L91.91-41.40L91.91-41.40Q90.58-44.18 88.30-45.73L88.30-45.73L88.30-45.73Q86.03-47.29 82.47-47.29L82.47-47.29ZM143.75-43.73L143.75-43.73Q141.75-43.73 139.75-42.73L139.75-42.73L139.75-42.73Q137.75-41.74 136.20-40.02L136.20-40.02L136.20-40.02Q134.64-38.30 133.64-35.85L133.64-35.85L133.64-35.85Q132.65-33.41 132.65-30.41L132.65-30.41L132.65 0L119.99 0L119.99-27.97L119.99-27.97Q119.99-34.63 119.10-39.13L119.10-39.13L119.10-39.13Q118.22-43.62 117.22-46.40L117.22-46.40L117.22-46.40Q116.00-49.62 114.55-51.62L114.55-51.62L124.54-55.61L124.54-55.61Q125.54-54.39 126.65-52.61L126.65-52.61L126.65-52.61Q127.54-51.06 128.43-48.95L128.43-48.95L128.43-48.95Q129.31-46.84 129.87-43.96L129.87-43.96L129.87-43.96Q132.09-50.39 136.31-53.22L136.31-53.22L136.31-53.22Q140.53-56.05 145.85-56.05L145.85-56.05L145.85-56.05Q148.41-56.05 150.63-55.44L150.63-55.44L150.63-55.44Q152.85-54.83 152.74-54.83L152.74-54.83L149.18-42.51L149.18-42.51Q149.30-42.51 147.91-43.12L147.91-43.12L147.91-43.12Q146.52-43.73 143.75-43.73L143.75-43.73ZM154.96-46.29L154.96-55.28L164.95-55.28L167.17-68.27L177.60-70.60L177.60-55.28L191.25-55.28L189.70-46.29L177.60-46.29L177.60-13.43L177.60-13.43Q177.60-10.54 179.15-9.71L179.15-9.71L179.15-9.71Q180.71-8.88 182.59-8.88L182.59-8.88L182.59-8.88Q184.15-8.88 185.70-9.10L185.70-9.10L185.70-9.10Q187.26-9.32 188.48-9.66L188.48-9.66L188.48-9.66Q189.92-9.99 191.25-10.43L191.25-10.43L193.36-2.11L192.36-1.78L192.36-1.78Q191.36-1.33 189.42-0.83L189.42-0.83L189.42-0.83Q187.48-0.33 184.87 0.06L184.87 0.06L184.87 0.06Q182.26 0.44 179.15 0.44L179.15 0.44L179.15 0.44Q176.05 0.44 173.44-0.22L173.44-0.22L173.44-0.22Q170.83-0.89 168.94-2.39L168.94-2.39L168.94-2.39Q167.06-3.89 166.00-6.22L166.00-6.22L166.00-6.22Q164.95-8.55 164.95-11.99L164.95-11.99L164.95-46.29L154.96-46.29ZM235.76-75.48L230.32-68.27L230.32-68.27Q229.99-68.60 228.27-69.49L228.27-69.49L228.27-69.49Q226.55-70.37 225.00-70.37L225.00-70.37L225.00-70.37Q224.00-70.37 222.56-70.10L222.56-70.10L222.56-70.10Q221.11-69.82 219.78-68.88L219.78-68.88L219.78-68.88Q218.45-67.93 217.50-66.16L217.50-66.16L217.50-66.16Q216.56-64.38 216.56-61.49L216.56-61.49L216.56-61.49Q216.56-60.27 216.73-58.72L216.73-58.72L216.73-58.72Q216.89-57.16 217.45-55.28L217.45-55.28L231.21-55.28L229.66-46.29L218.12-46.29L218.12-2.77L218.12-2.77Q218.12 3.89 216.39 8.38L216.39 8.38L216.39 8.38Q214.67 12.88 211.90 15.93L211.90 15.93L211.90 15.93Q209.12 18.98 205.74 21.03L205.74 21.03L205.74 21.03Q202.35 23.09 199.02 24.75L199.02 24.75L193.92 16.32L193.92 16.32Q198.02 14.21 200.35 11.82L200.35 11.82L200.35 11.82Q202.69 9.44 203.85 7.05L203.85 7.05L203.85 7.05Q205.02 4.66 205.24 2.44L205.24 2.44L205.24 2.44Q205.46 0.22 205.46-1.55L205.46-1.55L205.46-46.29L195.47-46.29L195.47-55.28L205.13-55.28L205.13-55.28Q204.68-56.94 204.52-58.72L204.52-58.72L204.52-58.72Q204.35-60.49 204.35-62.05L204.35-62.05L204.35-62.05Q204.35-66.49 205.96-69.93L205.96-69.93L205.96-69.93Q207.57-73.37 210.29-75.59L210.29-75.59L210.29-75.59Q213.01-77.81 216.62-78.98L216.62-78.98L216.62-78.98Q220.22-80.14 224.11-80.14L224.11-80.14L224.11-80.14Q228.44-80.14 231.21-78.75L231.21-78.75L231.21-78.75Q233.99-77.37 235.76-75.48L235.76-75.48ZM258.85-56.61L258.85-56.61Q271.62-56.61 277.39-49.06L277.39-49.06L277.39-49.06Q283.16-41.51 283.16-28.30L283.16-28.30L283.16-28.30Q283.16-22.09 281.61-16.71L281.61-16.71L281.61-16.71Q280.05-11.32 276.89-7.38L276.89-7.38L276.89-7.38Q273.73-3.44 268.95-1.17L268.95-1.17L268.95-1.17Q264.18 1.11 257.85 1.11L257.85 1.11L257.85 1.11Q251.53 1.11 246.92-0.83L246.92-0.83L246.92-0.83Q242.31-2.77 239.32-6.44L239.32-6.44L239.32-6.44Q236.32-10.10 234.93-15.32L234.93-15.32L234.93-15.32Q233.54-20.54 233.54-27.08L233.54-27.08L233.54-27.08Q233.54-33.41 235.10-38.79L235.10-38.79L235.10-38.79Q236.65-44.18 239.82-48.12L239.82-48.12L239.82-48.12Q242.98-52.06 247.75-54.33L247.75-54.33L247.75-54.33Q252.52-56.61 258.85-56.61L258.85-56.61ZM257.74-47.29L257.74-47.29Q254.52-47.29 252.47-45.84L252.47-45.84L252.47-45.84Q250.42-44.40 249.25-41.79L249.25-41.79L249.25-41.79Q248.08-39.18 247.64-35.69L247.64-35.69L247.64-35.69Q247.20-32.19 247.20-28.19L247.20-28.19L247.20-28.19Q247.20-24.09 247.70-20.42L247.70-20.42L247.70-20.42Q248.20-16.76 249.53-14.04L249.53-14.04L249.53-14.04Q250.86-11.32 253.14-9.77L253.14-9.77L253.14-9.77Q255.41-8.21 258.96-8.21L258.96-8.21L258.96-8.21Q262.18-8.21 264.24-9.66L264.24-9.66L264.24-9.66Q266.29-11.10 267.45-13.71L267.45-13.71L267.45-13.71Q268.62-16.32 269.06-19.76L269.06-19.76L269.06-19.76Q269.51-23.20 269.51-27.20L269.51-27.20L269.51-27.20Q269.51-31.30 269.01-34.97L269.01-34.97L269.01-34.97Q268.51-38.63 267.18-41.40L267.18-41.40L267.18-41.40Q265.84-44.18 263.57-45.73L263.57-45.73L263.57-45.73Q261.29-47.29 257.74-47.29L257.74-47.29ZM306.03 0.44L306.03 0.44Q299.70 0.44 296.70-3.05L296.70-3.05L296.70-3.05Q293.71-6.55 293.71-11.99L293.71-11.99L293.71-78.25L306.36-80.59L306.36-13.21L306.36-13.21Q306.36-10.66 307.36-9.66L307.36-9.66L307.36-9.66Q308.36-8.66 310.25-8.66L310.25-8.66L310.25-8.66Q311.36-8.66 312.41-8.77L312.41-8.77L312.41-8.77Q313.46-8.88 314.35-9.10L314.35-9.10L314.35-9.10Q315.35-9.32 316.13-9.55L316.13-9.55L317.68-1.55L317.68-1.55Q316.24-1.00 314.46-0.56L314.46-0.56L314.46-0.56Q312.91-0.11 310.80 0.17L310.80 0.17L310.80 0.17Q308.69 0.44 306.03 0.44L306.03 0.44ZM338.22 0.44L338.22 0.44Q332.33 0.44 329.23-3.05L329.23-3.05L329.23-3.05Q326.12-6.55 326.12-12.10L326.12-12.10L326.12-55.28L338.77-55.28L338.77-13.21L338.77-13.21Q338.77-10.66 339.55-9.77L339.55-9.77L339.55-9.77Q340.33-8.88 341.88-8.88L341.88-8.88L341.88-8.88Q342.32-8.88 342.82-8.88L342.82-8.88L342.82-8.88Q343.32-8.88 343.77-8.99L343.77-8.99L343.77-8.99Q344.21-8.99 344.77-9.10L344.77-9.10L346.10-1.11L346.10-1.11Q345.32-0.67 344.10-0.33L344.10-0.33L344.10-0.33Q343.10 0 341.60 0.22L341.60 0.22L341.60 0.22Q340.10 0.44 338.22 0.44L338.22 0.44ZM332.67-79.92L332.67-79.92Q336.22-79.92 338.11-77.81L338.11-77.81L338.11-77.81Q339.99-75.70 339.99-72.37L339.99-72.37L339.99-72.37Q339.99-69.04 338.05-66.82L338.05-66.82L338.05-66.82Q336.11-64.60 332.33-64.60L332.33-64.60L332.33-64.60Q328.78-64.60 326.84-66.77L326.84-66.77L326.84-66.77Q324.90-68.93 324.90-72.04L324.90-72.04L324.90-72.04Q324.90-75.48 326.84-77.70L326.84-77.70L326.84-77.70Q328.78-79.92 332.67-79.92L332.67-79.92ZM376.96-56.61L376.96-56.61Q389.72-56.61 395.49-49.06L395.49-49.06L395.49-49.06Q401.26-41.51 401.26-28.30L401.26-28.30L401.26-28.30Q401.26-22.09 399.71-16.71L399.71-16.71L399.71-16.71Q398.16-11.32 394.99-7.38L394.99-7.38L394.99-7.38Q391.83-3.44 387.06-1.17L387.06-1.17L387.06-1.17Q382.28 1.11 375.96 1.11L375.96 1.11L375.96 1.11Q369.63 1.11 365.02-0.83L365.02-0.83L365.02-0.83Q360.42-2.77 357.42-6.44L357.42-6.44L357.42-6.44Q354.42-10.10 353.04-15.32L353.04-15.32L353.04-15.32Q351.65-20.54 351.65-27.08L351.65-27.08L351.65-27.08Q351.65-33.41 353.20-38.79L353.20-38.79L353.20-38.79Q354.76-44.18 357.92-48.12L357.92-48.12L357.92-48.12Q361.08-52.06 365.86-54.33L365.86-54.33L365.86-54.33Q370.63-56.61 376.96-56.61L376.96-56.61ZM375.85-47.29L375.85-47.29Q372.63-47.29 370.57-45.84L370.57-45.84L370.57-45.84Q368.52-44.40 367.35-41.79L367.35-41.79L367.35-41.79Q366.19-39.18 365.75-35.69L365.75-35.69L365.75-35.69Q365.30-32.19 365.30-28.19L365.30-28.19L365.30-28.19Q365.30-24.09 365.80-20.42L365.80-20.42L365.80-20.42Q366.30-16.76 367.63-14.04L367.63-14.04L367.63-14.04Q368.96-11.32 371.24-9.77L371.24-9.77L371.24-9.77Q373.51-8.21 377.07-8.21L377.07-8.21L377.07-8.21Q380.29-8.21 382.34-9.66L382.34-9.66L382.34-9.66Q384.39-11.10 385.56-13.71L385.56-13.71L385.56-13.71Q386.72-16.32 387.17-19.76L387.17-19.76L387.17-19.76Q387.61-23.20 387.61-27.20L387.61-27.20L387.61-27.20Q387.61-31.30 387.11-34.97L387.11-34.97L387.11-34.97Q386.61-38.63 385.28-41.40L385.28-41.40L385.28-41.40Q383.95-44.18 381.67-45.73L381.67-45.73L381.67-45.73Q379.40-47.29 375.85-47.29L375.85-47.29ZM495.84-28.86L483.40 0L474.08 0L461.54-28.53L461.54-28.53Q460.98-29.75 460.15-31.86L460.15-31.86L460.15-31.86Q459.32-33.97 458.32-36.52L458.32-36.52L458.32-36.52Q457.32-39.07 456.21-41.90L456.21-41.90L456.21-41.90Q455.10-44.73 454.10-47.62L454.10-47.62L454.10-47.62Q454.10-44.73 454.05-41.90L454.05-41.90L454.05-41.90Q453.99-39.07 453.88-36.57L453.88-36.57L453.88-36.57Q453.77-34.08 453.71-32.13L453.71-32.13L453.71-32.13Q453.66-30.19 453.66-29.08L453.66-29.08L452.55 0L440.12 0L444.56-75.37L454.88-75.37L473.86-28.30L473.86-28.30Q474.86-25.75 476.13-22.75L476.13-22.75L476.13-22.75Q477.41-19.76 478.52-16.87L478.52-16.87L478.52-16.87Q479.63-19.76 480.85-22.70L480.85-22.70L480.85-22.70Q482.07-25.64 483.18-28.30L483.18-28.30L502.27-75.37L512.38-75.37L516.82 0L504.50 0L503.27-28.75L503.27-28.75Q503.16-31.52 503.00-36.69L503.00-36.69L503.00-36.69Q502.83-41.85 502.72-47.17L502.72-47.17L502.72-47.17Q501.72-44.40 500.67-41.63L500.67-41.63L500.67-41.63Q499.61-38.85 498.72-36.41L498.72-36.41L498.72-36.41Q497.83-33.97 497.06-31.97L497.06-31.97L497.06-31.97Q496.28-29.97 495.84-28.86L495.84-28.86ZM574.65-52.95L574.65-26.75L574.65-26.75Q574.65-20.09 575.48-15.60L575.48-15.60L575.48-15.60Q576.31-11.10 577.31-8.32L577.31-8.32L577.31-8.32Q578.53-5.00 579.97-3.11L579.97-3.11L570.10 0.89L570.10 0.89Q568.65-0.56 567.43-2.55L567.43-2.55L567.43-2.55Q566.43-4.33 565.54-6.83L565.54-6.83L565.54-6.83Q564.66-9.32 564.43-12.77L564.43-12.77L564.43-12.77Q562.55-6.11 558.39-2.72L558.39-2.72L558.39-2.72Q554.22 0.67 547.12 0.67L547.12 0.67L547.12 0.67Q541.90 0.67 538.07-1.28L538.07-1.28L538.07-1.28Q534.24-3.22 531.69-6.83L531.69-6.83L531.69-6.83Q529.14-10.43 527.92-15.54L527.92-15.54L527.92-15.54Q526.69-20.65 526.69-26.86L526.69-26.86L526.69-26.86Q526.69-33.19 528.64-38.57L528.64-38.57L528.64-38.57Q530.58-43.96 534.08-47.84L534.08-47.84L534.08-47.84Q537.57-51.73 542.46-53.95L542.46-53.95L542.46-53.95Q547.34-56.17 553.22-56.17L553.22-56.17L553.22-56.17Q556.55-56.17 560.16-55.67L560.16-55.67L560.16-55.67Q563.77-55.17 566.88-54.61L566.88-54.61L566.88-54.61Q569.98-54.06 572.15-53.56L572.15-53.56L572.15-53.56Q574.31-53.06 574.65-52.95L574.65-52.95ZM549.23-8.21L549.23-8.21Q552.00-8.21 554.33-10.10L554.33-10.10L554.33-10.10Q556.66-11.99 558.39-15.04L558.39-15.04L558.39-15.04Q560.11-18.09 561.05-22.03L561.05-22.03L561.05-22.03Q561.99-25.97 561.99-30.08L561.99-30.08L561.99-46.06L561.99-46.06Q560.88-46.40 558.66-46.84L558.66-46.84L558.66-46.84Q556.44-47.29 554.67-47.29L554.67-47.29L554.67-47.29Q550.45-47.29 547.73-45.84L547.73-45.84L547.73-45.84Q545.01-44.40 543.34-41.85L543.34-41.85L543.34-41.85Q541.68-39.29 541.01-35.74L541.01-35.74L541.01-35.74Q540.35-32.19 540.35-27.97L540.35-27.97L540.35-27.97Q540.35-24.09 540.57-20.54L540.57-20.54L540.57-20.54Q540.79-16.98 541.74-14.21L541.74-14.21L541.74-14.21Q542.68-11.43 544.45-9.82L544.45-9.82L544.45-9.82Q546.23-8.21 549.23-8.21L549.23-8.21ZM634.25 0L621.71 0L621.71-35.85L621.71-35.85Q621.71-40.52 620.05-43.35L620.05-43.35L620.05-43.35Q618.38-46.18 614.38-46.18L614.38-46.18L614.38-46.18Q611.83-46.18 609.45-44.90L609.45-44.90L609.45-44.90Q607.06-43.62 605.17-41.18L605.17-41.18L605.17-41.18Q603.28-38.74 602.12-35.24L602.12-35.24L602.12-35.24Q600.95-31.75 600.95-27.42L600.95-27.42L600.95 0L588.30 0L588.30-27.97L588.30-27.97Q588.30-34.63 587.41-39.13L587.41-39.13L587.41-39.13Q586.52-43.62 585.52-46.40L585.52-46.40L585.52-46.40Q584.30-49.62 582.86-51.62L582.86-51.62L592.85-55.61L592.85-55.61Q593.96-54.39 595.07-52.61L595.07-52.61L595.07-52.61Q595.96-51.06 596.85-48.78L596.85-48.78L596.85-48.78Q597.73-46.51 598.29-43.62L598.29-43.62L598.29-43.62Q601.18-50.28 606.61-53.22L606.61-53.22L606.61-53.22Q612.05-56.17 618.05-56.17L618.05-56.17L618.05-56.17Q626.59-56.17 630.42-51.00L630.42-51.00L630.42-51.00Q634.25-45.84 634.25-37.07L634.25-37.07L634.25 0ZM692.86-52.95L692.86-26.75L692.86-26.75Q692.86-20.09 693.69-15.60L693.69-15.60L693.69-15.60Q694.53-11.10 695.53-8.32L695.53-8.32L695.53-8.32Q696.75-5.00 698.19-3.11L698.19-3.11L688.31 0.89L688.31 0.89Q686.87-0.56 685.65-2.55L685.65-2.55L685.65-2.55Q684.65-4.33 683.76-6.83L683.76-6.83L683.76-6.83Q682.87-9.32 682.65-12.77L682.65-12.77L682.65-12.77Q680.76-6.11 676.60-2.72L676.60-2.72L676.60-2.72Q672.44 0.67 665.33 0.67L665.33 0.67L665.33 0.67Q660.12 0.67 656.29-1.28L656.29-1.28L656.29-1.28Q652.46-3.22 649.90-6.83L649.90-6.83L649.90-6.83Q647.35-10.43 646.13-15.54L646.13-15.54L646.13-15.54Q644.91-20.65 644.91-26.86L644.91-26.86L644.91-26.86Q644.91-33.19 646.85-38.57L646.85-38.57L646.85-38.57Q648.79-43.96 652.29-47.84L652.29-47.84L652.29-47.84Q655.79-51.73 660.67-53.95L660.67-53.95L660.67-53.95Q665.56-56.17 671.44-56.17L671.44-56.17L671.44-56.17Q674.77-56.17 678.38-55.67L678.38-55.67L678.38-55.67Q681.98-55.17 685.09-54.61L685.09-54.61L685.09-54.61Q688.20-54.06 690.36-53.56L690.36-53.56L690.36-53.56Q692.53-53.06 692.86-52.95L692.86-52.95ZM667.44-8.21L667.44-8.21Q670.22-8.21 672.55-10.10L672.55-10.10L672.55-10.10Q674.88-11.99 676.60-15.04L676.60-15.04L676.60-15.04Q678.32-18.09 679.26-22.03L679.26-22.03L679.26-22.03Q680.21-25.97 680.21-30.08L680.21-30.08L680.21-46.06L680.21-46.06Q679.10-46.40 676.88-46.84L676.88-46.84L676.88-46.84Q674.66-47.29 672.88-47.29L672.88-47.29L672.88-47.29Q668.66-47.29 665.94-45.84L665.94-45.84L665.94-45.84Q663.22-44.40 661.56-41.85L661.56-41.85L661.56-41.85Q659.89-39.29 659.23-35.74L659.23-35.74L659.23-35.74Q658.56-32.19 658.56-27.97L658.56-27.97L658.56-27.97Q658.56-24.09 658.78-20.54L658.78-20.54L658.78-20.54Q659.01-16.98 659.95-14.21L659.95-14.21L659.95-14.21Q660.89-11.43 662.67-9.82L662.67-9.82L662.67-9.82Q664.45-8.21 667.44-8.21L667.44-8.21ZM712.95 19.43L716.06 9.77L716.06 9.77Q717.73 10.43 719.61 11.16L719.61 11.16L719.61 11.16Q721.50 11.88 723.61 12.54L723.61 12.54L723.61 12.54Q725.72 13.21 727.88 13.65L727.88 13.65L727.88 13.65Q730.05 14.10 732.16 14.10L732.16 14.10L732.16 14.10Q738.37 14.10 741.15 10.38L741.15 10.38L741.15 10.38Q743.92 6.66 743.92 0.78L743.92 0.78L743.92 0.78Q743.92-5.00 741.48-10.88L741.48-10.88L741.48-10.88Q739.59-5.22 735.54-2.28L735.54-2.28L735.54-2.28Q731.49 0.67 724.83 0.67L724.83 0.67L724.83 0.67Q719.61 0.67 715.78-1.28L715.78-1.28L715.78-1.28Q711.95-3.22 709.40-6.83L709.40-6.83L709.40-6.83Q706.85-10.43 705.63-15.54L705.63-15.54L705.63-15.54Q704.41-20.65 704.41-26.86L704.41-26.86L704.41-26.86Q704.41-33.19 706.35-38.57L706.35-38.57L706.35-38.57Q708.29-43.96 711.79-47.84L711.79-47.84L711.79-47.84Q715.28-51.73 720.17-53.95L720.17-53.95L720.17-53.95Q725.05-56.17 730.93-56.17L730.93-56.17L730.93-56.17Q733.60-56.17 736.65-55.83L736.65-55.83L736.65-55.83Q739.70-55.50 742.65-55.00L742.65-55.00L742.65-55.00Q745.59-54.50 748.20-53.95L748.20-53.95L748.20-53.95Q750.80-53.39 752.69-52.95L752.69-52.95L752.14-22.42L752.14-22.42Q752.02-19.09 752.52-16.32L752.52-16.32L752.52-16.32Q753.02-13.54 753.69-10.82L753.69-10.82L753.69-10.82Q754.36-8.10 754.91-5.33L754.91-5.33L754.91-5.33Q755.47-2.55 755.47 0.78L755.47 0.78L755.47 0.78Q755.47 12.54 749.47 18.32L749.47 18.32L749.47 18.32Q743.48 24.09 733.27 24.09L733.27 24.09L733.27 24.09Q729.94 24.09 726.61 23.48L726.61 23.48L726.61 23.48Q723.28 22.87 720.45 22.09L720.45 22.09L720.45 22.09Q717.61 21.31 715.62 20.54L715.62 20.54L715.62 20.54Q713.62 19.76 712.95 19.43L712.95 19.43ZM726.94-8.21L726.94-8.21Q729.60-8.21 731.88-9.99L731.88-9.99L731.88-9.99Q734.15-11.77 735.93-14.71L735.93-14.71L735.93-14.71Q737.71-17.65 738.70-21.42L738.70-21.42L738.70-21.42Q739.70-25.20 739.70-29.19L739.70-29.19L739.70-46.06L739.70-46.06Q738.59-46.40 736.37-46.84L736.37-46.84L736.37-46.84Q734.15-47.29 732.38-47.29L732.38-47.29L732.38-47.29Q728.16-47.29 725.44-45.84L725.44-45.84L725.44-45.84Q722.72-44.40 721.06-41.85L721.06-41.85L721.06-41.85Q719.39-39.29 718.72-35.74L718.72-35.74L718.72-35.74Q718.06-32.19 718.06-27.97L718.06-27.97L718.06-27.97Q718.06-24.09 718.28-20.54L718.28-20.54L718.28-20.54Q718.50-16.98 719.45-14.21L719.45-14.21L719.45-14.21Q720.39-11.43 722.17-9.82L722.17-9.82L722.17-9.82Q723.94-8.21 726.94-8.21L726.94-8.21ZM763.35-26.31L763.35-26.31Q763.35-33.74 765.40-39.41L765.40-39.41L765.40-39.41Q767.45-45.07 771.06-48.90L771.06-48.90L771.06-48.90Q774.67-52.73 779.55-54.67L779.55-54.67L779.55-54.67Q784.44-56.61 790.10-56.61L790.10-56.61L790.10-56.61Q795.09-56.61 798.59-55.39L798.59-55.39L798.59-55.39Q802.09-54.17 804.31-52.06L804.31-52.06L804.31-52.06Q806.53-49.95 807.58-47.06L807.58-47.06L807.58-47.06Q808.63-44.18 808.63-40.85L808.63-40.85L808.63-40.85Q808.63-36.85 806.41-33.24L806.41-33.24L806.41-33.24Q804.19-29.64 800.03-26.92L800.03-26.92L800.03-26.92Q795.87-24.20 789.99-22.59L789.99-22.59L789.99-22.59Q784.10-20.98 776.78-20.87L776.78-20.87L776.78-20.87Q777.11-18.32 777.83-16.04L777.83-16.04L777.83-16.04Q778.55-13.76 779.94-12.04L779.94-12.04L779.94-12.04Q781.33-10.32 783.55-9.32L783.55-9.32L783.55-9.32Q785.77-8.32 789.10-8.32L789.10-8.32L789.10-8.32Q791.54-8.32 794.32-8.88L794.32-8.88L794.32-8.88Q797.09-9.44 799.42-10.21L799.42-10.21L799.42-10.21Q802.20-11.10 804.86-12.21L804.86-12.21L808.19-4.33L808.19-4.33Q805.30-2.89 801.97-1.78L801.97-1.78L801.97-1.78Q799.09-0.78 795.31 0L795.31 0L795.31 0Q791.54 0.78 787.32 0.78L787.32 0.78L787.32 0.78Q780.88 0.78 776.33-1.17L776.33-1.17L776.33-1.17Q771.78-3.11 768.90-6.66L768.90-6.66L768.90-6.66Q766.01-10.21 764.68-15.21L764.68-15.21L764.68-15.21Q763.35-20.20 763.35-26.31L763.35-26.31ZM789.10-47.95L789.10-47.95Q785.44-47.95 783.05-46.23L783.05-46.23L783.05-46.23Q780.66-44.51 779.22-41.79L779.22-41.79L779.22-41.79Q777.78-39.07 777.17-35.69L777.17-35.69L777.17-35.69Q776.56-32.30 776.44-28.86L776.44-28.86L776.44-28.86Q781.77-29.08 785.49-30.25L785.49-30.25L785.49-30.25Q789.21-31.41 791.54-33.13L791.54-33.13L791.54-33.13Q793.87-34.85 794.93-36.85L794.93-36.85L794.93-36.85Q795.98-38.85 795.98-40.85L795.98-40.85L795.98-40.85Q795.98-44.07 794.09-46.01L794.09-46.01L794.09-46.01Q792.21-47.95 789.10-47.95L789.10-47.95ZM895.10 0L882.56 0L882.56-36.19L882.56-36.19Q882.56-40.85 881.12-43.57L881.12-43.57L881.12-43.57Q879.67-46.29 876.12-46.29L876.12-46.29L876.12-46.29Q874.01-46.29 871.85-45.12L871.85-45.12L871.85-45.12Q869.68-43.96 867.91-41.74L867.91-41.74L867.91-41.74Q866.13-39.52 865.02-36.41L865.02-36.41L865.02-36.41Q863.91-33.30 863.91-29.53L863.91-29.53L863.91 0L851.37 0L851.37-36.19L851.37-36.19Q851.37-40.85 849.93-43.57L849.93-43.57L849.93-43.57Q848.48-46.29 844.93-46.29L844.93-46.29L844.93-46.29Q842.71-46.29 840.55-45.01L840.55-45.01L840.55-45.01Q838.38-43.73 836.66-41.29L836.66-41.29L836.66-41.29Q834.94-38.85 833.89-35.35L833.89-35.35L833.89-35.35Q832.83-31.86 832.83-27.53L832.83-27.53L832.83 0L820.18 0L820.18-27.97L820.18-27.97Q820.18-34.63 819.29-39.13L819.29-39.13L819.29-39.13Q818.40-43.62 817.40-46.40L817.40-46.40L817.40-46.40Q816.18-49.62 814.74-51.62L814.74-51.62L824.73-55.61L824.73-55.61Q825.84-54.39 826.95-52.61L826.95-52.61L826.95-52.61Q827.84-51.06 828.73-48.78L828.73-48.78L828.73-48.78Q829.61-46.51 830.17-43.62L830.17-43.62L830.17-43.62Q832.94-50.28 837.99-53.22L837.99-53.22L837.99-53.22Q843.04-56.17 848.71-56.17L848.71-56.17L848.71-56.17Q854.37-56.17 857.53-53.28L857.53-53.28L857.53-53.28Q860.69-50.39 862.25-45.84L862.25-45.84L862.25-45.84Q865.24-51.39 869.96-53.78L869.96-53.78L869.96-53.78Q874.68-56.17 879.90-56.17L879.90-56.17L879.90-56.17Q884.23-56.17 887.17-54.78L887.17-54.78L887.17-54.78Q890.11-53.39 891.83-50.89L891.83-50.89L891.83-50.89Q893.55-48.40 894.33-44.90L894.33-44.90L894.33-44.90Q895.10-41.40 895.10-37.07L895.10-37.07L895.10 0ZM905.65-26.31L905.65-26.31Q905.65-33.74 907.70-39.41L907.70-39.41L907.70-39.41Q909.76-45.07 913.36-48.90L913.36-48.90L913.36-48.90Q916.97-52.73 921.85-54.67L921.85-54.67L921.85-54.67Q926.74-56.61 932.40-56.61L932.40-56.61L932.40-56.61Q937.39-56.61 940.89-55.39L940.89-55.39L940.89-55.39Q944.39-54.17 946.61-52.06L946.61-52.06L946.61-52.06Q948.83-49.95 949.88-47.06L949.88-47.06L949.88-47.06Q950.94-44.18 950.94-40.85L950.94-40.85L950.94-40.85Q950.94-36.85 948.72-33.24L948.72-33.24L948.72-33.24Q946.50-29.64 942.33-26.92L942.33-26.92L942.33-26.92Q938.17-24.20 932.29-22.59L932.29-22.59L932.29-22.59Q926.41-20.98 919.08-20.87L919.08-20.87L919.08-20.87Q919.41-18.32 920.13-16.04L920.13-16.04L920.13-16.04Q920.86-13.76 922.24-12.04L922.24-12.04L922.24-12.04Q923.63-10.32 925.85-9.32L925.85-9.32L925.85-9.32Q928.07-8.32 931.40-8.32L931.40-8.32L931.40-8.32Q933.84-8.32 936.62-8.88L936.62-8.88L936.62-8.88Q939.39-9.44 941.72-10.21L941.72-10.21L941.72-10.21Q944.50-11.10 947.16-12.21L947.16-12.21L950.49-4.33L950.49-4.33Q947.61-2.89 944.28-1.78L944.28-1.78L944.28-1.78Q941.39-0.78 937.62 0L937.62 0L937.62 0Q933.84 0.78 929.62 0.78L929.62 0.78L929.62 0.78Q923.19 0.78 918.64-1.17L918.64-1.17L918.64-1.17Q914.08-3.11 911.20-6.66L911.20-6.66L911.20-6.66Q908.31-10.21 906.98-15.21L906.98-15.21L906.98-15.21Q905.65-20.20 905.65-26.31L905.65-26.31ZM931.40-47.95L931.40-47.95Q927.74-47.95 925.35-46.23L925.35-46.23L925.35-46.23Q922.96-44.51 921.52-41.79L921.52-41.79L921.52-41.79Q920.08-39.07 919.47-35.69L919.47-35.69L919.47-35.69Q918.86-32.30 918.75-28.86L918.75-28.86L918.75-28.86Q924.07-29.08 927.79-30.25L927.79-30.25L927.79-30.25Q931.51-31.41 933.84-33.13L933.84-33.13L933.84-33.13Q936.17-34.85 937.23-36.85L937.23-36.85L937.23-36.85Q938.28-38.85 938.28-40.85L938.28-40.85L938.28-40.85Q938.28-44.07 936.40-46.01L936.40-46.01L936.40-46.01Q934.51-47.95 931.40-47.95L931.40-47.95ZM1008.43 0L995.89 0L995.89-35.85L995.89-35.85Q995.89-40.52 994.23-43.35L994.23-43.35L994.23-43.35Q992.56-46.18 988.57-46.18L988.57-46.18L988.57-46.18Q986.01-46.18 983.63-44.90L983.63-44.90L983.63-44.90Q981.24-43.62 979.35-41.18L979.35-41.18L979.35-41.18Q977.47-38.74 976.30-35.24L976.30-35.24L976.30-35.24Q975.13-31.75 975.13-27.42L975.13-27.42L975.13 0L962.48 0L962.48-27.97L962.48-27.97Q962.48-34.63 961.59-39.13L961.59-39.13L961.59-39.13Q960.70-43.62 959.71-46.40L959.71-46.40L959.71-46.40Q958.48-49.62 957.04-51.62L957.04-51.62L967.03-55.61L967.03-55.61Q968.14-54.39 969.25-52.61L969.25-52.61L969.25-52.61Q970.14-51.06 971.03-48.78L971.03-48.78L971.03-48.78Q971.92-46.51 972.47-43.62L972.47-43.62L972.47-43.62Q975.36-50.28 980.80-53.22L980.80-53.22L980.80-53.22Q986.23-56.17 992.23-56.17L992.23-56.17L992.23-56.17Q1000.78-56.17 1004.61-51.00L1004.61-51.00L1004.61-51.00Q1008.43-45.84 1008.43-37.07L1008.43-37.07L1008.43 0ZM1016.32-46.29L1016.32-55.28L1026.31-55.28L1028.53-68.27L1038.96-70.60L1038.96-55.28L1052.61-55.28L1051.06-46.29L1038.96-46.29L1038.96-13.43L1038.96-13.43Q1038.96-10.54 1040.51-9.71L1040.51-9.71L1040.51-9.71Q1042.07-8.88 1043.95-8.88L1043.95-8.88L1043.95-8.88Q1045.51-8.88 1047.06-9.10L1047.06-9.10L1047.06-9.10Q1048.62-9.32 1049.84-9.66L1049.84-9.66L1049.84-9.66Q1051.28-9.99 1052.61-10.43L1052.61-10.43L1054.72-2.11L1053.72-1.78L1053.72-1.78Q1052.72-1.33 1050.78-0.83L1050.78-0.83L1050.78-0.83Q1048.84-0.33 1046.23 0.06L1046.23 0.06L1046.23 0.06Q1043.62 0.44 1040.51 0.44L1040.51 0.44L1040.51 0.44Q1037.41 0.44 1034.80-0.22L1034.80-0.22L1034.80-0.22Q1032.19-0.89 1030.30-2.39L1030.30-2.39L1030.30-2.39Q1028.41-3.89 1027.36-6.22L1027.36-6.22L1027.36-6.22Q1026.31-8.55 1026.31-11.99L1026.31-11.99L1026.31-46.29L1016.32-46.29Z" fill="#c887ff"></path></g></g><style>text {
  font-size: 64px;
  font-family: Arial Black;
  dominant-baseline: central;
  text-anchor: middle;
}</style></svg>