<svg width="1097.705029296875px" height="202.4px" xmlns="http://www.w3.org/2000/svg" viewBox="-298.8525146484375 -26.200000000000003 1097.705029296875 202.4" style="background: rgb(21, 21, 21);" preserveAspectRatio="xMidYMid"><defs><filter id="editing-hover" x="-100%" y="-100%" width="300%" height="300%"><feFlood flood-color="#000000" result="flood"></feFlood><feComposite operator="in" in2="SourceAlpha" in="flood" result="shadow"></feComposite><feOffset dx="-4" dy="-4" in="SourceGraphic" result="offset-1"></feOffset><feOffset dx="4" dy="4" in="shadow" result="offset-2"></feOffset><feMerge><feMergeNode in="offset-2"></feMergeNode><feMergeNode in="offset-1"></feMergeNode></feMerge></filter></defs><g filter="url(#editing-hover)"><g transform="translate(-148.32499265670776, 127.28000211715698)"><path d="M7.77 0L7.77-75.15L7.77-75.15Q8.55-75.15 11.32-75.20L11.32-75.20L11.32-75.20Q14.10-75.26 17.54-75.26L17.54-75.26L17.54-75.26Q20.98-75.26 24.42-75.31L24.42-75.31L24.42-75.31Q27.86-75.37 30.08-75.37L30.08-75.37L30.08-75.37Q43.84-75.37 50.17-69.99L50.17-69.99L50.17-69.99Q56.50-64.60 56.50-54.83L56.50-54.83L56.50-54.83Q56.50-48.40 53.28-43.40L53.28-43.40L53.28-43.40Q50.06-38.41 42.73-36.19L42.73-36.19L42.73-36.19Q45.84-34.41 48.29-31.30L48.29-31.30L48.29-31.30Q50.73-28.19 53.06-23.70L53.06-23.70L53.06-23.70Q55.39-19.20 57.83-13.26L57.83-13.26L57.83-13.26Q60.27-7.33 63.49 0L63.49 0L49.17 0L49.17 0Q45.40-8.77 42.57-14.98L42.57-14.98L42.57-14.98Q39.74-21.20 37.07-25.09L37.07-25.09L37.07-25.09Q34.41-28.97 31.36-30.75L31.36-30.75L31.36-30.75Q28.30-32.52 24.20-32.52L24.20-32.52L20.98-32.52L20.98 0L7.77 0ZM20.98-65.93L20.98-42.18L29.53-42.18L29.53-42.18Q35.74-42.18 39.13-44.95L39.13-44.95L39.13-44.95Q42.51-47.73 42.51-53.17L42.51-53.17L42.51-53.17Q42.51-55.61 41.85-57.94L41.85-57.94L41.85-57.94Q41.18-60.27 39.57-62.05L39.57-62.05L39.57-62.05Q37.96-63.83 35.24-64.88L35.24-64.88L35.24-64.88Q32.52-65.93 28.42-65.93L28.42-65.93L20.98-65.93ZM65.38-26.31L65.38-26.31Q65.38-33.74 67.43-39.41L67.43-39.41L67.43-39.41Q69.49-45.07 73.09-48.90L73.09-48.90L73.09-48.90Q76.70-52.73 81.59-54.67L81.59-54.67L81.59-54.67Q86.47-56.61 92.13-56.61L92.13-56.61L92.13-56.61Q97.13-56.61 100.62-55.39L100.62-55.39L100.62-55.39Q104.12-54.17 106.34-52.06L106.34-52.06L106.34-52.06Q108.56-49.95 109.61-47.06L109.61-47.06L109.61-47.06Q110.67-44.18 110.67-40.85L110.67-40.85L110.67-40.85Q110.67-36.85 108.45-33.24L108.45-33.24L108.45-33.24Q106.23-29.64 102.06-26.92L102.06-26.92L102.06-26.92Q97.90-24.20 92.02-22.59L92.02-22.59L92.02-22.59Q86.14-20.98 78.81-20.87L78.81-20.87L78.81-20.87Q79.14-18.32 79.86-16.04L79.86-16.04L79.86-16.04Q80.59-13.76 81.97-12.04L81.97-12.04L81.97-12.04Q83.36-10.32 85.58-9.32L85.58-9.32L85.58-9.32Q87.80-8.32 91.13-8.32L91.13-8.32L91.13-8.32Q93.57-8.32 96.35-8.88L96.35-8.88L96.35-8.88Q99.12-9.44 101.45-10.21L101.45-10.21L101.45-10.21Q104.23-11.10 106.89-12.21L106.89-12.21L110.22-4.33L110.22-4.33Q107.34-2.89 104.01-1.78L104.01-1.78L104.01-1.78Q101.12-0.78 97.35 0L97.35 0L97.35 0Q93.57 0.78 89.36 0.78L89.36 0.78L89.36 0.78Q82.92 0.78 78.37-1.17L78.37-1.17L78.37-1.17Q73.81-3.11 70.93-6.66L70.93-6.66L70.93-6.66Q68.04-10.21 66.71-15.21L66.71-15.21L66.71-15.21Q65.38-20.20 65.38-26.31L65.38-26.31ZM91.13-47.95L91.13-47.95Q87.47-47.95 85.08-46.23L85.08-46.23L85.08-46.23Q82.69-44.51 81.25-41.79L81.25-41.79L81.25-41.79Q79.81-39.07 79.20-35.69L79.20-35.69L79.20-35.69Q78.59-32.30 78.48-28.86L78.48-28.86L78.48-28.86Q83.81-29.08 87.52-30.25L87.52-30.25L87.52-30.25Q91.24-31.41 93.57-33.13L93.57-33.13L93.57-33.13Q95.90-34.85 96.96-36.85L96.96-36.85L96.96-36.85Q98.01-38.85 98.01-40.85L98.01-40.85L98.01-40.85Q98.01-44.07 96.13-46.01L96.13-46.01L96.13-46.01Q94.24-47.95 91.13-47.95L91.13-47.95ZM137.53-56.61L137.53-56.61L137.53-56.61Q140.75-56.61 143.86-55.94L143.86-55.94L143.86-55.94Q146.96-55.28 149.41-54.39L149.41-54.39L149.41-54.39Q152.29-53.39 154.73-52.28L154.73-52.28L150.96-43.62L150.96-43.62Q148.74-44.62 146.52-45.40L146.52-45.40L146.52-45.40Q144.63-46.06 142.36-46.68L142.36-46.68L142.36-46.68Q140.08-47.29 137.86-47.29L137.86-47.29L137.86-47.29Q135.31-47.29 133.48-46.06L133.48-46.06L133.48-46.06Q131.65-44.84 131.65-42.40L131.65-42.40L131.65-42.40Q131.65-36.08 140.86-32.52L140.86-32.52L140.86-32.52Q144.30-31.19 147.07-29.69L147.07-29.69L147.07-29.69Q149.85-28.19 151.79-26.20L151.79-26.20L151.79-26.20Q153.74-24.20 154.73-21.59L154.73-21.59L154.73-21.59Q155.73-18.98 155.73-15.43L155.73-15.43L155.73-15.43Q155.73-12.32 154.46-9.32L154.46-9.32L154.46-9.32Q153.18-6.33 150.68-4.00L150.68-4.00L150.68-4.00Q148.19-1.67 144.58-0.28L144.58-0.28L144.58-0.28Q140.97 1.11 136.42 1.11L136.42 1.11L136.42 1.11Q132.76 1.11 129.20 0.28L129.20 0.28L129.20 0.28Q125.65-0.56 122.82-1.55L122.82-1.55L122.82-1.55Q119.99-2.55 118.33-3.44L118.33-3.44L116.66-4.22L120.77-13.54L122.21-12.77L122.21-12.77Q123.65-11.88 125.87-10.88L125.87-10.88L125.87-10.88Q128.09-9.88 130.65-9.05L130.65-9.05L130.65-9.05Q133.20-8.21 135.31-8.21L135.31-8.21L135.31-8.21Q139.19-8.21 141.08-9.77L141.08-9.77L141.08-9.77Q142.97-11.32 142.97-13.88L142.97-13.88L142.97-13.88Q142.97-16.76 140.91-19.15L140.91-19.15L140.91-19.15Q138.86-21.53 134.75-23.09L134.75-23.09L134.75-23.09Q126.21-26.31 122.49-30.41L122.49-30.41L122.49-30.41Q118.77-34.52 118.77-41.07L118.77-41.07L118.77-41.07Q118.77-44.18 120.21-47.01L120.21-47.01L120.21-47.01Q121.66-49.84 124.15-52.00L124.15-52.00L124.15-52.00Q126.65-54.17 130.09-55.39L130.09-55.39L130.09-55.39Q133.53-56.61 137.53-56.61ZM163.61-26.31L163.61-26.31Q163.61-33.74 165.67-39.41L165.67-39.41L165.67-39.41Q167.72-45.07 171.33-48.90L171.33-48.90L171.33-48.90Q174.94-52.73 179.82-54.67L179.82-54.67L179.82-54.67Q184.70-56.61 190.36-56.61L190.36-56.61L190.36-56.61Q195.36-56.61 198.86-55.39L198.86-55.39L198.86-55.39Q202.35-54.17 204.57-52.06L204.57-52.06L204.57-52.06Q206.79-49.95 207.85-47.06L207.85-47.06L207.85-47.06Q208.90-44.18 208.90-40.85L208.90-40.85L208.90-40.85Q208.90-36.85 206.68-33.24L206.68-33.24L206.68-33.24Q204.46-29.64 200.30-26.92L200.30-26.92L200.30-26.92Q196.14-24.20 190.25-22.59L190.25-22.59L190.25-22.59Q184.37-20.98 177.04-20.87L177.04-20.87L177.04-20.87Q177.38-18.32 178.10-16.04L178.10-16.04L178.10-16.04Q178.82-13.76 180.21-12.04L180.21-12.04L180.21-12.04Q181.60-10.32 183.82-9.32L183.82-9.32L183.82-9.32Q186.04-8.32 189.37-8.32L189.37-8.32L189.37-8.32Q191.81-8.32 194.58-8.88L194.58-8.88L194.58-8.88Q197.36-9.44 199.69-10.21L199.69-10.21L199.69-10.21Q202.46-11.10 205.13-12.21L205.13-12.21L208.46-4.33L208.46-4.33Q205.57-2.89 202.24-1.78L202.24-1.78L202.24-1.78Q199.36-0.78 195.58 0L195.58 0L195.58 0Q191.81 0.78 187.59 0.78L187.59 0.78L187.59 0.78Q181.15 0.78 176.60-1.17L176.60-1.17L176.60-1.17Q172.05-3.11 169.16-6.66L169.16-6.66L169.16-6.66Q166.28-10.21 164.95-15.21L164.95-15.21L164.95-15.21Q163.61-20.20 163.61-26.31L163.61-26.31ZM189.37-47.95L189.37-47.95Q185.70-47.95 183.32-46.23L183.32-46.23L183.32-46.23Q180.93-44.51 179.49-41.79L179.49-41.79L179.49-41.79Q178.04-39.07 177.43-35.69L177.43-35.69L177.43-35.69Q176.82-32.30 176.71-28.86L176.71-28.86L176.71-28.86Q182.04-29.08 185.76-30.25L185.76-30.25L185.76-30.25Q189.48-31.41 191.81-33.13L191.81-33.13L191.81-33.13Q194.14-34.85 195.19-36.85L195.19-36.85L195.19-36.85Q196.25-38.85 196.25-40.85L196.25-40.85L196.25-40.85Q196.25-44.07 194.36-46.01L194.36-46.01L194.36-46.01Q192.47-47.95 189.37-47.95L189.37-47.95ZM264.07-52.95L264.07-26.75L264.07-26.75Q264.07-20.09 264.90-15.60L264.90-15.60L264.90-15.60Q265.73-11.10 266.73-8.32L266.73-8.32L266.73-8.32Q267.95-5.00 269.40-3.11L269.40-3.11L259.52 0.89L259.52 0.89Q258.07-0.56 256.85-2.55L256.85-2.55L256.85-2.55Q255.85-4.33 254.97-6.83L254.97-6.83L254.97-6.83Q254.08-9.32 253.86-12.77L253.86-12.77L253.86-12.77Q251.97-6.11 247.81-2.72L247.81-2.72L247.81-2.72Q243.64 0.67 236.54 0.67L236.54 0.67L236.54 0.67Q231.32 0.67 227.49-1.28L227.49-1.28L227.49-1.28Q223.66-3.22 221.11-6.83L221.11-6.83L221.11-6.83Q218.56-10.43 217.34-15.54L217.34-15.54L217.34-15.54Q216.12-20.65 216.12-26.86L216.12-26.86L216.12-26.86Q216.12-33.19 218.06-38.57L218.06-38.57L218.06-38.57Q220.00-43.96 223.50-47.84L223.50-47.84L223.50-47.84Q226.99-51.73 231.88-53.95L231.88-53.95L231.88-53.95Q236.76-56.17 242.65-56.17L242.65-56.17L242.65-56.17Q245.98-56.17 249.58-55.67L249.58-55.67L249.58-55.67Q253.19-55.17 256.30-54.61L256.30-54.61L256.30-54.61Q259.41-54.06 261.57-53.56L261.57-53.56L261.57-53.56Q263.74-53.06 264.07-52.95L264.07-52.95ZM238.65-8.21L238.65-8.21Q241.42-8.21 243.76-10.10L243.76-10.10L243.76-10.10Q246.09-11.99 247.81-15.04L247.81-15.04L247.81-15.04Q249.53-18.09 250.47-22.03L250.47-22.03L250.47-22.03Q251.41-25.97 251.41-30.08L251.41-30.08L251.41-46.06L251.41-46.06Q250.30-46.40 248.08-46.84L248.08-46.84L248.08-46.84Q245.86-47.29 244.09-47.29L244.09-47.29L244.09-47.29Q239.87-47.29 237.15-45.84L237.15-45.84L237.15-45.84Q234.43-44.40 232.77-41.85L232.77-41.85L232.77-41.85Q231.10-39.29 230.44-35.74L230.44-35.74L230.44-35.74Q229.77-32.19 229.77-27.97L229.77-27.97L229.77-27.97Q229.77-24.09 229.99-20.54L229.99-20.54L229.99-20.54Q230.21-16.98 231.16-14.21L231.16-14.21L231.16-14.21Q232.10-11.43 233.88-9.82L233.88-9.82L233.88-9.82Q235.65-8.21 238.65-8.21L238.65-8.21ZM301.48-43.73L301.48-43.73Q299.48-43.73 297.48-42.73L297.48-42.73L297.48-42.73Q295.48-41.74 293.93-40.02L293.93-40.02L293.93-40.02Q292.37-38.30 291.37-35.85L291.37-35.85L291.37-35.85Q290.38-33.41 290.38-30.41L290.38-30.41L290.38 0L277.72 0L277.72-27.97L277.72-27.97Q277.72-34.63 276.83-39.13L276.83-39.13L276.83-39.13Q275.95-43.62 274.95-46.40L274.95-46.40L274.95-46.40Q273.73-49.62 272.28-51.62L272.28-51.62L282.27-55.61L282.27-55.61Q283.27-54.39 284.38-52.61L284.38-52.61L284.38-52.61Q285.27-51.06 286.16-48.95L286.16-48.95L286.16-48.95Q287.05-46.84 287.60-43.96L287.60-43.96L287.60-43.96Q289.82-50.39 294.04-53.22L294.04-53.22L294.04-53.22Q298.26-56.05 303.58-56.05L303.58-56.05L303.58-56.05Q306.14-56.05 308.36-55.44L308.36-55.44L308.36-55.44Q310.58-54.83 310.47-54.83L310.47-54.83L306.91-42.51L306.91-42.51Q307.03-42.51 305.64-43.12L305.64-43.12L305.64-43.12Q304.25-43.73 301.48-43.73L301.48-43.73ZM351.43-49.06L344.32-42.29L344.32-42.29Q342.66-44.18 340.94-45.51L340.94-45.51L340.94-45.51Q339.22-46.84 336.33-46.84L336.33-46.84L336.33-46.84Q334.66-46.84 332.61-46.34L332.61-46.34L332.61-46.34Q330.56-45.84 328.78-43.90L328.78-43.90L328.78-43.90Q327.01-41.96 325.84-38.18L325.84-38.18L325.84-38.18Q324.67-34.41 324.67-27.97L324.67-27.97L324.67-27.97Q324.67-21.42 325.84-17.59L325.84-17.59L325.84-17.59Q327.01-13.76 328.84-11.65L328.84-11.65L328.84-11.65Q330.67-9.55 332.78-8.94L332.78-8.94L332.78-8.94Q334.89-8.32 336.88-8.32L336.88-8.32L336.88-8.32Q338.44-8.32 340.10-8.60L340.10-8.60L340.10-8.60Q341.77-8.88 343.32-9.27L343.32-9.27L343.32-9.27Q344.88-9.66 346.04-9.99L346.04-9.99L346.04-9.99Q347.21-10.32 347.76-10.54L347.76-10.54L350.87-2.55L350.87-2.55Q350.54-2.44 349.37-1.89L349.37-1.89L349.37-1.89Q348.21-1.33 346.21-0.78L346.21-0.78L346.21-0.78Q344.21-0.22 341.44 0.28L341.44 0.28L341.44 0.28Q338.66 0.78 335.22 0.78L335.22 0.78L335.22 0.78Q328.78 0.78 324.23-1.17L324.23-1.17L324.23-1.17Q319.68-3.11 316.74-6.66L316.74-6.66L316.74-6.66Q313.80-10.21 312.41-15.21L312.41-15.21L312.41-15.21Q311.02-20.20 311.02-26.31L311.02-26.31L311.02-26.31Q311.02-33.63 312.96-39.29L312.96-39.29L312.96-39.29Q314.91-44.95 318.35-48.78L318.35-48.78L318.35-48.78Q321.79-52.61 326.45-54.61L326.45-54.61L326.45-54.61Q331.11-56.61 336.44-56.61L336.44-56.61L336.44-56.61Q341.66-56.61 345.27-54.61L345.27-54.61L345.27-54.61Q348.87-52.61 351.43-49.06L351.43-49.06ZM372.52-80.47L372.52-48.17L372.52-48.17Q375.73-52.39 380.23-54.28L380.23-54.28L380.23-54.28Q384.73-56.17 389.72-56.17L389.72-56.17L389.72-56.17Q398.27-56.17 402.10-51.00L402.10-51.00L402.10-51.00Q405.93-45.84 405.93-37.07L405.93-37.07L405.93 0L393.27 0L393.27-36.19L393.27-36.19Q393.27-40.85 391.61-43.57L391.61-43.57L391.61-43.57Q389.94-46.29 385.95-46.29L385.95-46.29L385.95-46.29Q383.62-46.29 381.23-45.07L381.23-45.07L381.23-45.07Q378.84-43.84 376.90-41.57L376.90-41.57L376.90-41.57Q374.96-39.29 373.74-36.19L373.74-36.19L373.74-36.19Q372.52-33.08 372.52-29.30L372.52-29.30L372.52 0L359.86 0L359.86-78.25L372.52-80.47ZM506.94 0L492.06-45.62L492.06-45.62Q490.40-50.17 489.40-54.50L489.40-54.50L489.40-54.50Q488.84-52.39 488.34-50.28L488.34-50.28L488.34-50.28Q487.84-48.17 487.07-45.62L487.07-45.62L472.64 0L462.87 0L442.00-75.15L455.21-75.15L464.98-37.52L464.98-37.52Q467.53-27.75 468.64-21.76L468.64-21.76L468.64-21.76Q469.42-24.86 470.47-28.64L470.47-28.64L470.47-28.64Q471.53-32.41 473.08-37.30L473.08-37.30L484.85-75.15L494.73-75.15L506.49-37.30L506.49-37.30Q508.05-32.30 509.16-28.19L509.16-28.19L509.16-28.19Q510.27-24.09 510.93-20.98L510.93-20.98L510.93-20.98Q511.38-24.09 512.21-28.19L512.21-28.19L512.21-28.19Q513.04-32.30 514.37-37.30L514.37-37.30L524.14-75.15L537.57-75.15L516.70 0L506.94 0ZM567.10-43.73L567.10-43.73Q565.10-43.73 563.10-42.73L563.10-42.73L563.10-42.73Q561.10-41.74 559.55-40.02L559.55-40.02L559.55-40.02Q558.00-38.30 557.00-35.85L557.00-35.85L557.00-35.85Q556.00-33.41 556.00-30.41L556.00-30.41L556.00 0L543.34 0L543.34-27.97L543.34-27.97Q543.34-34.63 542.46-39.13L542.46-39.13L542.46-39.13Q541.57-43.62 540.57-46.40L540.57-46.40L540.57-46.40Q539.35-49.62 537.91-51.62L537.91-51.62L547.90-55.61L547.90-55.61Q548.89-54.39 550.00-52.61L550.00-52.61L550.00-52.61Q550.89-51.06 551.78-48.95L551.78-48.95L551.78-48.95Q552.67-46.84 553.22-43.96L553.22-43.96L553.22-43.96Q555.44-50.39 559.66-53.22L559.66-53.22L559.66-53.22Q563.88-56.05 569.21-56.05L569.21-56.05L569.21-56.05Q571.76-56.05 573.98-55.44L573.98-55.44L573.98-55.44Q576.20-54.83 576.09-54.83L576.09-54.83L572.54-42.51L572.54-42.51Q572.65-42.51 571.26-43.12L571.26-43.12L571.26-43.12Q569.87-43.73 567.10-43.73L567.10-43.73ZM594.96 0.44L594.96 0.44Q589.08 0.44 585.97-3.05L585.97-3.05L585.97-3.05Q582.86-6.55 582.86-12.10L582.86-12.10L582.86-55.28L595.51-55.28L595.51-13.21L595.51-13.21Q595.51-10.66 596.29-9.77L596.29-9.77L596.29-9.77Q597.07-8.88 598.62-8.88L598.62-8.88L598.62-8.88Q599.07-8.88 599.57-8.88L599.57-8.88L599.57-8.88Q600.07-8.88 600.51-8.99L600.51-8.99L600.51-8.99Q600.95-8.99 601.51-9.10L601.51-9.10L602.84-1.11L602.84-1.11Q602.06-0.67 600.84-0.33L600.84-0.33L600.84-0.33Q599.84 0 598.35 0.22L598.35 0.22L598.35 0.22Q596.85 0.44 594.96 0.44L594.96 0.44ZM589.41-79.92L589.41-79.92Q592.96-79.92 594.85-77.81L594.85-77.81L594.85-77.81Q596.74-75.70 596.74-72.37L596.74-72.37L596.74-72.37Q596.74-69.04 594.79-66.82L594.79-66.82L594.79-66.82Q592.85-64.60 589.08-64.60L589.08-64.60L589.08-64.60Q585.52-64.60 583.58-66.77L583.58-66.77L583.58-66.77Q581.64-68.93 581.64-72.04L581.64-72.04L581.64-72.04Q581.64-75.48 583.58-77.70L583.58-77.70L583.58-77.70Q585.52-79.92 589.41-79.92L589.41-79.92ZM605.62-46.29L605.62-55.28L615.61-55.28L617.83-68.27L628.26-70.60L628.26-55.28L641.91-55.28L640.36-46.29L628.26-46.29L628.26-13.43L628.26-13.43Q628.26-10.54 629.81-9.71L629.81-9.71L629.81-9.71Q631.37-8.88 633.25-8.88L633.25-8.88L633.25-8.88Q634.81-8.88 636.36-9.10L636.36-9.10L636.36-9.10Q637.92-9.32 639.14-9.66L639.14-9.66L639.14-9.66Q640.58-9.99 641.91-10.43L641.91-10.43L644.02-2.11L643.02-1.78L643.02-1.78Q642.02-1.33 640.08-0.83L640.08-0.83L640.08-0.83Q638.14-0.33 635.53 0.06L635.53 0.06L635.53 0.06Q632.92 0.44 629.81 0.44L629.81 0.44L629.81 0.44Q626.71 0.44 624.10-0.22L624.10-0.22L624.10-0.22Q621.49-0.89 619.60-2.39L619.60-2.39L619.60-2.39Q617.71-3.89 616.66-6.22L616.66-6.22L616.66-6.22Q615.61-8.55 615.61-11.99L615.61-11.99L615.61-46.29L605.62-46.29ZM663.45 0.44L663.45 0.44Q657.56 0.44 654.46-3.05L654.46-3.05L654.46-3.05Q651.35-6.55 651.35-12.10L651.35-12.10L651.35-55.28L664.00-55.28L664.00-13.21L664.00-13.21Q664.00-10.66 664.78-9.77L664.78-9.77L664.78-9.77Q665.56-8.88 667.11-8.88L667.11-8.88L667.11-8.88Q667.55-8.88 668.05-8.88L668.05-8.88L668.05-8.88Q668.55-8.88 669.00-8.99L669.00-8.99L669.00-8.99Q669.44-8.99 670.00-9.10L670.00-9.10L671.33-1.11L671.33-1.11Q670.55-0.67 669.33-0.33L669.33-0.33L669.33-0.33Q668.33 0 666.83 0.22L666.83 0.22L666.83 0.22Q665.33 0.44 663.45 0.44L663.45 0.44ZM657.90-79.92L657.90-79.92Q661.45-79.92 663.34-77.81L663.34-77.81L663.34-77.81Q665.22-75.70 665.22-72.37L665.22-72.37L665.22-72.37Q665.22-69.04 663.28-66.82L663.28-66.82L663.28-66.82Q661.34-64.60 657.56-64.60L657.56-64.60L657.56-64.60Q654.01-64.60 652.07-66.77L652.07-66.77L652.07-66.77Q650.13-68.93 650.13-72.04L650.13-72.04L650.13-72.04Q650.13-75.48 652.07-77.70L652.07-77.70L652.07-77.70Q654.01-79.92 657.90-79.92L657.90-79.92ZM727.16 0L714.62 0L714.62-35.85L714.62-35.85Q714.62-40.52 712.95-43.35L712.95-43.35L712.95-43.35Q711.29-46.18 707.29-46.18L707.29-46.18L707.29-46.18Q704.74-46.18 702.35-44.90L702.35-44.90L702.35-44.90Q699.97-43.62 698.08-41.18L698.08-41.18L698.08-41.18Q696.19-38.74 695.03-35.24L695.03-35.24L695.03-35.24Q693.86-31.75 693.86-27.42L693.86-27.42L693.86 0L681.21 0L681.21-27.97L681.21-27.97Q681.21-34.63 680.32-39.13L680.32-39.13L680.32-39.13Q679.43-43.62 678.43-46.40L678.43-46.40L678.43-46.40Q677.21-49.62 675.77-51.62L675.77-51.62L685.76-55.61L685.76-55.61Q686.87-54.39 687.98-52.61L687.98-52.61L687.98-52.61Q688.87-51.06 689.75-48.78L689.75-48.78L689.75-48.78Q690.64-46.51 691.20-43.62L691.20-43.62L691.20-43.62Q694.08-50.28 699.52-53.22L699.52-53.22L699.52-53.22Q704.96-56.17 710.96-56.17L710.96-56.17L710.96-56.17Q719.50-56.17 723.33-51.00L723.33-51.00L723.33-51.00Q727.16-45.84 727.16-37.07L727.16-37.07L727.16 0ZM746.36 19.43L749.47 9.77L749.47 9.77Q751.14 10.43 753.02 11.16L753.02 11.16L753.02 11.16Q754.91 11.88 757.02 12.54L757.02 12.54L757.02 12.54Q759.13 13.21 761.29 13.65L761.29 13.65L761.29 13.65Q763.46 14.10 765.57 14.10L765.57 14.10L765.57 14.10Q771.78 14.10 774.56 10.38L774.56 10.38L774.56 10.38Q777.33 6.66 777.33 0.78L777.33 0.78L777.33 0.78Q777.33-5.00 774.89-10.88L774.89-10.88L774.89-10.88Q773.00-5.22 768.95-2.28L768.95-2.28L768.95-2.28Q764.90 0.67 758.24 0.67L758.24 0.67L758.24 0.67Q753.02 0.67 749.19-1.28L749.19-1.28L749.19-1.28Q745.37-3.22 742.81-6.83L742.81-6.83L742.81-6.83Q740.26-10.43 739.04-15.54L739.04-15.54L739.04-15.54Q737.82-20.65 737.82-26.86L737.82-26.86L737.82-26.86Q737.82-33.19 739.76-38.57L739.76-38.57L739.76-38.57Q741.70-43.96 745.20-47.84L745.20-47.84L745.20-47.84Q748.70-51.73 753.58-53.95L753.58-53.95L753.58-53.95Q758.46-56.17 764.35-56.17L764.35-56.17L764.35-56.17Q767.01-56.17 770.06-55.83L770.06-55.83L770.06-55.83Q773.12-55.50 776.06-55.00L776.06-55.00L776.06-55.00Q779.00-54.50 781.61-53.95L781.61-53.95L781.61-53.95Q784.22-53.39 786.10-52.95L786.10-52.95L785.55-22.42L785.55-22.42Q785.44-19.09 785.94-16.32L785.94-16.32L785.94-16.32Q786.44-13.54 787.10-10.82L787.10-10.82L787.10-10.82Q787.77-8.10 788.32-5.33L788.32-5.33L788.32-5.33Q788.88-2.55 788.88 0.78L788.88 0.78L788.88 0.78Q788.88 12.54 782.88 18.32L782.88 18.32L782.88 18.32Q776.89 24.09 766.68 24.09L766.68 24.09L766.68 24.09Q763.35 24.09 760.02 23.48L760.02 23.48L760.02 23.48Q756.69 22.87 753.86 22.09L753.86 22.09L753.86 22.09Q751.03 21.31 749.03 20.54L749.03 20.54L749.03 20.54Q747.03 19.76 746.36 19.43L746.36 19.43ZM760.35-8.21L760.35-8.21Q763.01-8.21 765.29-9.99L765.29-9.99L765.29-9.99Q767.57-11.77 769.34-14.71L769.34-14.71L769.34-14.71Q771.12-17.65 772.12-21.42L772.12-21.42L772.12-21.42Q773.12-25.20 773.12-29.19L773.12-29.19L773.12-46.06L773.12-46.06Q772.00-46.40 769.78-46.84L769.78-46.84L769.78-46.84Q767.57-47.29 765.79-47.29L765.79-47.29L765.79-47.29Q761.57-47.29 758.85-45.84L758.85-45.84L758.85-45.84Q756.13-44.40 754.47-41.85L754.47-41.85L754.47-41.85Q752.80-39.29 752.14-35.74L752.14-35.74L752.14-35.74Q751.47-32.19 751.47-27.97L751.47-27.97L751.47-27.97Q751.47-24.09 751.69-20.54L751.69-20.54L751.69-20.54Q751.91-16.98 752.86-14.21L752.86-14.21L752.86-14.21Q753.80-11.43 755.58-9.82L755.58-9.82L755.58-9.82Q757.35-8.21 760.35-8.21L760.35-8.21Z" fill="#c887ff"></path></g></g><style>text {
  font-size: 64px;
  font-family: Arial Black;
  dominant-baseline: central;
  text-anchor: middle;
}</style></svg>